<svg width="86" height="86" viewBox="0 0 86 86" fill="none" xmlns="http://www.w3.org/2000/svg">
<path d="M42.9446 85.8893C66.6623 85.8893 85.8893 66.6623 85.8893 42.9447C85.8893 19.227 66.6623 0 42.9446 0C19.227 0 0 19.227 0 42.9447C0 66.6623 19.227 85.8893 42.9446 85.8893Z" fill="#ECE769"/>
<path d="M43.5 71C43.5 71 17 46 17 36C17 26 23.1363 20 30.25 20C37.3637 20 43.5 32.5 43.5 32.5C43.5 32.5 49.6363 20 56.75 20C63.8637 20 70 27.5 70 36C70 44.5 43.5 71 43.5 71Z" stroke="#34113F" stroke-width="8.40447"/>
<path d="M52 54.5L42.5 81L44 54.5L34.5 40.5L43 21.5L57 12L51 23.5L42.5 40.5L52 54.5Z" fill="#ECE769" stroke="#34113F" stroke-width="2"/>
<path d="M27 62L44.5 79" stroke="#ECE769" stroke-width="2"/>
<path d="M59 62L43 79" stroke="#ECE769" stroke-width="2"/>
<path d="M42.5 23.0001C42.5 23.0001 44.7598 20.6206 47 19.0001C47.5 18.6384 51.5 15.5001 54.5 15.0001C54.5 15.0001 57.5 14.5 59.5 15.0001" stroke="#ECE769" stroke-width="2"/>
<path d="M42 21L44 23.5" stroke="#ECE769" stroke-width="2"/>
<rect x="35.3711" y="70" width="6" height="3.44636" transform="rotate(43.4608 35.3711 70)" fill="#ECE769"/>
<rect x="35.3711" y="70" width="6" height="3.44636" transform="rotate(43.4608 35.3711 70)" fill="#ECE769"/>
<rect x="41.3711" y="76" width="6" height="3.44636" transform="rotate(43.4608 41.3711 76)" fill="#ECE769"/>
<rect x="41.3711" y="76" width="6" height="3.44636" transform="rotate(43.4608 41.3711 76)" fill="#ECE769"/>
<rect x="40.9014" y="18.5299" width="18.2973" height="5.04447" transform="rotate(-33.2899 40.9014 18.5299)" fill="#ECE769"/>
<rect x="40.9014" y="18.5299" width="18.2973" height="5.04447" transform="rotate(-33.2899 40.9014 18.5299)" fill="#ECE769"/>
<rect x="51.2852" y="11" width="6" height="3.44636" transform="rotate(4.75009 51.2852 11)" fill="#ECE769"/>
<rect x="51.2852" y="11" width="6" height="3.44636" transform="rotate(4.75009 51.2852 11)" fill="#ECE769"/>
</svg>
