<svg width="86" height="86" viewBox="0 0 86 86" fill="none" xmlns="http://www.w3.org/2000/svg">
<path d="M42.9446 85.8893C66.6623 85.8893 85.8893 66.6623 85.8893 42.9447C85.8893 19.227 66.6623 0 42.9446 0C19.227 0 0 19.227 0 42.9447C0 66.6623 19.227 85.8893 42.9446 85.8893Z" fill="#498DF2"/>
<path d="M50.5838 57.4461L66.3131 52.8436Z" fill="black"/>
<path d="M50.5838 57.4461L66.3131 52.8436" stroke="#34113F" stroke-width="5" stroke-miterlimit="15.12" stroke-linecap="round"/>
<path d="M64.6243 70.4138L66.3135 52.8435Z" fill="black"/>
<path d="M64.6243 70.4138L66.3135 52.8435" stroke="#34113F" stroke-width="5" stroke-miterlimit="15.12" stroke-linecap="round"/>
<path d="M33.3908 29.9678L17.6615 34.5703Z" fill="black"/>
<path d="M33.3908 29.9678L17.6615 34.5703" stroke="#34113F" stroke-width="5" stroke-miterlimit="15.12" stroke-linecap="round"/>
<path d="M19.3503 17L17.6611 34.5703Z" fill="black"/>
<path d="M19.3503 17L17.6611 34.5703" stroke="#34113F" stroke-width="5" stroke-miterlimit="15.12" stroke-linecap="round"/>
<circle cx="43" cy="43" r="25" stroke="#34113F" stroke-width="10"/>
</svg>
