<svg width="438" height="438" viewBox="0 0 438 438" fill="none" xmlns="http://www.w3.org/2000/svg">
<path d="M287.015 420.943L265.592 382.234C265.592 382.234 251.366 391.451 218.031 391.451C181.688 391.451 169.989 380.793 169.989 380.793L147.846 420.766C147.846 420.766 182.596 433.283 218.716 433.283C251.909 433.283 287.015 420.952 287.015 420.952V420.943Z" fill="#BDD2CD" stroke="#FFCDBC" stroke-width="3.39267" stroke-miterlimit="15.12"/>
<path d="M283.962 16.4516L262.539 55.1606C262.539 55.1606 248.314 45.9438 214.978 45.9438C178.636 45.9438 166.937 56.6019 166.937 56.6019L144.793 16.6296C144.793 16.6296 179.543 4.11206 215.663 4.11206C248.856 4.11206 283.962 16.4427 283.962 16.4427V16.4516Z" fill="#BDD2CD" stroke="#FFCDBC" stroke-width="3.39267" stroke-miterlimit="15.12"/>
<path d="M262.548 55.1608L242.878 93.9321C242.878 93.9321 230.218 88.9322 215.717 88.9322C201.215 88.9322 187.924 94.0655 187.924 94.0655L166.768 56.1305C166.768 56.1305 180.753 45.7927 215.975 45.7927C252.922 45.7927 262.548 55.1608 262.548 55.1608Z" fill="#6BB8E2" stroke="#FFCDBC" stroke-width="3.39267" stroke-miterlimit="15.12"/>
<path d="M386.78 189.97L343.303 189.89C343.303 189.89 342.057 176.341 335.518 163.388C328.979 150.434 318.41 140.897 318.41 140.897L342.742 104.91C342.742 104.91 358.276 112.739 374.147 144.171C390.802 177.151 386.78 189.962 386.78 189.962V189.97Z" fill="#6BB8E2" stroke="#FFCDBC" stroke-width="3.39267" stroke-miterlimit="15.12"/>
<path d="M430.989 191.652L386.781 189.971C386.781 189.971 388.596 173.12 373.57 143.361C357.191 110.924 342.405 105.284 342.405 105.284L368.099 67.5002C368.099 67.5002 394.931 92.8822 411.211 125.123C426.167 154.749 430.989 191.652 430.989 191.652Z" fill="#BDD2CD" stroke="#FFCDBC" stroke-width="3.39267" stroke-miterlimit="15.12"/>
<path d="M50.6689 188.752L94.1465 189.179C94.1465 189.179 95.5434 175.647 102.234 162.765C108.924 149.883 119.6 140.47 119.6 140.47L95.6857 104.208C95.6857 104.208 80.0633 111.859 63.827 143.103C46.799 175.887 50.6689 188.752 50.6689 188.752Z" fill="#6BB8E2" stroke="#FFCDBC" stroke-width="3.39267" stroke-miterlimit="15.12"/>
<path d="M6.44348 189.917L50.6683 188.752C50.6683 188.752 49.0492 171.884 64.4136 142.303C81.1659 110.053 96.0143 104.581 96.0143 104.581L70.7569 66.5038C70.7569 66.5038 43.6311 91.5743 26.9767 123.629C11.6746 153.076 6.43457 189.917 6.43457 189.917H6.44348Z" fill="#BDD2CD" stroke="#FFCDBC" stroke-width="3.39267" stroke-miterlimit="15.12"/>
<path d="M265.601 382.243L245.931 343.472C245.931 343.472 233.271 348.472 218.769 348.472C204.268 348.472 190.976 343.339 190.976 343.339L169.82 381.274C169.82 381.274 183.806 391.612 219.027 391.612C255.975 391.612 265.601 382.243 265.601 382.243Z" fill="#6BB8E2" stroke="#FFCDBC" stroke-width="3.39267" stroke-miterlimit="15.12"/>
<path d="M381.229 273.821L338.143 268.011C338.143 268.011 335.082 281.267 326.844 293.215C318.615 305.163 306.854 313.188 306.854 313.188L326.088 352.128C326.088 352.128 342.538 346.479 362.519 317.476C383.48 287.05 381.229 273.821 381.229 273.821Z" fill="#6BB8E2" stroke="#FFCDBC" stroke-width="3.39267" stroke-miterlimit="15.12"/>
<path d="M425.267 278.144L381.238 273.83C381.238 273.83 380.758 290.769 361.844 318.224C341.23 348.152 325.812 351.737 325.812 351.737L346.159 392.652C346.159 392.652 376.176 371.14 396.674 341.39C415.499 314.06 425.267 278.153 425.267 278.153V278.144Z" fill="#BDD2CD" stroke="#FFCDBC" stroke-width="3.39267" stroke-miterlimit="15.12"/>
<path d="M59.2796 277.281L102.206 270.36C102.206 270.36 105.613 283.536 114.154 295.262C122.694 306.987 134.66 314.709 134.66 314.709L116.44 354.139C116.44 354.139 99.848 348.917 79.119 320.448C57.3758 290.582 59.2796 277.281 59.2796 277.281Z" fill="#6BB8E2" stroke="#FFCDBC" stroke-width="3.39267" stroke-miterlimit="15.12"/>
<path d="M15.374 282.735L59.2786 277.272C59.2786 277.272 60.1949 294.194 79.8208 321.141C101.208 350.518 116.715 353.712 116.715 353.712L97.4361 395.134C97.4361 395.134 66.8674 374.405 45.6046 345.207C26.0677 318.375 15.374 282.735 15.374 282.735Z" fill="#BDD2CD" stroke="#FFCDBC" stroke-width="3.39267" stroke-miterlimit="15.12"/>
<path d="M219 435C338.294 435 435 338.293 435 219C435 99.7065 338.294 3 219 3C99.7065 3 3 99.7065 3 219C3 338.293 99.7065 435 219 435Z" stroke="#FFCDBC" stroke-width="5.65445" stroke-miterlimit="15.12"/>
</svg>
