<svg width="101" height="57" viewBox="0 0 101 57" fill="none" xmlns="http://www.w3.org/2000/svg">
<path fill-rule="evenodd" clip-rule="evenodd" d="M5.49231 2.63892H95.3445C96.8475 2.63892 98.0789 3.77292 98.0789 5.17692C98.0789 6.57192 96.8572 7.71492 95.3445 7.71492H5.49231C3.98928 7.71492 2.75781 6.58092 2.75781 5.17692C2.75781 3.78192 3.97958 2.63892 5.49231 2.63892Z" fill="#FFCDBC" stroke="#FFCDBC" stroke-width="4.17" stroke-miterlimit="15.12"/>
<path fill-rule="evenodd" clip-rule="evenodd" d="M5.49231 25.751H95.3445C96.8475 25.751 98.0789 26.885 98.0789 28.289C98.0789 29.684 96.8572 30.827 95.3445 30.827H5.49231C3.98928 30.827 2.75781 29.693 2.75781 28.289C2.75781 26.894 3.97958 25.751 5.49231 25.751Z" fill="#FFCDBC" stroke="#FFCDBC" stroke-width="4.17" stroke-miterlimit="15.12"/>
<path fill-rule="evenodd" clip-rule="evenodd" d="M5.49231 48.8721H95.3445C96.8475 48.8721 98.0789 50.0061 98.0789 51.4101C98.0789 52.8051 96.8572 53.9481 95.3445 53.9481H5.49231C3.98928 53.9481 2.75781 52.8141 2.75781 51.4101C2.75781 50.0151 3.97958 48.8721 5.49231 48.8721Z" fill="#FFCDBC" stroke="#FFCDBC" stroke-width="4.17" stroke-miterlimit="15.12"/>
</svg>
