<svg width="332" height="332" viewBox="0 0 332 332" fill="none" xmlns="http://www.w3.org/2000/svg">
<path d="M217.669 318.898L201.477 289.64C201.477 289.64 190.724 296.607 165.528 296.607C138.059 296.607 129.216 288.551 129.216 288.551L112.479 318.763C112.479 318.763 138.745 328.225 166.046 328.225C191.134 328.225 217.669 318.905 217.669 318.905V318.898Z" fill="#BDD2CD" stroke="#FFCDBC" stroke-width="2.56431" stroke-miterlimit="15.12"/>
<path d="M215.362 13.1672L199.17 42.425C199.17 42.425 188.418 35.4585 163.221 35.4585C135.752 35.4585 126.91 43.5144 126.91 43.5144L110.173 13.3017C110.173 13.3017 136.438 3.84052 163.739 3.84052C188.828 3.84052 215.362 13.1605 215.362 13.1605V13.1672Z" fill="#BDD2CD" stroke="#FFCDBC" stroke-width="2.56431" stroke-miterlimit="15.12"/>
<path d="M199.177 42.4251L184.309 71.73C184.309 71.73 174.741 67.9509 163.78 67.9509C152.819 67.9509 142.773 71.8308 142.773 71.8308L126.782 43.1581C126.782 43.1581 137.353 35.3444 163.975 35.3444C191.901 35.3444 199.177 42.4251 199.177 42.4251Z" fill="#6BB8E2" stroke="#FFCDBC" stroke-width="2.56431" stroke-miterlimit="15.12"/>
<path d="M293.076 144.319L260.214 144.259C260.214 144.259 259.273 134.018 254.33 124.227C249.388 114.436 241.399 107.228 241.399 107.228L259.791 80.0277C259.791 80.0277 271.531 85.9452 283.528 109.702C296.116 134.63 293.076 144.313 293.076 144.313V144.319Z" fill="#6BB8E2" stroke="#FFCDBC" stroke-width="2.56431" stroke-miterlimit="15.12"/>
<path d="M326.49 145.591L293.076 144.32C293.076 144.32 294.448 131.584 283.091 109.091C270.711 84.5735 259.535 80.3103 259.535 80.3103L278.955 51.7518C278.955 51.7518 299.236 70.9365 311.541 95.3056C322.845 117.698 326.49 145.591 326.49 145.591Z" fill="#BDD2CD" stroke="#FFCDBC" stroke-width="2.56431" stroke-miterlimit="15.12"/>
<path d="M39.0298 143.398L71.8918 143.721C71.8918 143.721 72.9476 133.493 78.0043 123.756C83.0611 114.019 91.1303 106.905 91.1303 106.905L73.0552 79.4966C73.0552 79.4966 61.2472 85.2795 48.9752 108.896C36.1047 133.675 39.0298 143.398 39.0298 143.398Z" fill="#6BB8E2" stroke="#FFCDBC" stroke-width="2.56431" stroke-miterlimit="15.12"/>
<path d="M5.60243 144.279L39.0293 143.398C39.0293 143.398 37.8055 130.649 49.4185 108.29C62.0805 83.9145 73.3035 79.779 73.3035 79.779L54.213 50.9987C54.213 50.9987 33.7103 69.948 21.1223 94.1759C9.55634 116.434 5.5957 144.279 5.5957 144.279H5.60243Z" fill="#BDD2CD" stroke="#FFCDBC" stroke-width="2.56431" stroke-miterlimit="15.12"/>
<path d="M201.484 289.647L186.616 260.342C186.616 260.342 177.047 264.121 166.086 264.121C155.126 264.121 145.079 260.241 145.079 260.241L129.089 288.914C129.089 288.914 139.66 296.728 166.281 296.728C194.208 296.728 201.484 289.647 201.484 289.647Z" fill="#6BB8E2" stroke="#FFCDBC" stroke-width="2.56431" stroke-miterlimit="15.12"/>
<path d="M288.88 207.697L256.314 203.306C256.314 203.306 254 213.325 247.774 222.356C241.554 231.387 232.664 237.452 232.664 237.452L247.202 266.885C247.202 266.885 259.636 262.615 274.738 240.693C290.581 217.696 288.88 207.697 288.88 207.697Z" fill="#6BB8E2" stroke="#FFCDBC" stroke-width="2.56431" stroke-miterlimit="15.12"/>
<path d="M322.166 210.965L288.887 207.704C288.887 207.704 288.524 220.507 274.228 241.258C258.647 263.879 246.994 266.589 246.994 266.589L262.373 297.514C262.373 297.514 285.061 281.255 300.554 258.768C314.783 238.111 322.166 210.972 322.166 210.972V210.965Z" fill="#BDD2CD" stroke="#FFCDBC" stroke-width="2.56431" stroke-miterlimit="15.12"/>
<path d="M45.5388 210.313L77.9839 205.081C77.9839 205.081 80.5594 215.04 87.0148 223.903C93.4702 232.765 102.514 238.602 102.514 238.602L88.7429 268.405C88.7429 268.405 76.202 264.457 60.5342 242.939C44.0998 220.366 45.5388 210.313 45.5388 210.313Z" fill="#6BB8E2" stroke="#FFCDBC" stroke-width="2.56431" stroke-miterlimit="15.12"/>
<path d="M12.3535 214.435L45.5383 210.306C45.5383 210.306 46.2309 223.095 61.0649 243.464C77.2303 265.668 88.9509 268.082 88.9509 268.082L74.3792 299.39C74.3792 299.39 51.2742 283.723 35.2029 261.653C20.4362 241.372 12.3535 214.435 12.3535 214.435Z" fill="#BDD2CD" stroke="#FFCDBC" stroke-width="2.56431" stroke-miterlimit="15.12"/>
<path d="M166.261 329.522C256.428 329.522 329.522 256.428 329.522 166.261C329.522 76.0945 256.428 3 166.261 3C76.0945 3 3 76.0945 3 166.261C3 256.428 76.0945 329.522 166.261 329.522Z" stroke="#FFCDBC" stroke-width="4.27385" stroke-miterlimit="15.12"/>
</svg>
