<?xml version="1.0" encoding="utf-8" standalone="no"?>
<!DOCTYPE svg PUBLIC "-//W3C//DTD SVG 1.1//EN"
  "http://www.w3.org/Graphics/SVG/1.1/DTD/svg11.dtd">
<svg xmlns:xlink="http://www.w3.org/1999/xlink" width="460.8pt" height="345.6pt" viewBox="0 0 460.8 345.6" xmlns="http://www.w3.org/2000/svg" version="1.1">
 <metadata>
  <rdf:RDF xmlns:dc="http://purl.org/dc/elements/1.1/" xmlns:cc="http://creativecommons.org/ns#" xmlns:rdf="http://www.w3.org/1999/02/22-rdf-syntax-ns#">
   <cc:Work>
    <dc:type rdf:resource="http://purl.org/dc/dcmitype/StillImage"/>
    <dc:date>2023-08-29T19:51:58.511330</dc:date>
    <dc:format>image/svg+xml</dc:format>
    <dc:creator>
     <cc:Agent>
      <dc:title>Matplotlib v3.7.1, https://matplotlib.org/</dc:title>
     </cc:Agent>
    </dc:creator>
   </cc:Work>
  </rdf:RDF>
 </metadata>
 <defs>
  <style type="text/css">*{stroke-linejoin: round; stroke-linecap: butt}</style>
 </defs>
 <g id="figure_1">
  <g id="patch_1">
   <path d="M 0 345.6 
L 460.8 345.6 
L 460.8 0 
L 0 0 
z
" style="fill: #ffffff"/>
  </g>
  <g id="axes_1">
   <g id="patch_2">
    <path d="M 57.6 307.584 
L 414.72 307.584 
L 414.72 41.472 
L 57.6 41.472 
z
" style="fill: #ffffff"/>
   </g>
   <g id="PolyCollection_1"/>
   <g id="PolyCollection_2"/>
   <g id="matplotlib.axis_1">
    <g id="xtick_1">
     <g id="line2d_1">
      <defs>
       <path id="mb219a0ad85" d="M 0 0 
L 0 3.5 
" style="stroke: #000000; stroke-width: 0.8"/>
      </defs>
      <g>
       <use xlink:href="#mb219a0ad85" x="73.832727" y="307.584" style="stroke: #000000; stroke-width: 0.8"/>
      </g>
     </g>
     <g id="text_1">
      <text style="font: 16px 'Calibri'; text-anchor: middle" x="73.832727" y="325.4665" transform="rotate(-0 73.832727 325.4665)">0</text>
     </g>
    </g>
    <g id="xtick_2">
     <g id="line2d_2">
      <g>
       <use xlink:href="#mb219a0ad85" x="138.92115" y="307.584" style="stroke: #000000; stroke-width: 0.8"/>
      </g>
     </g>
     <g id="text_2">
      <text style="font: 16px 'Calibri'; text-anchor: middle" x="138.92115" y="325.4665" transform="rotate(-0 138.92115 325.4665)">10</text>
     </g>
    </g>
    <g id="xtick_3">
     <g id="line2d_3">
      <g>
       <use xlink:href="#mb219a0ad85" x="204.009573" y="307.584" style="stroke: #000000; stroke-width: 0.8"/>
      </g>
     </g>
     <g id="text_3">
      <text style="font: 16px 'Calibri'; text-anchor: middle" x="204.009573" y="325.4665" transform="rotate(-0 204.009573 325.4665)">20</text>
     </g>
    </g>
    <g id="xtick_4">
     <g id="line2d_4">
      <g>
       <use xlink:href="#mb219a0ad85" x="269.097996" y="307.584" style="stroke: #000000; stroke-width: 0.8"/>
      </g>
     </g>
     <g id="text_4">
      <text style="font: 16px 'Calibri'; text-anchor: middle" x="269.097996" y="325.4665" transform="rotate(-0 269.097996 325.4665)">30</text>
     </g>
    </g>
    <g id="xtick_5">
     <g id="line2d_5">
      <g>
       <use xlink:href="#mb219a0ad85" x="334.18642" y="307.584" style="stroke: #000000; stroke-width: 0.8"/>
      </g>
     </g>
     <g id="text_5">
      <text style="font: 16px 'Calibri'; text-anchor: middle" x="334.18642" y="325.4665" transform="rotate(-0 334.18642 325.4665)">40</text>
     </g>
    </g>
    <g id="xtick_6">
     <g id="line2d_6">
      <g>
       <use xlink:href="#mb219a0ad85" x="399.274843" y="307.584" style="stroke: #000000; stroke-width: 0.8"/>
      </g>
     </g>
     <g id="text_6">
      <text style="font: 16px 'Calibri'; text-anchor: middle" x="399.274843" y="325.4665" transform="rotate(-0 399.274843 325.4665)">50</text>
     </g>
    </g>
   </g>
   <g id="matplotlib.axis_2">
    <g id="ytick_1">
     <g id="line2d_7">
      <defs>
       <path id="m71c2e54973" d="M 0 0 
L -3.5 0 
" style="stroke: #000000; stroke-width: 0.8"/>
      </defs>
      <g>
       <use xlink:href="#m71c2e54973" x="57.6" y="295.488" style="stroke: #000000; stroke-width: 0.8"/>
      </g>
     </g>
     <g id="text_7">
      <text style="font: 16px 'Calibri'; text-anchor: end" x="50.6" y="300.92925" transform="rotate(-0 50.6 300.92925)">0</text>
     </g>
    </g>
    <g id="ytick_2">
     <g id="line2d_8">
      <g>
       <use xlink:href="#m71c2e54973" x="57.6" y="252.180737" style="stroke: #000000; stroke-width: 0.8"/>
      </g>
     </g>
     <g id="text_8">
      <text style="font: 16px 'Calibri'; text-anchor: end" x="50.6" y="257.621987" transform="rotate(-0 50.6 257.621987)">20</text>
     </g>
    </g>
    <g id="ytick_3">
     <g id="line2d_9">
      <g>
       <use xlink:href="#m71c2e54973" x="57.6" y="208.873474" style="stroke: #000000; stroke-width: 0.8"/>
      </g>
     </g>
     <g id="text_9">
      <text style="font: 16px 'Calibri'; text-anchor: end" x="50.6" y="214.314724" transform="rotate(-0 50.6 214.314724)">40</text>
     </g>
    </g>
    <g id="ytick_4">
     <g id="line2d_10">
      <g>
       <use xlink:href="#m71c2e54973" x="57.6" y="165.566212" style="stroke: #000000; stroke-width: 0.8"/>
      </g>
     </g>
     <g id="text_10">
      <text style="font: 16px 'Calibri'; text-anchor: end" x="50.6" y="171.007462" transform="rotate(-0 50.6 171.007462)">60</text>
     </g>
    </g>
    <g id="ytick_5">
     <g id="line2d_11">
      <g>
       <use xlink:href="#m71c2e54973" x="57.6" y="122.258949" style="stroke: #000000; stroke-width: 0.8"/>
      </g>
     </g>
     <g id="text_11">
      <text style="font: 16px 'Calibri'; text-anchor: end" x="50.6" y="127.700199" transform="rotate(-0 50.6 127.700199)">80</text>
     </g>
    </g>
    <g id="ytick_6">
     <g id="line2d_12">
      <g>
       <use xlink:href="#m71c2e54973" x="57.6" y="78.951686" style="stroke: #000000; stroke-width: 0.8"/>
      </g>
     </g>
     <g id="text_12">
      <text style="font: 16px 'Calibri'; text-anchor: end" x="50.6" y="84.392936" transform="rotate(-0 50.6 84.392936)">100</text>
     </g>
    </g>
    <g id="text_13">
     <text style="font: 16px 'Calibri'; text-anchor: middle" x="19.425" y="174.528" transform="rotate(-90 19.425 174.528)">ContactMetric</text>
    </g>
   </g>
   <g id="line2d_13">
    <path d="M 73.832727 295.488 
L 132.392782 295.488 
L 132.763786 294.916344 
L 133.050175 293.429606 
L 133.310528 290.951781 
L 133.570882 289.960694 
L 134.351943 285.004827 
L 134.612297 281.040048 
L 134.87265 280.048961 
L 135.399867 276.084181 
L 135.666729 274.597443 
L 135.920574 271.128531 
L 136.968498 264.685926 
L 138.003404 253.783106 
L 138.53062 248.827239 
L 138.784465 248.827239 
L 139.044818 244.367024 
L 140.21641 232.968553 
L 140.476764 229.499641 
L 140.743626 228.012903 
L 141.264334 222.065949 
L 145.9507 176.47228 
L 146.211054 176.47228 
L 147.122292 164.082721 
L 147.376137 164.082721 
L 147.63649 159.126855 
L 149.465475 142.277081 
L 149.725829 140.790343 
L 149.992691 137.321431 
L 150.246536 135.834693 
L 150.50689 132.365565 
L 150.767243 131.374261 
L 151.287951 122.949483 
L 151.541796 121.462745 
L 152.069012 115.515791 
L 152.843564 108.081883 
L 153.474922 104.11732 
L 153.76782 97.674715 
L 155.329942 82.807332 
L 155.590295 81.816245 
L 155.84414 81.816245 
L 156.371357 74.877988 
L 158.193832 64.966472 
L 158.454186 64.966472 
L 158.71454 63.479517 
L 158.974893 64.47082 
L 159.755955 61.497343 
L 160.029326 61.001692 
L 160.387312 61.001692 
L 160.673701 59.019302 
L 160.934055 60.010388 
L 161.454762 60.010388 
L 161.715116 59.019302 
L 161.968961 59.019302 
L 162.229315 56.541477 
L 163.029902 56.541477 
L 163.303274 56.045825 
L 163.557118 56.541477 
L 163.823981 55.054738 
L 164.077826 56.045825 
L 164.33818 55.054738 
L 164.598533 56.045825 
L 164.858887 56.045825 
L 165.119241 55.054738 
L 165.379594 56.045825 
L 165.633439 55.054738 
L 166.935208 55.054738 
L 167.306212 54.063652 
L 167.592601 55.054738 
L 167.846446 55.054738 
L 168.113308 53.568 
L 168.373662 54.063652 
L 168.894369 56.541477 
L 169.148214 54.063652 
L 169.408568 55.054738 
L 169.67543 55.054738 
L 169.929275 54.063652 
L 170.189629 55.054738 
L 170.449982 54.063652 
L 170.97069 56.045825 
L 171.231044 53.568 
L 171.484888 54.063652 
L 171.751751 54.063652 
L 172.012105 55.054738 
L 172.265949 55.054738 
L 172.526303 56.045825 
L 172.786657 55.054738 
L 173.047011 56.045825 
L 173.313873 55.054738 
L 173.567718 55.054738 
L 173.83458 56.045825 
L 174.205584 54.063652 
L 174.745818 56.045825 
L 175.266526 56.045825 
L 175.526879 55.054738 
L 175.787233 56.045825 
L 176.568294 56.045825 
L 176.828648 55.054738 
L 177.609709 55.054738 
L 177.870063 56.045825 
L 178.130416 58.52365 
L 178.384261 56.541477 
L 179.171831 56.541477 
L 179.425676 57.532563 
L 179.68603 56.541477 
L 179.946383 56.045825 
L 180.239281 56.045825 
L 180.493126 55.054738 
L 180.75348 57.532563 
L 181.117975 57.532563 
L 181.404364 56.541477 
L 182.699624 56.541477 
L 183.220331 58.52365 
L 183.480685 57.532563 
L 183.741038 57.532563 
L 184.001392 59.019302 
L 184.261746 58.52365 
L 184.5221 57.532563 
L 184.782453 57.532563 
L 185.042807 58.52365 
L 185.303161 57.532563 
L 185.563514 57.532563 
L 185.823868 58.52365 
L 186.084222 58.52365 
L 186.344575 57.532563 
L 186.604929 57.532563 
L 186.865283 58.52365 
L 187.125636 59.019302 
L 187.38599 59.019302 
L 187.646344 58.52365 
L 188.00433 58.52365 
L 188.290719 60.010388 
L 188.551073 59.019302 
L 188.811427 59.019302 
L 189.07178 60.010388 
L 189.592488 60.010388 
L 189.852841 61.001692 
L 190.113195 61.001692 
L 190.633902 59.019302 
L 191.148101 61.001692 
L 191.414964 61.001692 
L 191.675317 60.010388 
L 191.929162 61.001692 
L 192.196025 61.001692 
L 192.449869 59.019302 
L 192.970577 61.001692 
L 193.230931 62.48843 
L 193.497793 62.48843 
L 193.751638 61.001692 
L 194.897194 61.001692 
L 195.190092 62.48843 
L 195.456955 61.497343 
L 195.717308 61.001692 
L 195.971153 61.497343 
L 196.238016 62.48843 
L 196.498369 61.497343 
L 196.758723 62.48843 
L 197.025586 61.497343 
L 197.298957 61.497343 
L 197.559311 62.48843 
L 198.613743 62.48843 
L 198.880606 61.497343 
L 199.147468 61.497343 
L 199.42084 63.479517 
L 199.687702 63.479517 
L 199.948056 64.47082 
L 201.002488 70.913425 
L 201.523196 75.869075 
L 201.887691 77.355813 
L 202.180589 79.338203 
L 202.440942 80.32929 
L 202.96165 83.302983 
L 203.482357 89.249937 
L 204.784126 102.135146 
L 205.044479 105.604058 
L 205.298324 110.559925 
L 205.558678 110.559925 
L 205.82554 116.506878 
L 206.085894 116.506878 
L 206.606602 128.896436 
L 207.153344 140.790343 
L 208.455113 164.578373 
L 208.819608 169.53424 
L 209.626704 189.853141 
L 210.681137 206.207263 
L 211.201844 213.640954 
L 212.243259 231.977466 
L 212.503613 234.455291 
L 213.02432 243.375938 
L 214.579933 265.181577 
L 215.10715 272.615269 
L 215.360994 273.606356 
L 215.731998 276.084181 
L 216.272232 284.013524 
L 216.79294 289.960694 
L 217.313647 294.916344 
L 217.574001 295.488 
L 339.823077 295.488 
L 339.823077 295.488 
" clip-path="url(#pb8dd83b650)" style="fill: none; stroke: #1f77b4; stroke-width: 1.5; stroke-linecap: square"/>
   </g>
   <g id="line2d_14">
    <path d="M 73.832727 295.488 
L 107.873973 295.488 
L 108.244977 294.916344 
L 108.524857 293.925257 
L 108.78521 293.429606 
L 109.045564 293.925257 
L 109.305918 293.925257 
L 109.566272 293.429606 
L 110.086979 293.429606 
L 110.601177 291.447432 
L 110.86804 291.447432 
L 111.128394 290.951781 
L 111.388747 291.447432 
L 111.649101 291.447432 
L 111.909455 290.951781 
L 112.1633 290.951781 
L 112.430162 289.960694 
L 112.690516 289.960694 
L 112.944361 288.473956 
L 113.204714 288.969391 
L 113.725422 288.969391 
L 113.985775 287.482652 
L 114.246129 288.473956 
L 115.131332 288.473956 
L 115.42423 286.491566 
L 115.684583 286.491566 
L 115.944937 287.482652 
L 116.205291 286.491566 
L 116.986352 286.491566 
L 117.253214 285.995914 
L 117.507059 285.995914 
L 117.773922 285.004827 
L 118.034275 286.491566 
L 118.28812 285.995914 
L 118.548474 285.995914 
L 118.808828 285.004827 
L 119.069181 285.004827 
L 119.329535 284.013524 
L 119.850242 284.013524 
L 120.110596 285.004827 
L 120.37095 284.013524 
L 120.631303 283.518089 
L 120.891657 284.013524 
L 121.152011 283.518089 
L 121.412365 282.526786 
L 122.583956 282.526786 
L 122.84431 283.518089 
L 123.104664 281.535699 
L 123.625371 281.535699 
L 123.885725 282.526786 
L 124.146078 282.526786 
L 124.406432 281.535699 
L 124.653768 281.040048 
L 124.920631 281.040048 
L 125.180984 280.048961 
L 125.441338 281.040048 
L 126.743106 281.040048 
L 126.996951 278.562222 
L 127.263814 280.048961 
L 127.524167 280.048961 
L 128.044875 277.571136 
L 128.305229 278.562222 
L 129.489838 278.562222 
L 129.750192 277.571136 
L 132.607573 277.571136 
L 132.867927 275.093094 
L 133.648988 275.093094 
L 133.909342 276.084181 
L 134.430049 276.084181 
L 134.690403 275.093094 
L 134.950757 276.084181 
L 135.204601 276.084181 
L 135.471464 275.093094 
L 135.82945 276.084181 
L 136.122348 276.084181 
L 136.382702 275.093094 
L 136.636547 275.093094 
L 136.8969 274.597443 
L 137.944824 274.597443 
L 138.205178 275.093094 
L 138.465531 274.597443 
L 138.725885 275.093094 
L 138.992748 275.093094 
L 139.246592 274.597443 
L 139.519964 275.093094 
L 140.034162 275.093094 
L 140.294516 274.597443 
L 140.815223 270.137228 
L 141.075577 269.641792 
L 141.335931 267.659403 
L 141.596285 267.163751 
L 142.116992 261.216798 
L 142.370837 261.216798 
L 142.735332 259.234408 
L 143.02823 258.738973 
L 143.548937 255.269844 
L 143.809291 255.269844 
L 144.069645 254.278758 
L 144.329998 253.783106 
L 144.596861 251.800716 
L 144.857215 253.783106 
L 145.117568 252.792019 
L 145.377922 250.313978 
L 145.631767 249.322891 
L 145.898629 248.827239 
L 146.412828 245.358328 
L 146.673182 246.349414 
L 146.940044 244.367024 
L 147.200398 244.367024 
L 147.454243 241.889199 
L 147.721105 242.880286 
L 147.981459 241.889199 
L 148.235304 240.402461 
L 149.016365 240.402461 
L 149.934112 236.933333 
L 150.454819 236.933333 
L 150.708664 235.942029 
L 150.969017 235.446594 
L 151.23588 235.446594 
L 151.496234 234.455291 
L 151.750079 234.455291 
L 152.016941 232.968553 
L 152.53114 232.968553 
L 152.791493 231.977466 
L 153.051847 231.977466 
L 153.312201 230.986379 
L 153.572554 231.977466 
L 153.832908 230.986379 
L 154.093262 230.490728 
L 154.353615 229.499641 
L 154.60746 230.490728 
L 154.874323 230.490728 
L 155.128168 229.499641 
L 155.388521 229.499641 
L 155.655384 230.490728 
L 155.915738 228.508338 
L 156.176091 228.012903 
L 156.540586 228.012903 
L 156.820467 228.508338 
L 157.087329 228.508338 
L 157.341174 227.021599 
L 157.601528 228.012903 
L 157.855373 227.021599 
L 158.115726 228.012903 
L 158.37608 228.012903 
L 158.896787 226.030513 
L 159.677848 226.030513 
L 159.938202 225.039426 
L 160.192047 226.030513 
L 160.719263 226.030513 
L 160.979617 225.039426 
L 161.233462 225.039426 
L 161.493815 226.030513 
L 161.760678 226.030513 
L 162.014523 224.543774 
L 163.713331 224.543774 
L 163.973684 223.552688 
L 164.234038 223.552688 
L 164.494392 222.561384 
L 164.754745 223.552688 
L 165.015099 222.561384 
L 165.268944 222.561384 
L 165.522789 222.065949 
L 165.789651 222.561384 
L 166.564204 222.561384 
L 166.831066 222.065949 
L 167.612127 222.065949 
L 167.865972 222.561384 
L 168.132835 222.561384 
L 168.386679 222.065949 
L 168.647033 222.561384 
L 169.428094 222.561384 
L 169.688448 222.065949 
L 169.851169 222.561384 
L 170.306788 222.561384 
L 170.489036 225.039426 
L 170.658265 224.543774 
L 170.918619 224.543774 
L 171.237552 222.561384 
L 171.413291 223.552688 
L 171.582521 222.561384 
L 171.745242 222.561384 
L 172.012105 222.065949 
L 172.181335 223.552688 
L 172.610918 223.552688 
L 172.786657 224.543774 
L 173.047011 222.561384 
L 173.21624 223.552688 
L 173.658842 222.065949 
L 173.821563 222.065949 
L 174.081916 221.074646 
L 174.251146 222.561384 
L 174.518009 222.065949 
L 174.687239 222.561384 
L 174.856469 223.552688 
L 175.123331 221.074646 
L 175.292561 223.552688 
L 175.559424 222.065949 
L 175.741671 222.561384 
L 175.910901 222.561384 
L 176.171255 222.065949 
L 176.613856 222.065949 
L 176.776577 222.561384 
L 177.049949 222.065949 
L 177.219178 222.065949 
L 177.420953 222.561384 
L 177.909116 222.561384 
L 178.267102 222.065949 
L 178.436332 222.065949 
L 178.709703 221.074646 
L 179.308517 221.074646 
L 179.477747 222.065949 
L 179.744609 220.083559 
L 179.913839 222.065949 
L 180.180702 222.065949 
L 180.349932 221.074646 
L 180.52567 222.065949 
L 180.792533 221.074646 
L 180.955254 221.074646 
L 181.228625 222.065949 
L 182.706133 222.065949 
L 182.875362 220.083559 
L 183.038084 221.074646 
L 183.304946 221.074646 
L 183.474176 222.065949 
L 183.916777 222.065949 
L 184.086007 222.561384 
L 184.359378 222.065949 
L 184.528608 223.552688 
L 184.938665 222.065949 
L 185.901974 222.065949 
L 186.064695 221.074646 
L 186.325049 222.065949 
L 186.500788 221.074646 
L 186.670018 222.065949 
L 187.372972 222.065949 
L 187.542202 221.074646 
L 187.711432 222.561384 
L 187.971786 221.074646 
L 188.141016 222.065949 
L 188.583617 222.065949 
L 188.752847 222.561384 
L 189.01971 222.065949 
L 189.201957 222.561384 
L 189.462311 222.065949 
L 189.631541 221.074646 
L 189.800771 222.065949 
L 190.236863 222.065949 
L 190.503726 221.074646 
L 191.271769 221.074646 
L 191.532123 220.083559 
L 191.707861 220.083559 
L 192.254604 222.065949 
L 192.768803 222.561384 
L 193.035665 222.065949 
L 193.204895 221.074646 
L 193.374125 222.065949 
L 193.640988 221.074646 
L 193.816726 222.065949 
L 194.41554 220.083559 
L 194.858141 220.083559 
L 195.125004 219.587908 
L 195.294234 220.083559 
L 195.463463 221.074646 
L 195.723817 220.083559 
L 195.899556 221.074646 
L 196.329139 221.074646 
L 196.504878 222.065949 
L 196.765232 220.083559 
L 196.934462 221.074646 
L 197.194816 219.587908 
L 197.357537 220.083559 
L 197.526766 220.083559 
L 197.793629 219.587908 
L 197.962859 220.083559 
L 198.229721 220.083559 
L 198.398951 221.074646 
L 198.665814 221.074646 
L 198.841553 220.083559 
L 199.004274 221.074646 
L 199.518472 219.587908 
L 199.915512 220.083559 
L 200.078233 221.074646 
L 200.410184 219.587908 
L 200.572905 221.074646 
L 200.82675 220.083559 
L 201.165209 220.083559 
L 201.32793 221.074646 
L 201.49716 219.587908 
L 201.66639 219.587908 
L 201.933253 220.083559 
L 202.193606 219.587908 
L 202.460469 220.083559 
L 202.727331 219.587908 
L 202.987685 219.587908 
L 203.248039 220.083559 
L 203.508393 219.587908 
L 203.775255 220.083559 
L 204.035609 221.074646 
L 205.597731 221.074646 
L 205.858085 220.083559 
L 206.118438 220.083559 
L 206.365774 221.074646 
L 206.684708 220.083559 
L 206.971097 220.083559 
L 207.23145 219.587908 
L 207.485295 219.587908 
L 207.752158 220.083559 
L 208.266356 222.065949 
L 208.52671 220.083559 
L 208.787064 220.083559 
L 209.053926 221.074646 
L 209.307771 220.083559 
L 209.568125 221.074646 
L 210.349186 221.074646 
L 210.603031 220.083559 
L 212.425507 220.083559 
L 212.692369 222.065949 
L 212.946214 221.074646 
L 213.213076 221.074646 
L 213.597098 222.065949 
L 213.889996 221.074646 
L 214.15035 222.065949 
L 214.410703 221.074646 
L 214.671057 221.074646 
L 214.93792 220.083559 
L 215.191765 221.074646 
L 215.452118 220.083559 
L 215.705963 221.074646 
L 215.972826 220.083559 
L 216.233179 221.074646 
L 216.747378 221.074646 
L 217.007732 222.065949 
L 217.268085 222.065949 
L 217.788793 220.083559 
L 218.049146 222.065949 
L 218.3095 221.074646 
L 218.569854 222.065949 
L 218.830207 221.074646 
L 219.09707 221.074646 
L 219.350915 220.083559 
L 219.611268 221.074646 
L 219.871622 221.074646 
L 220.131976 222.065949 
L 220.411856 220.083559 
L 220.72428 220.083559 
L 221.251497 222.065949 
L 222.026049 222.065949 
L 222.292911 221.074646 
L 222.813619 221.074646 
L 223.067464 222.065949 
L 223.334326 221.074646 
L 223.59468 222.065949 
L 223.848525 221.074646 
L 224.108878 222.065949 
L 224.369232 220.083559 
L 224.629586 221.074646 
L 224.88994 221.074646 
L 225.150293 222.065949 
L 225.404138 221.074646 
L 225.664492 221.074646 
L 225.924845 222.065949 
L 226.191708 221.074646 
L 226.445553 221.074646 
L 226.705907 222.065949 
L 226.96626 220.083559 
L 227.64318 222.065949 
L 227.910042 221.074646 
L 228.170396 222.065949 
L 228.43075 221.074646 
L 228.697612 222.065949 
L 228.951457 221.074646 
L 229.21832 222.561384 
L 229.739027 219.587908 
L 230.00589 221.074646 
L 231.314167 221.074646 
L 231.574521 222.561384 
L 231.834874 222.065949 
L 232.609427 222.065949 
L 232.876289 221.074646 
L 233.396996 221.074646 
L 233.65735 220.083559 
L 233.917704 222.065949 
L 234.282199 221.074646 
L 234.854977 221.074646 
L 235.115331 220.083559 
L 235.369176 222.065949 
L 235.896392 222.065949 
L 236.156746 221.074646 
L 236.41059 222.065949 
L 236.677453 222.561384 
L 236.937807 222.065949 
L 237.19816 222.561384 
L 237.458514 221.074646 
L 237.712359 221.074646 
L 237.972713 220.083559 
L 238.239575 222.065949 
L 238.49342 222.065949 
L 238.753774 221.074646 
L 239.274481 221.074646 
L 239.534835 222.065949 
L 239.795188 220.083559 
L 240.055542 222.065949 
L 240.315896 222.561384 
L 240.57625 222.561384 
L 240.830094 222.065949 
L 241.943106 222.065949 
L 242.209969 221.074646 
L 242.470323 221.074646 
L 242.724167 222.065949 
L 242.984521 221.074646 
L 243.244875 222.561384 
L 243.505229 222.065949 
L 244.025936 222.065949 
L 244.28629 221.074646 
L 244.546643 222.065949 
L 244.806997 221.074646 
L 245.067351 222.065949 
L 245.321196 222.561384 
L 245.588058 222.561384 
L 245.848412 222.065949 
L 246.102257 222.561384 
L 246.36261 222.561384 
L 246.622964 222.065949 
L 248.523546 222.065949 
L 248.790408 222.561384 
L 249.044253 222.561384 
L 249.304607 222.065949 
L 249.564961 222.065949 
L 249.825314 222.561384 
L 250.86022 222.561384 
L 251.120574 222.065949 
L 251.380928 222.561384 
L 251.641281 222.561384 
L 251.908144 222.065949 
L 252.161989 222.065949 
L 252.422343 222.561384 
L 252.682696 222.065949 
L 252.949559 222.065949 
L 253.203404 222.561384 
L 253.463757 223.552688 
L 253.724111 222.561384 
L 254.244818 222.561384 
L 254.505172 222.065949 
L 255.130021 222.065949 
L 255.442445 222.561384 
L 256.223506 222.561384 
L 256.48386 222.065949 
L 256.737705 222.065949 
L 256.998059 222.561384 
L 257.258412 223.552688 
L 257.518766 222.065949 
L 257.77912 222.561384 
L 258.039473 223.552688 
L 258.306336 222.561384 
L 258.560181 222.065949 
L 258.820534 222.065949 
L 259.087397 223.552688 
L 259.35426 223.552688 
L 259.608104 222.561384 
L 260.395674 222.561384 
L 260.649519 222.065949 
L 260.909873 222.065949 
L 261.170227 222.561384 
L 261.43058 222.065949 
L 261.684425 222.561384 
L 262.055429 222.561384 
L 262.361345 222.065949 
L 262.882052 222.065949 
L 263.142406 223.552688 
L 263.669622 223.552688 
L 263.929976 222.561384 
L 264.190329 223.552688 
L 264.711037 223.552688 
L 264.97139 222.065949 
L 265.231744 222.561384 
L 265.492098 222.561384 
L 265.752452 222.065949 
L 266.012805 222.561384 
L 266.800375 222.561384 
L 267.05422 223.552688 
L 267.314574 223.552688 
L 267.574927 222.065949 
L 267.835281 222.561384 
L 268.095635 222.561384 
L 268.355988 223.552688 
L 268.622851 223.552688 
L 268.980837 222.561384 
L 270.074323 222.561384 
L 270.328168 222.065949 
L 270.59503 222.065949 
L 270.848875 222.561384 
L 271.109229 222.065949 
L 271.369582 222.561384 
L 272.150644 222.561384 
L 272.417506 223.552688 
L 272.67786 222.561384 
L 272.931705 223.552688 
L 273.192058 223.552688 
L 273.452412 222.561384 
L 275.014534 222.561384 
L 275.281397 223.552688 
L 275.54175 222.561384 
L 275.802104 222.561384 
L 276.10802 222.065949 
L 276.3879 222.561384 
L 276.648254 222.561384 
L 276.908607 223.552688 
L 277.17547 223.552688 
L 277.429315 222.561384 
L 277.689668 222.561384 
L 277.950022 223.552688 
L 278.210376 222.561384 
L 278.731083 224.543774 
L 278.991437 224.543774 
L 279.25179 223.552688 
L 279.512144 223.552688 
L 279.772498 222.561384 
L 280.032852 224.543774 
L 280.293205 224.543774 
L 280.813913 222.561384 
L 281.243496 224.543774 
L 281.56243 222.561384 
L 281.725151 223.552688 
L 281.887872 222.561384 
L 282.317455 224.543774 
L 282.480176 223.552688 
L 282.642897 224.543774 
L 283.105025 222.561384 
L 283.508573 224.543774 
L 283.677803 224.543774 
L 284.113896 222.561384 
L 284.380758 223.552688 
L 284.556497 222.561384 
L 284.712709 222.561384 
L 284.979572 223.552688 
L 285.142293 222.561384 
L 285.409155 224.543774 
L 285.578385 224.543774 
L 285.754124 222.561384 
L 286.007969 224.543774 
L 286.177199 224.543774 
L 286.437552 223.552688 
L 286.606782 224.543774 
L 286.776012 223.552688 
L 287.036366 224.543774 
L 287.212105 222.561384 
L 287.472458 222.561384 
L 287.641688 223.552688 
L 287.908551 223.552688 
L 288.08429 224.543774 
L 288.247011 223.552688 
L 288.689612 223.552688 
L 288.949966 222.561384 
L 289.119195 222.561384 
L 289.294934 223.552688 
L 289.724518 223.552688 
L 290.095522 222.561384 
L 290.38842 222.561384 
L 290.791968 224.543774 
L 291.05883 224.543774 
L 291.390781 222.561384 
L 291.651135 224.543774 
L 291.820365 222.561384 
L 292.087228 224.543774 
L 292.249949 223.552688 
L 292.419178 223.552688 
L 292.679532 224.543774 
L 292.848762 223.552688 
L 293.109116 223.552688 
L 293.278346 224.543774 
L 293.454084 224.543774 
L 293.720947 226.030513 
L 293.896686 223.552688 
L 294.163548 224.543774 
L 294.339287 223.552688 
L 294.599641 223.552688 
L 294.768871 225.039426 
L 294.9381 223.552688 
L 295.204963 225.039426 
L 295.374193 224.543774 
L 295.641055 224.543774 
L 295.810285 225.039426 
L 295.979515 223.552688 
L 296.246378 224.543774 
L 296.422117 224.543774 
L 296.68247 223.552688 
L 296.8517 225.039426 
L 297.02093 224.543774 
L 297.567673 225.039426 
L 297.925659 224.543774 
L 298.08838 224.543774 
L 298.251101 223.552688 
L 298.420331 224.543774 
L 298.999618 224.543774 
L 299.162339 223.552688 
L 299.32506 224.543774 
L 299.923874 224.543774 
L 300.093104 225.039426 
L 300.262333 224.543774 
L 300.529196 225.039426 
L 300.698426 225.039426 
L 300.95878 226.030513 
L 301.128009 224.543774 
L 301.297239 224.543774 
L 301.564102 225.039426 
L 301.733332 223.552688 
L 302.000194 224.543774 
L 302.162915 224.543774 
L 302.332145 223.552688 
L 302.599008 225.039426 
L 302.774747 223.552688 
L 303.0351 223.552688 
L 303.20433 224.543774 
L 303.471193 223.552688 
L 303.640423 225.039426 
L 303.803144 223.552688 
L 304.070006 224.543774 
L 304.239236 224.543774 
L 304.603731 223.552688 
L 304.89012 224.543774 
L 305.300177 225.039426 
L 305.554022 223.552688 
L 305.723252 225.039426 
L 305.892482 224.543774 
L 306.575911 224.543774 
L 306.738632 225.039426 
L 306.907861 223.552688 
L 307.168215 224.543774 
L 307.337445 223.552688 
L 307.604308 223.552688 
L 307.780046 224.543774 
L 307.949276 223.552688 
L 308.20963 224.543774 
L 308.372351 223.552688 
L 308.971164 223.552688 
L 309.238027 224.543774 
L 309.400748 223.552688 
L 309.667611 223.552688 
L 309.83684 224.543774 
L 310.00607 223.552688 
L 310.266424 226.030513 
L 310.435654 225.039426 
L 310.696008 224.543774 
L 310.871746 224.543774 
L 311.040976 223.552688 
L 311.307839 224.543774 
L 311.47056 223.552688 
L 311.841564 223.552688 
L 312.323218 224.543774 
L 312.583572 224.543774 
L 312.856943 225.039426 
L 313.019664 224.543774 
L 313.286527 224.543774 
L 313.546881 226.030513 
L 313.807234 225.039426 
L 314.074097 226.030513 
L 314.327942 224.543774 
L 314.588295 225.039426 
L 314.848649 225.039426 
L 315.115512 226.030513 
L 315.375865 225.039426 
L 315.62971 226.030513 
L 315.896573 225.039426 
L 316.163435 226.030513 
L 316.677634 226.030513 
L 316.944496 225.039426 
L 317.198341 225.039426 
L 317.458695 227.021599 
L 317.719049 226.030513 
L 318.239756 226.030513 
L 318.506618 225.039426 
L 318.760463 224.543774 
L 319.216082 225.039426 
L 319.489454 226.030513 
L 320.791222 226.030513 
L 321.045067 225.039426 
L 321.311929 226.030513 
L 321.572283 226.030513 
L 321.832637 225.039426 
L 322.119026 225.039426 
L 322.405415 226.030513 
L 322.665769 225.039426 
L 323.186476 225.039426 
L 323.44683 226.030513 
L 324.227891 226.030513 
L 324.488245 227.021599 
L 324.748598 226.030513 
L 325.529659 226.030513 
L 325.783504 225.039426 
L 326.499477 228.012903 
L 326.75983 225.039426 
L 327.020184 225.039426 
L 327.280538 226.030513 
L 327.534383 224.543774 
L 328.061599 224.543774 
L 328.321953 225.039426 
L 329.096505 230.490728 
L 329.356859 230.490728 
L 329.617212 238.420071 
L 329.877566 242.880286 
L 330.398273 255.269844 
L 330.658627 259.234408 
L 331.693533 281.040048 
L 332.468085 293.925257 
L 332.839089 295.488 
L 398.487273 295.488 
L 398.487273 295.488 
" clip-path="url(#pb8dd83b650)" style="fill: none; stroke: #ff7f0e; stroke-width: 1.5; stroke-linecap: square"/>
   </g>
   <g id="patch_3">
    <path d="M 57.6 307.584 
L 57.6 41.472 
" style="fill: none; stroke: #000000; stroke-width: 0.8; stroke-linejoin: miter; stroke-linecap: square"/>
   </g>
   <g id="patch_4">
    <path d="M 414.72 307.584 
L 414.72 41.472 
" style="fill: none; stroke: #000000; stroke-width: 0.8; stroke-linejoin: miter; stroke-linecap: square"/>
   </g>
   <g id="patch_5">
    <path d="M 57.6 307.584 
L 414.72 307.584 
" style="fill: none; stroke: #000000; stroke-width: 0.8; stroke-linejoin: miter; stroke-linecap: square"/>
   </g>
   <g id="patch_6">
    <path d="M 57.6 41.472 
L 414.72 41.472 
" style="fill: none; stroke: #000000; stroke-width: 0.8; stroke-linejoin: miter; stroke-linecap: square"/>
   </g>
  </g>
 </g>
 <defs>
  <clipPath id="pb8dd83b650">
   <rect x="57.6" y="41.472" width="357.12" height="266.112"/>
  </clipPath>
 </defs>
</svg>
