<?xml version="1.0" encoding="utf-8" standalone="no"?>
<!DOCTYPE svg PUBLIC "-//W3C//DTD SVG 1.1//EN"
  "http://www.w3.org/Graphics/SVG/1.1/DTD/svg11.dtd">
<svg xmlns:xlink="http://www.w3.org/1999/xlink" width="460.8pt" height="345.6pt" viewBox="0 0 460.8 345.6" xmlns="http://www.w3.org/2000/svg" version="1.1">
 <metadata>
  <rdf:RDF xmlns:dc="http://purl.org/dc/elements/1.1/" xmlns:cc="http://creativecommons.org/ns#" xmlns:rdf="http://www.w3.org/1999/02/22-rdf-syntax-ns#">
   <cc:Work>
    <dc:type rdf:resource="http://purl.org/dc/dcmitype/StillImage"/>
    <dc:date>2023-08-29T19:51:58.417245</dc:date>
    <dc:format>image/svg+xml</dc:format>
    <dc:creator>
     <cc:Agent>
      <dc:title>Matplotlib v3.7.1, https://matplotlib.org/</dc:title>
     </cc:Agent>
    </dc:creator>
   </cc:Work>
  </rdf:RDF>
 </metadata>
 <defs>
  <style type="text/css">*{stroke-linejoin: round; stroke-linecap: butt}</style>
 </defs>
 <g id="figure_1">
  <g id="patch_1">
   <path d="M 0 345.6 
L 460.8 345.6 
L 460.8 0 
L 0 0 
z
" style="fill: #ffffff"/>
  </g>
  <g id="axes_1">
   <g id="patch_2">
    <path d="M 57.6 307.584 
L 414.72 307.584 
L 414.72 41.472 
L 57.6 41.472 
z
" style="fill: #ffffff"/>
   </g>
   <g id="PolyCollection_1"/>
   <g id="PolyCollection_2"/>
   <g id="matplotlib.axis_1">
    <g id="xtick_1">
     <g id="line2d_1">
      <defs>
       <path id="m0e11a08f58" d="M 0 0 
L 0 3.5 
" style="stroke: #000000; stroke-width: 0.8"/>
      </defs>
      <g>
       <use xlink:href="#m0e11a08f58" x="73.832727" y="307.584" style="stroke: #000000; stroke-width: 0.8"/>
      </g>
     </g>
     <g id="text_1">
      <text style="font: 16px 'Calibri'; text-anchor: middle" x="73.832727" y="325.4665" transform="rotate(-0 73.832727 325.4665)">0</text>
     </g>
    </g>
    <g id="xtick_2">
     <g id="line2d_2">
      <g>
       <use xlink:href="#m0e11a08f58" x="136.266294" y="307.584" style="stroke: #000000; stroke-width: 0.8"/>
      </g>
     </g>
     <g id="text_2">
      <text style="font: 16px 'Calibri'; text-anchor: middle" x="136.266294" y="325.4665" transform="rotate(-0 136.266294 325.4665)">250</text>
     </g>
    </g>
    <g id="xtick_3">
     <g id="line2d_3">
      <g>
       <use xlink:href="#m0e11a08f58" x="198.69986" y="307.584" style="stroke: #000000; stroke-width: 0.8"/>
      </g>
     </g>
     <g id="text_3">
      <text style="font: 16px 'Calibri'; text-anchor: middle" x="198.69986" y="325.4665" transform="rotate(-0 198.69986 325.4665)">500</text>
     </g>
    </g>
    <g id="xtick_4">
     <g id="line2d_4">
      <g>
       <use xlink:href="#m0e11a08f58" x="261.133427" y="307.584" style="stroke: #000000; stroke-width: 0.8"/>
      </g>
     </g>
     <g id="text_4">
      <text style="font: 16px 'Calibri'; text-anchor: middle" x="261.133427" y="325.4665" transform="rotate(-0 261.133427 325.4665)">750</text>
     </g>
    </g>
    <g id="xtick_5">
     <g id="line2d_5">
      <g>
       <use xlink:href="#m0e11a08f58" x="323.566993" y="307.584" style="stroke: #000000; stroke-width: 0.8"/>
      </g>
     </g>
     <g id="text_5">
      <text style="font: 16px 'Calibri'; text-anchor: middle" x="323.566993" y="325.4665" transform="rotate(-0 323.566993 325.4665)">1000</text>
     </g>
    </g>
    <g id="xtick_6">
     <g id="line2d_6">
      <g>
       <use xlink:href="#m0e11a08f58" x="386.000559" y="307.584" style="stroke: #000000; stroke-width: 0.8"/>
      </g>
     </g>
     <g id="text_6">
      <text style="font: 16px 'Calibri'; text-anchor: middle" x="386.000559" y="325.4665" transform="rotate(-0 386.000559 325.4665)">1250</text>
     </g>
    </g>
    <g id="text_7">
     <text style="font: 16px 'Calibri'; text-anchor: middle" x="236.16" y="343.194" transform="rotate(-0 236.16 343.194)">Idx</text>
    </g>
   </g>
   <g id="matplotlib.axis_2">
    <g id="ytick_1">
     <g id="line2d_7">
      <defs>
       <path id="me69ab053ed" d="M 0 0 
L -3.5 0 
" style="stroke: #000000; stroke-width: 0.8"/>
      </defs>
      <g>
       <use xlink:href="#me69ab053ed" x="57.6" y="295.488" style="stroke: #000000; stroke-width: 0.8"/>
      </g>
     </g>
     <g id="text_8">
      <text style="font: 16px 'Calibri'; text-anchor: end" x="50.6" y="300.92925" transform="rotate(-0 50.6 300.92925)">0</text>
     </g>
    </g>
    <g id="ytick_2">
     <g id="line2d_8">
      <g>
       <use xlink:href="#me69ab053ed" x="57.6" y="252.180737" style="stroke: #000000; stroke-width: 0.8"/>
      </g>
     </g>
     <g id="text_9">
      <text style="font: 16px 'Calibri'; text-anchor: end" x="50.6" y="257.621987" transform="rotate(-0 50.6 257.621987)">20</text>
     </g>
    </g>
    <g id="ytick_3">
     <g id="line2d_9">
      <g>
       <use xlink:href="#me69ab053ed" x="57.6" y="208.873474" style="stroke: #000000; stroke-width: 0.8"/>
      </g>
     </g>
     <g id="text_10">
      <text style="font: 16px 'Calibri'; text-anchor: end" x="50.6" y="214.314724" transform="rotate(-0 50.6 214.314724)">40</text>
     </g>
    </g>
    <g id="ytick_4">
     <g id="line2d_10">
      <g>
       <use xlink:href="#me69ab053ed" x="57.6" y="165.566212" style="stroke: #000000; stroke-width: 0.8"/>
      </g>
     </g>
     <g id="text_11">
      <text style="font: 16px 'Calibri'; text-anchor: end" x="50.6" y="171.007462" transform="rotate(-0 50.6 171.007462)">60</text>
     </g>
    </g>
    <g id="ytick_5">
     <g id="line2d_11">
      <g>
       <use xlink:href="#me69ab053ed" x="57.6" y="122.258949" style="stroke: #000000; stroke-width: 0.8"/>
      </g>
     </g>
     <g id="text_12">
      <text style="font: 16px 'Calibri'; text-anchor: end" x="50.6" y="127.700199" transform="rotate(-0 50.6 127.700199)">80</text>
     </g>
    </g>
    <g id="ytick_6">
     <g id="line2d_12">
      <g>
       <use xlink:href="#me69ab053ed" x="57.6" y="78.951686" style="stroke: #000000; stroke-width: 0.8"/>
      </g>
     </g>
     <g id="text_13">
      <text style="font: 16px 'Calibri'; text-anchor: end" x="50.6" y="84.392936" transform="rotate(-0 50.6 84.392936)">100</text>
     </g>
    </g>
    <g id="text_14">
     <text style="font: 16px 'Calibri'; text-anchor: middle" x="19.425" y="174.528" transform="rotate(-90 19.425 174.528)">ContactMetric</text>
    </g>
   </g>
   <g id="line2d_13">
    <path d="M 73.832727 295.488 
L 128.524531 295.488 
L 128.774266 294.916344 
L 129.024 293.429606 
L 129.273734 290.951781 
L 129.523469 289.960694 
L 130.272671 285.004827 
L 130.522406 281.040048 
L 130.77214 280.048961 
L 131.271608 276.084181 
L 131.521343 274.597443 
L 131.771077 271.128531 
L 132.770014 264.685926 
L 133.768951 253.783106 
L 134.26842 248.827239 
L 134.518154 248.827239 
L 135.017622 241.889199 
L 136.016559 229.499641 
L 136.266294 228.012903 
L 136.765762 222.065949 
L 141.260979 176.47228 
L 141.510713 176.47228 
L 142.010182 168.047501 
L 142.259916 164.082721 
L 142.50965 164.082721 
L 142.759385 159.126855 
L 144.507524 142.277081 
L 144.757259 140.790343 
L 145.006993 137.321431 
L 145.256727 135.834693 
L 145.506462 132.365565 
L 145.756196 131.374261 
L 146.255664 122.949483 
L 146.505399 121.462745 
L 147.004867 115.515791 
L 148.253538 104.11732 
L 148.503273 97.674715 
L 150.001678 82.807332 
L 150.251413 81.816245 
L 150.501147 81.816245 
L 151.000615 74.877988 
L 152.748755 64.966472 
L 152.99849 64.966472 
L 153.248224 63.479517 
L 153.497958 64.47082 
L 154.247161 61.497343 
L 154.496895 61.001692 
L 154.746629 61.001692 
L 154.996364 59.019302 
L 155.246098 60.010388 
L 155.745566 60.010388 
L 155.995301 59.019302 
L 156.245035 59.019302 
L 156.494769 56.541477 
L 157.243972 56.541477 
L 157.493706 56.045825 
L 157.743441 56.541477 
L 157.993175 55.054738 
L 158.242909 56.045825 
L 158.492643 55.054738 
L 158.742378 56.045825 
L 158.992112 56.045825 
L 159.241846 55.054738 
L 159.49158 56.045825 
L 159.741315 55.054738 
L 160.989986 55.054738 
L 161.23972 54.063652 
L 161.489455 55.054738 
L 161.739189 55.054738 
L 161.988923 53.568 
L 162.238657 54.063652 
L 162.488392 55.054738 
L 162.738126 56.541477 
L 162.98786 54.063652 
L 163.237594 55.054738 
L 163.487329 55.054738 
L 163.737063 54.063652 
L 163.986797 55.054738 
L 164.236531 54.063652 
L 164.736 56.045825 
L 164.985734 53.568 
L 165.235469 54.063652 
L 165.485203 54.063652 
L 165.734937 55.054738 
L 165.984671 55.054738 
L 166.234406 56.045825 
L 166.48414 55.054738 
L 166.733874 56.045825 
L 166.983608 55.054738 
L 167.233343 55.054738 
L 167.483077 56.045825 
L 167.732811 54.063652 
L 168.23228 56.045825 
L 168.731748 56.045825 
L 168.981483 55.054738 
L 169.231217 56.045825 
L 169.98042 56.045825 
L 170.230154 55.054738 
L 170.979357 55.054738 
L 171.229091 56.045825 
L 171.478825 58.52365 
L 171.728559 56.541477 
L 172.477762 56.541477 
L 172.727497 57.532563 
L 172.977231 56.541477 
L 173.226965 56.045825 
L 173.476699 56.045825 
L 173.726434 55.054738 
L 173.976168 57.532563 
L 174.225902 57.532563 
L 174.475636 56.541477 
L 175.724308 56.541477 
L 176.223776 58.52365 
L 176.47351 57.532563 
L 176.723245 57.532563 
L 176.972979 59.019302 
L 177.222713 58.52365 
L 177.472448 57.532563 
L 177.722182 57.532563 
L 177.971916 58.52365 
L 178.22165 57.532563 
L 178.471385 57.532563 
L 178.721119 58.52365 
L 178.970853 58.52365 
L 179.220587 57.532563 
L 179.470322 57.532563 
L 179.720056 58.52365 
L 179.96979 59.019302 
L 180.219524 59.019302 
L 180.469259 58.52365 
L 180.718993 58.52365 
L 180.968727 60.010388 
L 181.218462 59.019302 
L 181.468196 59.019302 
L 181.71793 60.010388 
L 182.217399 60.010388 
L 182.467133 61.001692 
L 182.716867 61.001692 
L 183.216336 59.019302 
L 183.715804 61.001692 
L 183.965538 61.001692 
L 184.215273 60.010388 
L 184.465007 61.001692 
L 184.714741 61.001692 
L 184.964476 59.019302 
L 185.463944 61.001692 
L 185.713678 62.48843 
L 185.963413 62.48843 
L 186.213147 61.001692 
L 187.212084 61.001692 
L 187.461818 62.48843 
L 187.711552 61.497343 
L 187.961287 61.001692 
L 188.211021 61.497343 
L 188.460755 62.48843 
L 188.71049 61.497343 
L 188.960224 62.48843 
L 189.209958 61.497343 
L 189.459692 61.497343 
L 189.709427 62.48843 
L 190.708364 62.48843 
L 190.958098 61.497343 
L 191.207832 61.497343 
L 191.457566 63.479517 
L 191.707301 63.479517 
L 191.957035 64.47082 
L 192.955972 70.913425 
L 193.705175 77.355813 
L 193.954909 79.338203 
L 194.204643 80.32929 
L 194.704112 83.302983 
L 195.20358 89.249937 
L 196.452252 102.135146 
L 196.95172 110.559925 
L 197.201455 110.559925 
L 197.451189 116.506878 
L 197.700923 116.506878 
L 198.450126 135.834693 
L 200.448 177.463366 
L 201.446937 197.782268 
L 203.195077 227.021599 
L 203.444811 231.977466 
L 203.694545 234.455291 
L 204.194014 243.375938 
L 205.69242 265.181577 
L 206.191888 272.615269 
L 206.441622 273.606356 
L 206.691357 276.084181 
L 207.190825 284.013524 
L 207.690294 289.960694 
L 208.189762 294.916344 
L 208.439497 295.488 
L 323.317259 295.488 
L 323.317259 295.488 
" clip-path="url(#p350147f2af)" style="fill: none; stroke: #1f77b4; stroke-width: 1.5; stroke-linecap: square"/>
   </g>
   <g id="line2d_14">
    <path d="M 73.832727 295.488 
L 105.798713 295.488 
L 106.048448 294.916344 
L 106.298182 293.925257 
L 106.547916 293.429606 
L 106.79765 293.925257 
L 107.047385 293.925257 
L 107.297119 293.429606 
L 107.796587 293.429606 
L 108.296056 291.447432 
L 108.54579 291.447432 
L 108.795524 290.951781 
L 109.045259 291.447432 
L 109.294993 291.447432 
L 109.544727 290.951781 
L 109.794462 290.951781 
L 110.044196 289.960694 
L 110.29393 289.960694 
L 110.543664 288.473956 
L 110.793399 288.969391 
L 111.292867 288.969391 
L 111.542601 287.482652 
L 111.792336 288.473956 
L 112.541538 288.473956 
L 112.791273 286.491566 
L 113.041007 286.491566 
L 113.290741 287.482652 
L 113.540476 286.491566 
L 114.289678 286.491566 
L 114.539413 285.995914 
L 114.789147 285.995914 
L 115.038881 285.004827 
L 115.288615 286.491566 
L 115.53835 285.995914 
L 115.788084 285.995914 
L 116.037818 285.004827 
L 116.287552 285.004827 
L 116.537287 284.013524 
L 117.036755 284.013524 
L 117.28649 285.004827 
L 117.536224 284.013524 
L 117.785958 283.518089 
L 118.035692 284.013524 
L 118.285427 283.518089 
L 118.535161 282.526786 
L 119.534098 282.526786 
L 119.783832 283.518089 
L 120.033566 281.535699 
L 120.533035 281.535699 
L 120.782769 282.526786 
L 121.032503 282.526786 
L 121.282238 281.535699 
L 121.531972 281.040048 
L 121.781706 281.040048 
L 122.031441 280.048961 
L 122.281175 281.040048 
L 123.529846 281.040048 
L 123.77958 278.562222 
L 124.029315 280.048961 
L 124.279049 280.048961 
L 124.778517 277.571136 
L 125.028252 278.562222 
L 126.027189 278.562222 
L 126.276923 277.571136 
L 129.024 277.571136 
L 129.273734 275.093094 
L 130.022937 275.093094 
L 130.272671 276.084181 
L 130.77214 276.084181 
L 131.021874 275.093094 
L 131.271608 276.084181 
L 131.521343 276.084181 
L 131.771077 275.093094 
L 132.020811 276.084181 
L 132.270545 276.084181 
L 132.52028 275.093094 
L 132.770014 275.093094 
L 133.019748 274.597443 
L 134.018685 274.597443 
L 134.26842 275.093094 
L 134.518154 274.597443 
L 134.767888 275.093094 
L 135.017622 275.093094 
L 135.267357 274.597443 
L 135.517091 275.093094 
L 136.016559 275.093094 
L 136.266294 274.597443 
L 136.765762 270.137228 
L 137.015497 269.641792 
L 137.265231 267.659403 
L 137.514965 267.163751 
L 138.014434 261.216798 
L 138.264168 261.216798 
L 138.513902 259.234408 
L 138.763636 258.738973 
L 139.263105 255.269844 
L 139.512839 255.269844 
L 139.762573 254.278758 
L 140.012308 253.783106 
L 140.262042 251.800716 
L 140.511776 253.783106 
L 140.76151 252.792019 
L 141.011245 250.313978 
L 141.260979 249.322891 
L 141.510713 248.827239 
L 142.010182 245.358328 
L 142.259916 246.349414 
L 142.50965 244.367024 
L 142.759385 244.367024 
L 143.009119 241.889199 
L 143.258853 242.880286 
L 143.508587 241.889199 
L 143.758322 240.402461 
L 144.507524 240.402461 
L 145.006993 238.420071 
L 145.256727 236.933333 
L 145.756196 236.933333 
L 146.00593 235.942029 
L 146.255664 235.446594 
L 146.505399 235.446594 
L 146.755133 234.455291 
L 147.004867 234.455291 
L 147.254601 232.968553 
L 147.75407 232.968553 
L 148.003804 231.977466 
L 148.253538 231.977466 
L 148.503273 230.986379 
L 148.753007 231.977466 
L 149.002741 230.986379 
L 149.252476 230.490728 
L 149.50221 229.499641 
L 149.751944 230.490728 
L 150.001678 230.490728 
L 150.251413 229.499641 
L 150.501147 229.499641 
L 150.750881 230.490728 
L 151.000615 228.508338 
L 151.25035 228.012903 
L 151.500084 228.012903 
L 151.749818 228.508338 
L 151.999552 228.508338 
L 152.249287 227.021599 
L 152.499021 228.012903 
L 152.748755 227.021599 
L 152.99849 228.012903 
L 153.248224 228.012903 
L 153.747692 226.030513 
L 154.496895 226.030513 
L 154.746629 225.039426 
L 154.996364 226.030513 
L 155.495832 226.030513 
L 155.745566 225.039426 
L 155.995301 225.039426 
L 156.245035 226.030513 
L 156.494769 226.030513 
L 156.744503 224.543774 
L 158.242909 224.543774 
L 158.492643 223.552688 
L 158.742378 223.552688 
L 158.992112 222.561384 
L 159.241846 223.552688 
L 159.49158 222.561384 
L 159.741315 222.561384 
L 159.991049 222.065949 
L 160.240783 222.561384 
L 160.989986 222.561384 
L 161.23972 222.065949 
L 161.988923 222.065949 
L 162.238657 222.561384 
L 162.488392 222.561384 
L 162.738126 222.065949 
L 162.98786 222.561384 
L 163.737063 222.561384 
L 163.986797 222.065949 
L 164.236531 222.561384 
L 164.736 222.561384 
L 164.985734 225.039426 
L 165.235469 224.543774 
L 165.485203 224.543774 
L 165.984671 222.561384 
L 166.234406 223.552688 
L 166.48414 222.561384 
L 166.733874 222.561384 
L 166.983608 222.065949 
L 167.233343 223.552688 
L 167.732811 223.552688 
L 167.982545 224.543774 
L 168.23228 222.561384 
L 168.482014 223.552688 
L 168.731748 222.561384 
L 168.981483 222.065949 
L 169.231217 222.065949 
L 169.480951 221.074646 
L 169.730685 222.561384 
L 169.98042 222.065949 
L 170.230154 222.561384 
L 170.479888 223.552688 
L 170.729622 221.074646 
L 170.979357 223.552688 
L 171.229091 222.065949 
L 171.478825 222.561384 
L 171.728559 222.561384 
L 171.978294 222.065949 
L 172.477762 222.065949 
L 172.727497 222.561384 
L 172.977231 222.065949 
L 173.226965 222.065949 
L 173.476699 222.561384 
L 173.726434 222.561384 
L 173.976168 222.065949 
L 174.225902 222.065949 
L 174.475636 221.074646 
L 175.224839 221.074646 
L 175.474573 222.065949 
L 175.724308 220.083559 
L 175.974042 222.065949 
L 176.223776 222.065949 
L 176.47351 221.074646 
L 176.723245 222.065949 
L 176.972979 221.074646 
L 177.222713 221.074646 
L 177.472448 222.065949 
L 179.220587 222.065949 
L 179.470322 220.083559 
L 179.720056 221.074646 
L 179.96979 221.074646 
L 180.219524 222.065949 
L 180.718993 222.065949 
L 180.968727 222.561384 
L 181.218462 222.065949 
L 181.468196 223.552688 
L 181.71793 222.065949 
L 182.467133 222.065949 
L 182.716867 221.074646 
L 182.966601 222.065949 
L 183.216336 221.074646 
L 183.46607 222.065949 
L 184.215273 222.065949 
L 184.465007 221.074646 
L 184.714741 222.561384 
L 184.964476 221.074646 
L 185.21421 222.065949 
L 185.713678 222.065949 
L 185.963413 222.561384 
L 186.213147 222.065949 
L 186.462881 222.561384 
L 186.712615 222.065949 
L 186.96235 221.074646 
L 187.212084 222.065949 
L 187.711552 222.065949 
L 187.961287 221.074646 
L 188.960224 221.074646 
L 189.209958 220.083559 
L 189.459692 220.083559 
L 189.709427 222.065949 
L 189.959161 222.561384 
L 190.208895 222.065949 
L 190.458629 221.074646 
L 190.708364 222.065949 
L 190.958098 221.074646 
L 191.207832 222.065949 
L 191.707301 220.083559 
L 192.456503 220.083559 
L 192.706238 219.587908 
L 192.955972 220.083559 
L 193.205706 221.074646 
L 193.455441 220.083559 
L 193.705175 221.074646 
L 194.204643 221.074646 
L 194.454378 222.065949 
L 194.704112 220.083559 
L 194.953846 221.074646 
L 195.20358 219.587908 
L 195.453315 220.083559 
L 195.703049 220.083559 
L 195.952783 219.587908 
L 196.202517 220.083559 
L 196.452252 220.083559 
L 196.701986 221.074646 
L 196.95172 221.074646 
L 197.201455 220.083559 
L 197.451189 221.074646 
L 197.700923 219.587908 
L 197.950657 220.083559 
L 198.200392 221.074646 
L 198.450126 220.083559 
L 198.69986 219.587908 
L 198.949594 221.074646 
L 199.199329 220.083559 
L 199.698797 220.083559 
L 199.948531 221.074646 
L 200.198266 219.587908 
L 200.448 219.587908 
L 200.697734 220.083559 
L 200.947469 219.587908 
L 201.197203 220.083559 
L 201.446937 219.587908 
L 201.696671 219.587908 
L 201.946406 220.083559 
L 202.19614 219.587908 
L 202.445874 220.083559 
L 202.695608 221.074646 
L 204.194014 221.074646 
L 204.443748 220.083559 
L 204.693483 220.083559 
L 204.943217 221.074646 
L 205.192951 220.083559 
L 205.442685 220.083559 
L 205.69242 219.587908 
L 205.942154 219.587908 
L 206.191888 220.083559 
L 206.691357 222.065949 
L 206.941091 220.083559 
L 207.190825 220.083559 
L 207.440559 221.074646 
L 207.690294 220.083559 
L 207.940028 221.074646 
L 208.689231 221.074646 
L 208.938965 220.083559 
L 210.687105 220.083559 
L 210.936839 222.065949 
L 211.186573 221.074646 
L 211.436308 221.074646 
L 211.686042 222.065949 
L 211.935776 221.074646 
L 212.18551 222.065949 
L 212.435245 221.074646 
L 212.684979 221.074646 
L 212.934713 220.083559 
L 213.184448 221.074646 
L 213.434182 220.083559 
L 213.683916 221.074646 
L 213.93365 220.083559 
L 214.183385 221.074646 
L 214.682853 221.074646 
L 214.932587 222.065949 
L 215.182322 222.065949 
L 215.68179 220.083559 
L 215.931524 222.065949 
L 216.181259 221.074646 
L 216.430993 222.065949 
L 216.680727 221.074646 
L 216.930462 221.074646 
L 217.180196 220.083559 
L 217.42993 221.074646 
L 217.679664 221.074646 
L 217.929399 222.065949 
L 218.179133 220.083559 
L 218.428867 220.083559 
L 218.928336 222.065949 
L 219.677538 222.065949 
L 219.927273 221.074646 
L 220.426741 221.074646 
L 220.676476 222.065949 
L 220.92621 221.074646 
L 221.175944 222.065949 
L 221.425678 221.074646 
L 221.675413 222.065949 
L 221.925147 220.083559 
L 222.174881 221.074646 
L 222.424615 221.074646 
L 222.67435 222.065949 
L 222.924084 221.074646 
L 223.173818 221.074646 
L 223.423552 222.065949 
L 223.673287 221.074646 
L 223.923021 221.074646 
L 224.172755 222.065949 
L 224.42249 220.083559 
L 224.921958 222.065949 
L 225.171692 221.074646 
L 225.421427 222.065949 
L 225.671161 221.074646 
L 225.920895 222.065949 
L 226.170629 221.074646 
L 226.420364 222.561384 
L 226.919832 219.587908 
L 227.169566 221.074646 
L 228.418238 221.074646 
L 228.667972 222.561384 
L 228.917706 222.065949 
L 229.666909 222.065949 
L 229.916643 221.074646 
L 230.416112 221.074646 
L 230.665846 220.083559 
L 230.91558 222.065949 
L 231.165315 221.074646 
L 231.664783 221.074646 
L 231.914517 220.083559 
L 232.164252 222.065949 
L 232.66372 222.065949 
L 232.913455 221.074646 
L 233.163189 222.065949 
L 233.412923 222.561384 
L 233.662657 222.065949 
L 233.912392 222.561384 
L 234.162126 221.074646 
L 234.41186 221.074646 
L 234.661594 220.083559 
L 234.911329 222.065949 
L 235.161063 222.065949 
L 235.410797 221.074646 
L 235.910266 221.074646 
L 236.16 222.065949 
L 236.409734 220.083559 
L 236.659469 222.065949 
L 236.909203 222.561384 
L 237.158937 222.561384 
L 237.408671 222.065949 
L 238.407608 222.065949 
L 238.657343 221.074646 
L 238.907077 221.074646 
L 239.156811 222.065949 
L 239.406545 221.074646 
L 239.65628 222.561384 
L 239.906014 222.065949 
L 240.405483 222.065949 
L 240.655217 221.074646 
L 240.904951 222.065949 
L 241.154685 221.074646 
L 241.40442 222.065949 
L 241.654154 222.561384 
L 241.903888 222.561384 
L 242.153622 222.065949 
L 242.403357 222.561384 
L 242.653091 222.561384 
L 242.902825 222.065949 
L 244.650965 222.065949 
L 244.900699 222.561384 
L 245.150434 222.561384 
L 245.400168 222.065949 
L 245.649902 222.065949 
L 245.899636 222.561384 
L 246.898573 222.561384 
L 247.148308 222.065949 
L 247.398042 222.561384 
L 247.647776 222.561384 
L 247.89751 222.065949 
L 248.147245 222.065949 
L 248.396979 222.561384 
L 248.646713 222.065949 
L 248.896448 222.065949 
L 249.146182 222.561384 
L 249.395916 223.552688 
L 249.64565 222.561384 
L 250.145119 222.561384 
L 250.394853 222.065949 
L 250.894322 222.065949 
L 251.144056 222.561384 
L 251.893259 222.561384 
L 252.142993 222.065949 
L 252.392727 222.065949 
L 252.642462 222.561384 
L 252.892196 223.552688 
L 253.14193 222.065949 
L 253.391664 222.561384 
L 253.641399 223.552688 
L 253.891133 222.561384 
L 254.140867 222.065949 
L 254.390601 222.065949 
L 254.640336 223.552688 
L 254.89007 223.552688 
L 255.139804 222.561384 
L 255.889007 222.561384 
L 256.138741 222.065949 
L 256.388476 222.065949 
L 256.63821 222.561384 
L 256.887944 222.065949 
L 257.137678 222.561384 
L 257.387413 222.561384 
L 257.637147 222.065949 
L 258.136615 222.065949 
L 258.38635 223.552688 
L 258.885818 223.552688 
L 259.135552 222.561384 
L 259.385287 223.552688 
L 259.884755 223.552688 
L 260.13449 222.065949 
L 260.384224 222.561384 
L 260.633958 222.561384 
L 260.883692 222.065949 
L 261.133427 222.561384 
L 261.882629 222.561384 
L 262.132364 223.552688 
L 262.382098 223.552688 
L 262.631832 222.065949 
L 262.881566 222.561384 
L 263.131301 222.561384 
L 263.381035 223.552688 
L 263.630769 223.552688 
L 263.880503 222.561384 
L 264.879441 222.561384 
L 265.129175 222.065949 
L 265.378909 222.065949 
L 265.628643 222.561384 
L 265.878378 222.065949 
L 266.128112 222.561384 
L 266.877315 222.561384 
L 267.127049 223.552688 
L 267.376783 222.561384 
L 267.626517 223.552688 
L 267.876252 223.552688 
L 268.125986 222.561384 
L 269.624392 222.561384 
L 269.874126 223.552688 
L 270.12386 222.561384 
L 270.373594 222.561384 
L 270.623329 222.065949 
L 270.873063 222.561384 
L 271.122797 222.561384 
L 271.372531 223.552688 
L 271.622266 223.552688 
L 271.872 222.561384 
L 272.121734 222.561384 
L 272.371469 223.552688 
L 272.621203 222.561384 
L 273.120671 224.543774 
L 273.370406 224.543774 
L 273.62014 223.552688 
L 273.869874 223.552688 
L 274.119608 222.561384 
L 274.369343 224.543774 
L 274.619077 224.543774 
L 275.118545 222.561384 
L 275.618014 224.543774 
L 276.117483 222.561384 
L 276.367217 223.552688 
L 276.616951 222.561384 
L 277.11642 224.543774 
L 277.366154 223.552688 
L 277.615888 224.543774 
L 278.115357 222.561384 
L 278.365091 224.543774 
L 278.614825 224.543774 
L 279.114294 222.561384 
L 279.364028 223.552688 
L 279.613762 222.561384 
L 279.863497 222.561384 
L 280.113231 223.552688 
L 280.362965 222.561384 
L 280.612699 224.543774 
L 280.862434 224.543774 
L 281.112168 222.561384 
L 281.361902 224.543774 
L 281.611636 224.543774 
L 281.861371 223.552688 
L 282.111105 224.543774 
L 282.360839 223.552688 
L 282.610573 224.543774 
L 282.860308 222.561384 
L 283.110042 222.561384 
L 283.359776 223.552688 
L 283.60951 223.552688 
L 283.859245 224.543774 
L 284.108979 223.552688 
L 284.608448 223.552688 
L 284.858182 222.561384 
L 285.107916 222.561384 
L 285.35765 223.552688 
L 285.857119 223.552688 
L 286.106853 222.561384 
L 286.356587 222.561384 
L 286.606322 224.543774 
L 286.856056 224.543774 
L 287.355524 222.561384 
L 287.605259 224.543774 
L 287.854993 222.561384 
L 288.104727 224.543774 
L 288.354462 223.552688 
L 288.604196 223.552688 
L 288.85393 224.543774 
L 289.103664 223.552688 
L 289.353399 223.552688 
L 289.603133 224.543774 
L 289.852867 224.543774 
L 290.102601 226.030513 
L 290.352336 223.552688 
L 290.60207 224.543774 
L 290.851804 223.552688 
L 291.101538 223.552688 
L 291.351273 225.039426 
L 291.601007 223.552688 
L 291.850741 225.039426 
L 292.100476 224.543774 
L 292.35021 224.543774 
L 292.599944 225.039426 
L 292.849678 223.552688 
L 293.099413 224.543774 
L 293.349147 224.543774 
L 293.598881 223.552688 
L 293.848615 225.039426 
L 294.09835 224.543774 
L 294.348084 225.039426 
L 294.597818 224.543774 
L 294.847552 224.543774 
L 295.097287 223.552688 
L 295.347021 224.543774 
L 296.096224 224.543774 
L 296.345958 223.552688 
L 296.595692 224.543774 
L 297.344895 224.543774 
L 297.594629 225.039426 
L 297.844364 224.543774 
L 298.094098 225.039426 
L 298.343832 225.039426 
L 298.593566 226.030513 
L 298.843301 224.543774 
L 299.093035 224.543774 
L 299.342769 225.039426 
L 299.592503 223.552688 
L 299.842238 224.543774 
L 300.091972 224.543774 
L 300.341706 223.552688 
L 300.591441 225.039426 
L 300.841175 223.552688 
L 301.090909 223.552688 
L 301.340643 224.543774 
L 301.590378 223.552688 
L 301.840112 225.039426 
L 302.089846 223.552688 
L 302.33958 224.543774 
L 302.589315 224.543774 
L 302.839049 223.552688 
L 303.088783 224.543774 
L 303.338517 225.039426 
L 303.588252 223.552688 
L 303.837986 225.039426 
L 304.08772 224.543774 
L 304.836923 224.543774 
L 305.086657 225.039426 
L 305.336392 223.552688 
L 305.586126 224.543774 
L 305.83586 223.552688 
L 306.085594 223.552688 
L 306.335329 224.543774 
L 306.585063 223.552688 
L 306.834797 224.543774 
L 307.084531 223.552688 
L 307.833734 223.552688 
L 308.083469 224.543774 
L 308.333203 223.552688 
L 308.582937 223.552688 
L 308.832671 224.543774 
L 309.082406 223.552688 
L 309.33214 226.030513 
L 309.581874 225.039426 
L 309.831608 224.543774 
L 310.081343 224.543774 
L 310.331077 223.552688 
L 310.580811 224.543774 
L 310.830545 223.552688 
L 311.08028 223.552688 
L 311.330014 224.543774 
L 311.579748 224.543774 
L 311.829483 225.039426 
L 312.079217 224.543774 
L 312.328951 224.543774 
L 312.578685 226.030513 
L 312.82842 225.039426 
L 313.078154 226.030513 
L 313.327888 224.543774 
L 313.577622 225.039426 
L 313.827357 225.039426 
L 314.077091 226.030513 
L 314.326825 225.039426 
L 314.576559 226.030513 
L 314.826294 225.039426 
L 315.076028 226.030513 
L 315.575497 226.030513 
L 315.825231 225.039426 
L 316.074965 225.039426 
L 316.324699 227.021599 
L 316.574434 226.030513 
L 317.073902 226.030513 
L 317.323636 225.039426 
L 317.573371 224.543774 
L 317.823105 225.039426 
L 318.072839 226.030513 
L 319.32151 226.030513 
L 319.571245 225.039426 
L 319.820979 226.030513 
L 320.070713 226.030513 
L 320.320448 225.039426 
L 320.570182 225.039426 
L 320.819916 226.030513 
L 321.06965 225.039426 
L 321.569119 225.039426 
L 321.818853 226.030513 
L 322.568056 226.030513 
L 322.81779 227.021599 
L 323.067524 226.030513 
L 323.816727 226.030513 
L 324.066462 225.039426 
L 324.316196 227.021599 
L 324.56593 228.012903 
L 324.815664 225.039426 
L 325.065399 225.039426 
L 325.315133 226.030513 
L 325.564867 224.543774 
L 326.064336 224.543774 
L 326.31407 225.039426 
L 327.063273 230.490728 
L 327.313007 230.490728 
L 327.812476 242.880286 
L 328.311944 255.269844 
L 328.561678 259.234408 
L 329.560615 281.040048 
L 330.309818 293.925257 
L 330.559552 295.488 
L 398.487273 295.488 
L 398.487273 295.488 
" clip-path="url(#p350147f2af)" style="fill: none; stroke: #ff7f0e; stroke-width: 1.5; stroke-linecap: square"/>
   </g>
   <g id="line2d_15"/>
   <g id="line2d_16"/>
   <g id="patch_3">
    <path d="M 57.6 307.584 
L 57.6 41.472 
" style="fill: none; stroke: #000000; stroke-width: 0.8; stroke-linejoin: miter; stroke-linecap: square"/>
   </g>
   <g id="patch_4">
    <path d="M 414.72 307.584 
L 414.72 41.472 
" style="fill: none; stroke: #000000; stroke-width: 0.8; stroke-linejoin: miter; stroke-linecap: square"/>
   </g>
   <g id="patch_5">
    <path d="M 57.6 307.584 
L 414.72 307.584 
" style="fill: none; stroke: #000000; stroke-width: 0.8; stroke-linejoin: miter; stroke-linecap: square"/>
   </g>
   <g id="patch_6">
    <path d="M 57.6 41.472 
L 414.72 41.472 
" style="fill: none; stroke: #000000; stroke-width: 0.8; stroke-linejoin: miter; stroke-linecap: square"/>
   </g>
   <g id="legend_1">
    <g id="patch_7">
     <path d="M 302.555 120.0895 
L 403.52 120.0895 
Q 406.72 120.0895 406.72 116.8895 
L 406.72 52.672 
Q 406.72 49.472 403.52 49.472 
L 302.555 49.472 
Q 299.355 49.472 299.355 52.672 
L 299.355 116.8895 
Q 299.355 120.0895 302.555 120.0895 
z
" style="fill: #ffffff; opacity: 0.8; stroke: #cccccc; stroke-linejoin: miter"/>
    </g>
    <g id="text_15">
     <text style="font: 16px 'Calibri'; text-anchor: start" x="313.86125" y="66.7545" transform="rotate(-0 313.86125 66.7545)">PlaceHolder</text>
    </g>
    <g id="line2d_17">
     <path d="M 305.755 83.1995 
L 321.755 83.1995 
L 337.755 83.1995 
" style="fill: none; stroke: #1f77b4; stroke-width: 1.5; stroke-linecap: square"/>
    </g>
    <g id="text_16">
     <text style="font: 16px 'Calibri'; text-anchor: start" x="350.555" y="88.7995" transform="rotate(-0 350.555 88.7995)">Broke</text>
    </g>
    <g id="line2d_18">
     <path d="M 305.755 105.2445 
L 321.755 105.2445 
L 337.755 105.2445 
" style="fill: none; stroke: #ff7f0e; stroke-width: 1.5; stroke-linecap: square"/>
    </g>
    <g id="text_17">
     <text style="font: 16px 'Calibri'; text-anchor: start" x="350.555" y="110.8445" transform="rotate(-0 350.555 110.8445)">Success</text>
    </g>
   </g>
  </g>
 </g>
 <defs>
  <clipPath id="p350147f2af">
   <rect x="57.6" y="41.472" width="357.12" height="266.112"/>
  </clipPath>
 </defs>
</svg>
