<?xml version="1.0" encoding="utf-8" standalone="no"?>
<!DOCTYPE svg PUBLIC "-//W3C//DTD SVG 1.1//EN"
  "http://www.w3.org/Graphics/SVG/1.1/DTD/svg11.dtd">
<svg xmlns:xlink="http://www.w3.org/1999/xlink" width="461.5375pt" height="338.5575pt" viewBox="0 0 461.5375 338.5575" xmlns="http://www.w3.org/2000/svg" version="1.1">
 <metadata>
  <rdf:RDF xmlns:dc="http://purl.org/dc/elements/1.1/" xmlns:cc="http://creativecommons.org/ns#" xmlns:rdf="http://www.w3.org/1999/02/22-rdf-syntax-ns#">
   <cc:Work>
    <dc:type rdf:resource="http://purl.org/dc/dcmitype/StillImage"/>
    <dc:date>2023-08-24T21:00:15.194578</dc:date>
    <dc:format>image/svg+xml</dc:format>
    <dc:creator>
     <cc:Agent>
      <dc:title>Matplotlib v3.7.1, https://matplotlib.org/</dc:title>
     </cc:Agent>
    </dc:creator>
   </cc:Work>
  </rdf:RDF>
 </metadata>
 <defs>
  <style type="text/css">*{stroke-linejoin: round; stroke-linecap: butt}</style>
 </defs>
 <g id="figure_1">
  <g id="patch_1">
   <path d="M 0 338.5575 
L 461.5375 338.5575 
L 461.5375 0 
L 0 0 
z
" style="fill: #ffffff"/>
  </g>
  <g id="axes_1">
   <g id="patch_2">
    <path d="M 56.2575 292.84 
L 327.2669 292.84 
L 327.2669 7.2 
L 56.2575 7.2 
z
" style="fill: #ffffff"/>
   </g>
   <g id="patch_3">
    <path d="M 110.594885 279.40436 
L 123.874345 279.40436 
L 123.874345 202.793063 
L 110.594885 202.793063 
L 110.594885 279.40436 
z
" clip-path="url(#p6a004d9e7d)" style="fill: #3274a1; stroke: #3f3f3f; stroke-width: 1.5; stroke-linejoin: miter"/>
   </g>
   <g id="patch_4">
    <path d="M 124.145355 182.372362 
L 137.424815 182.372362 
L 137.424815 138.436034 
L 124.145355 138.436034 
L 124.145355 182.372362 
z
" clip-path="url(#p6a004d9e7d)" style="fill: #e1812c; stroke: #3f3f3f; stroke-width: 1.5; stroke-linejoin: miter"/>
   </g>
   <g id="patch_5">
    <path d="M 246.099585 264.844741 
L 259.379045 264.844741 
L 259.379045 170.146701 
L 246.099585 170.146701 
L 246.099585 264.844741 
z
" clip-path="url(#p6a004d9e7d)" style="fill: #3274a1; stroke: #3f3f3f; stroke-width: 1.5; stroke-linejoin: miter"/>
   </g>
   <g id="patch_6">
    <path d="M 259.650055 173.635974 
L 272.929515 173.635974 
L 272.929515 118.874448 
L 259.650055 118.874448 
L 259.650055 173.635974 
z
" clip-path="url(#p6a004d9e7d)" style="fill: #e1812c; stroke: #3f3f3f; stroke-width: 1.5; stroke-linejoin: miter"/>
   </g>
   <g id="patch_7">
    <path d="M 124.00985 295.116214 
L 124.00985 295.116214 
L 124.00985 295.116214 
L 124.00985 295.116214 
z
" clip-path="url(#p6a004d9e7d)" style="fill: #3274a1; stroke: #3f3f3f; stroke-width: 0.75; stroke-linejoin: miter"/>
   </g>
   <g id="patch_8">
    <path d="M 124.00985 295.116214 
L 124.00985 295.116214 
L 124.00985 295.116214 
L 124.00985 295.116214 
z
" clip-path="url(#p6a004d9e7d)" style="fill: #e1812c; stroke: #3f3f3f; stroke-width: 0.75; stroke-linejoin: miter"/>
   </g>
   <g id="PathCollection_1"/>
   <g id="PathCollection_2"/>
   <g id="matplotlib.axis_1">
    <g id="xtick_1">
     <g id="line2d_1">
      <defs>
       <path id="m96b68b3f55" d="M 0 0 
L 0 3.5 
" style="stroke: #000000; stroke-width: 0.8"/>
      </defs>
      <g>
       <use xlink:href="#m96b68b3f55" x="124.00985" y="292.84" style="stroke: #000000; stroke-width: 0.8"/>
      </g>
     </g>
     <g id="text_1">
      <text style="font: 16px 'Calibri'; text-anchor: middle" x="124.00985" y="310.7775" transform="rotate(-0 124.00985 310.7775)">SNS_first</text>
     </g>
    </g>
    <g id="xtick_2">
     <g id="line2d_2">
      <g>
       <use xlink:href="#m96b68b3f55" x="259.51455" y="292.84" style="stroke: #000000; stroke-width: 0.8"/>
      </g>
     </g>
     <g id="text_2">
      <text style="font: 16px 'Calibri'; text-anchor: middle" x="259.51455" y="310.7775" transform="rotate(-0 259.51455 310.7775)">Manual_first</text>
     </g>
    </g>
    <g id="text_3">
     <text style="font: 16px 'Calibri'; text-anchor: middle" x="191.7622" y="328.5125" transform="rotate(-0 191.7622 328.5125)">Group Type</text>
    </g>
   </g>
   <g id="matplotlib.axis_2">
    <g id="ytick_1">
     <g id="line2d_3">
      <defs>
       <path id="mfc2d8bbed4" d="M 0 0 
L -3.5 0 
" style="stroke: #000000; stroke-width: 0.8"/>
      </defs>
      <g>
       <use xlink:href="#mfc2d8bbed4" x="56.2575" y="251.104186" style="stroke: #000000; stroke-width: 0.8"/>
      </g>
     </g>
     <g id="text_4">
      <text style="font: 16px 'Calibri'; text-anchor: end" x="49.2575" y="256.545436" transform="rotate(-0 49.2575 256.545436)">25</text>
     </g>
    </g>
    <g id="ytick_2">
     <g id="line2d_4">
      <g>
       <use xlink:href="#mfc2d8bbed4" x="56.2575" y="207.092158" style="stroke: #000000; stroke-width: 0.8"/>
      </g>
     </g>
     <g id="text_5">
      <text style="font: 16px 'Calibri'; text-anchor: end" x="49.2575" y="212.533408" transform="rotate(-0 49.2575 212.533408)">50</text>
     </g>
    </g>
    <g id="ytick_3">
     <g id="line2d_5">
      <g>
       <use xlink:href="#mfc2d8bbed4" x="56.2575" y="163.080129" style="stroke: #000000; stroke-width: 0.8"/>
      </g>
     </g>
     <g id="text_6">
      <text style="font: 16px 'Calibri'; text-anchor: end" x="49.2575" y="168.521379" transform="rotate(-0 49.2575 168.521379)">75</text>
     </g>
    </g>
    <g id="ytick_4">
     <g id="line2d_6">
      <g>
       <use xlink:href="#mfc2d8bbed4" x="56.2575" y="119.068101" style="stroke: #000000; stroke-width: 0.8"/>
      </g>
     </g>
     <g id="text_7">
      <text style="font: 16px 'Calibri'; text-anchor: end" x="49.2575" y="124.509351" transform="rotate(-0 49.2575 124.509351)">100</text>
     </g>
    </g>
    <g id="ytick_5">
     <g id="line2d_7">
      <g>
       <use xlink:href="#mfc2d8bbed4" x="56.2575" y="75.056073" style="stroke: #000000; stroke-width: 0.8"/>
      </g>
     </g>
     <g id="text_8">
      <text style="font: 16px 'Calibri'; text-anchor: end" x="49.2575" y="80.497323" transform="rotate(-0 49.2575 80.497323)">125</text>
     </g>
    </g>
    <g id="ytick_6">
     <g id="line2d_8">
      <g>
       <use xlink:href="#mfc2d8bbed4" x="56.2575" y="31.044044" style="stroke: #000000; stroke-width: 0.8"/>
      </g>
     </g>
     <g id="text_9">
      <text style="font: 16px 'Calibri'; text-anchor: end" x="49.2575" y="36.485294" transform="rotate(-0 49.2575 36.485294)">150</text>
     </g>
    </g>
    <g id="text_10">
     <text style="font: 16px 'Calibri'; text-anchor: middle" x="18.0825" y="150.02" transform="rotate(-90 18.0825 150.02)">Grasp Time</text>
    </g>
   </g>
   <g id="line2d_9">
    <path d="M 117.234615 279.40436 
L 117.234615 279.856364 
" clip-path="url(#p6a004d9e7d)" style="fill: none; stroke: #3f3f3f; stroke-width: 1.5; stroke-linecap: square"/>
   </g>
   <g id="line2d_10">
    <path d="M 117.234615 202.793063 
L 117.234615 186.380097 
" clip-path="url(#p6a004d9e7d)" style="fill: none; stroke: #3f3f3f; stroke-width: 1.5; stroke-linecap: square"/>
   </g>
   <g id="line2d_11">
    <path d="M 113.91475 279.856364 
L 120.55448 279.856364 
" clip-path="url(#p6a004d9e7d)" style="fill: none; stroke: #3f3f3f; stroke-width: 1.5; stroke-linecap: square"/>
   </g>
   <g id="line2d_12">
    <path d="M 113.91475 186.380097 
L 120.55448 186.380097 
" clip-path="url(#p6a004d9e7d)" style="fill: none; stroke: #3f3f3f; stroke-width: 1.5; stroke-linecap: square"/>
   </g>
   <g id="line2d_13"/>
   <g id="line2d_14">
    <path d="M 130.785085 182.372362 
L 130.785085 211.269779 
" clip-path="url(#p6a004d9e7d)" style="fill: none; stroke: #3f3f3f; stroke-width: 1.5; stroke-linecap: square"/>
   </g>
   <g id="line2d_15">
    <path d="M 130.785085 138.436034 
L 130.785085 86.798482 
" clip-path="url(#p6a004d9e7d)" style="fill: none; stroke: #3f3f3f; stroke-width: 1.5; stroke-linecap: square"/>
   </g>
   <g id="line2d_16">
    <path d="M 127.46522 211.269779 
L 134.10495 211.269779 
" clip-path="url(#p6a004d9e7d)" style="fill: none; stroke: #3f3f3f; stroke-width: 1.5; stroke-linecap: square"/>
   </g>
   <g id="line2d_17">
    <path d="M 127.46522 86.798482 
L 134.10495 86.798482 
" clip-path="url(#p6a004d9e7d)" style="fill: none; stroke: #3f3f3f; stroke-width: 1.5; stroke-linecap: square"/>
   </g>
   <g id="line2d_18"/>
   <g id="line2d_19">
    <path d="M 252.739315 264.844741 
L 252.739315 277.675128 
" clip-path="url(#p6a004d9e7d)" style="fill: none; stroke: #3f3f3f; stroke-width: 1.5; stroke-linecap: square"/>
   </g>
   <g id="line2d_20">
    <path d="M 252.739315 170.146701 
L 252.739315 150.515575 
" clip-path="url(#p6a004d9e7d)" style="fill: none; stroke: #3f3f3f; stroke-width: 1.5; stroke-linecap: square"/>
   </g>
   <g id="line2d_21">
    <path d="M 249.41945 277.675128 
L 256.05918 277.675128 
" clip-path="url(#p6a004d9e7d)" style="fill: none; stroke: #3f3f3f; stroke-width: 1.5; stroke-linecap: square"/>
   </g>
   <g id="line2d_22">
    <path d="M 249.41945 150.515575 
L 256.05918 150.515575 
" clip-path="url(#p6a004d9e7d)" style="fill: none; stroke: #3f3f3f; stroke-width: 1.5; stroke-linecap: square"/>
   </g>
   <g id="line2d_23"/>
   <g id="line2d_24">
    <path d="M 266.289785 173.635974 
L 266.289785 219.813394 
" clip-path="url(#p6a004d9e7d)" style="fill: none; stroke: #3f3f3f; stroke-width: 1.5; stroke-linecap: square"/>
   </g>
   <g id="line2d_25">
    <path d="M 266.289785 118.874448 
L 266.289785 97.174758 
" clip-path="url(#p6a004d9e7d)" style="fill: none; stroke: #3f3f3f; stroke-width: 1.5; stroke-linecap: square"/>
   </g>
   <g id="line2d_26">
    <path d="M 262.96992 219.813394 
L 269.60965 219.813394 
" clip-path="url(#p6a004d9e7d)" style="fill: none; stroke: #3f3f3f; stroke-width: 1.5; stroke-linecap: square"/>
   </g>
   <g id="line2d_27">
    <path d="M 262.96992 97.174758 
L 269.60965 97.174758 
" clip-path="url(#p6a004d9e7d)" style="fill: none; stroke: #3f3f3f; stroke-width: 1.5; stroke-linecap: square"/>
   </g>
   <g id="line2d_28">
    <defs>
     <path id="m9a90538fd3" d="M 0 3.535534 
L 2.12132 0 
L 0 -3.535534 
L -2.12132 0 
z
" style="stroke: #3f3f3f; stroke-linejoin: miter"/>
    </defs>
    <g clip-path="url(#p6a004d9e7d)">
     <use xlink:href="#m9a90538fd3" x="266.289785" y="20.183636" style="fill: #3f3f3f; stroke: #3f3f3f; stroke-linejoin: miter"/>
    </g>
   </g>
   <g id="line2d_29">
    <path d="M 110.594885 241.370486 
L 123.874345 241.370486 
" clip-path="url(#p6a004d9e7d)" style="fill: none; stroke: #3f3f3f; stroke-width: 1.5; stroke-linecap: square"/>
   </g>
   <g id="line2d_30">
    <path d="M 124.145355 158.344435 
L 137.424815 158.344435 
" clip-path="url(#p6a004d9e7d)" style="fill: none; stroke: #3f3f3f; stroke-width: 1.5; stroke-linecap: square"/>
   </g>
   <g id="line2d_31">
    <path d="M 246.099585 242.150379 
L 259.379045 242.150379 
" clip-path="url(#p6a004d9e7d)" style="fill: none; stroke: #3f3f3f; stroke-width: 1.5; stroke-linecap: square"/>
   </g>
   <g id="line2d_32">
    <path d="M 259.650055 137.32253 
L 272.929515 137.32253 
" clip-path="url(#p6a004d9e7d)" style="fill: none; stroke: #3f3f3f; stroke-width: 1.5; stroke-linecap: square"/>
   </g>
   <g id="patch_9">
    <path d="M 56.2575 292.84 
L 56.2575 7.2 
" style="fill: none; stroke: #000000; stroke-width: 0.8; stroke-linejoin: miter; stroke-linecap: square"/>
   </g>
   <g id="patch_10">
    <path d="M 56.2575 292.84 
L 327.2669 292.84 
" style="fill: none; stroke: #000000; stroke-width: 0.8; stroke-linejoin: miter; stroke-linecap: square"/>
   </g>
   <g id="PathCollection_3">
    <defs>
     <path id="C0_0_780161387d" d="M 0 2.5 
C 0.663008 2.5 1.29895 2.236584 1.767767 1.767767 
C 2.236584 1.29895 2.5 0.663008 2.5 -0 
C 2.5 -0.663008 2.236584 -1.29895 1.767767 -1.767767 
C 1.29895 -2.236584 0.663008 -2.5 0 -2.5 
C -0.663008 -2.5 -1.29895 -2.236584 -1.767767 -1.767767 
C -2.236584 -1.29895 -2.5 -0.663008 -2.5 0 
C -2.5 0.663008 -2.236584 1.29895 -1.767767 1.767767 
C -1.29895 2.236584 -0.663008 2.5 0 2.5 
z
"/>
    </defs>
    <g clip-path="url(#p6a004d9e7d)">
     <use xlink:href="#C0_0_780161387d" x="96.90891" y="279.856364" style="fill: #404040; fill-opacity: 0.6"/>
    </g>
    <g clip-path="url(#p6a004d9e7d)">
     <use xlink:href="#C0_0_780161387d" x="96.90891" y="279.361668" style="fill: #404040; fill-opacity: 0.6"/>
    </g>
    <g clip-path="url(#p6a004d9e7d)">
     <use xlink:href="#C0_0_780161387d" x="96.90891" y="191.876319" style="fill: #404040; fill-opacity: 0.6"/>
    </g>
    <g clip-path="url(#p6a004d9e7d)">
     <use xlink:href="#C0_0_780161387d" x="96.90891" y="279.532435" style="fill: #404040; fill-opacity: 0.6"/>
    </g>
    <g clip-path="url(#p6a004d9e7d)">
     <use xlink:href="#C0_0_780161387d" x="96.90891" y="209.044531" style="fill: #404040; fill-opacity: 0.6"/>
    </g>
    <g clip-path="url(#p6a004d9e7d)">
     <use xlink:href="#C0_0_780161387d" x="96.90891" y="273.69644" style="fill: #404040; fill-opacity: 0.6"/>
    </g>
    <g clip-path="url(#p6a004d9e7d)">
     <use xlink:href="#C0_0_780161387d" x="96.90891" y="206.431977" style="fill: #404040; fill-opacity: 0.6"/>
    </g>
    <g clip-path="url(#p6a004d9e7d)">
     <use xlink:href="#C0_0_780161387d" x="96.90891" y="186.380097" style="fill: #404040; fill-opacity: 0.6"/>
    </g>
   </g>
   <g id="PathCollection_4">
    <defs>
     <path id="C1_0_59b4ae78a9" d="M 0 2.5 
C 0.663008 2.5 1.29895 2.236584 1.767767 1.767767 
C 2.236584 1.29895 2.5 0.663008 2.5 -0 
C 2.5 -0.663008 2.236584 -1.29895 1.767767 -1.767767 
C 1.29895 -2.236584 0.663008 -2.5 0 -2.5 
C -0.663008 -2.5 -1.29895 -2.236584 -1.767767 -1.767767 
C -2.236584 -1.29895 -2.5 -0.663008 -2.5 0 
C -2.5 0.663008 -2.236584 1.29895 -1.767767 1.767767 
C -1.29895 2.236584 -0.663008 2.5 0 2.5 
z
"/>
    </defs>
    <g clip-path="url(#p6a004d9e7d)">
     <use xlink:href="#C1_0_59b4ae78a9" x="151.11079" y="130.681995" style="fill: #404040; fill-opacity: 0.6"/>
    </g>
    <g clip-path="url(#p6a004d9e7d)">
     <use xlink:href="#C1_0_59b4ae78a9" x="151.11079" y="158.344435" style="fill: #404040; fill-opacity: 0.6"/>
    </g>
    <g clip-path="url(#p6a004d9e7d)">
     <use xlink:href="#C1_0_59b4ae78a9" x="151.11079" y="211.269779" style="fill: #404040; fill-opacity: 0.6"/>
    </g>
    <g clip-path="url(#p6a004d9e7d)">
     <use xlink:href="#C1_0_59b4ae78a9" x="151.11079" y="183.637267" style="fill: #404040; fill-opacity: 0.6"/>
    </g>
    <g clip-path="url(#p6a004d9e7d)">
     <use xlink:href="#C1_0_59b4ae78a9" x="151.11079" y="181.107456" style="fill: #404040; fill-opacity: 0.6"/>
    </g>
    <g clip-path="url(#p6a004d9e7d)">
     <use xlink:href="#C1_0_59b4ae78a9" x="151.11079" y="86.798482" style="fill: #404040; fill-opacity: 0.6"/>
    </g>
    <g clip-path="url(#p6a004d9e7d)">
     <use xlink:href="#C1_0_59b4ae78a9" x="151.11079" y="146.190073" style="fill: #404040; fill-opacity: 0.6"/>
    </g>
   </g>
   <g id="PathCollection_5">
    <defs>
     <path id="C2_0_bf7e75a8cb" d="M 0 2.5 
C 0.663008 2.5 1.29895 2.236584 1.767767 1.767767 
C 2.236584 1.29895 2.5 0.663008 2.5 -0 
C 2.5 -0.663008 2.236584 -1.29895 1.767767 -1.767767 
C 1.29895 -2.236584 0.663008 -2.5 0 -2.5 
C -0.663008 -2.5 -1.29895 -2.236584 -1.767767 -1.767767 
C -2.236584 -1.29895 -2.5 -0.663008 -2.5 0 
C -2.5 0.663008 -2.236584 1.29895 -1.767767 1.767767 
C -1.29895 2.236584 -0.663008 2.5 0 2.5 
z
"/>
    </defs>
    <g clip-path="url(#p6a004d9e7d)">
     <use xlink:href="#C2_0_bf7e75a8cb" x="232.41361" y="277.675128" style="fill: #404040; fill-opacity: 0.6"/>
    </g>
    <g clip-path="url(#p6a004d9e7d)">
     <use xlink:href="#C2_0_bf7e75a8cb" x="232.41361" y="242.150379" style="fill: #404040; fill-opacity: 0.6"/>
    </g>
    <g clip-path="url(#p6a004d9e7d)">
     <use xlink:href="#C2_0_bf7e75a8cb" x="232.41361" y="170.146701" style="fill: #404040; fill-opacity: 0.6"/>
    </g>
    <g clip-path="url(#p6a004d9e7d)">
     <use xlink:href="#C2_0_bf7e75a8cb" x="232.41361" y="264.844741" style="fill: #404040; fill-opacity: 0.6"/>
    </g>
    <g clip-path="url(#p6a004d9e7d)">
     <use xlink:href="#C2_0_bf7e75a8cb" x="232.41361" y="150.515575" style="fill: #404040; fill-opacity: 0.6"/>
    </g>
   </g>
   <g id="PathCollection_6">
    <defs>
     <path id="C3_0_2c1ac43e2a" d="M 0 2.5 
C 0.663008 2.5 1.29895 2.236584 1.767767 1.767767 
C 2.236584 1.29895 2.5 0.663008 2.5 -0 
C 2.5 -0.663008 2.236584 -1.29895 1.767767 -1.767767 
C 1.29895 -2.236584 0.663008 -2.5 0 -2.5 
C -0.663008 -2.5 -1.29895 -2.236584 -1.767767 -1.767767 
C -2.236584 -1.29895 -2.5 -0.663008 -2.5 0 
C -2.5 0.663008 -2.236584 1.29895 -1.767767 1.767767 
C -1.29895 2.236584 -0.663008 2.5 0 2.5 
z
"/>
    </defs>
    <g clip-path="url(#p6a004d9e7d)">
     <use xlink:href="#C3_0_2c1ac43e2a" x="286.61549" y="97.174758" style="fill: #404040; fill-opacity: 0.6"/>
    </g>
    <g clip-path="url(#p6a004d9e7d)">
     <use xlink:href="#C3_0_2c1ac43e2a" x="286.61549" y="20.183636" style="fill: #404040; fill-opacity: 0.6"/>
    </g>
    <g clip-path="url(#p6a004d9e7d)">
     <use xlink:href="#C3_0_2c1ac43e2a" x="286.61549" y="118.874448" style="fill: #404040; fill-opacity: 0.6"/>
    </g>
    <g clip-path="url(#p6a004d9e7d)">
     <use xlink:href="#C3_0_2c1ac43e2a" x="286.61549" y="121.979937" style="fill: #404040; fill-opacity: 0.6"/>
    </g>
    <g clip-path="url(#p6a004d9e7d)">
     <use xlink:href="#C3_0_2c1ac43e2a" x="286.61549" y="137.32253" style="fill: #404040; fill-opacity: 0.6"/>
    </g>
    <g clip-path="url(#p6a004d9e7d)">
     <use xlink:href="#C3_0_2c1ac43e2a" x="286.61549" y="173.635974" style="fill: #404040; fill-opacity: 0.6"/>
    </g>
    <g clip-path="url(#p6a004d9e7d)">
     <use xlink:href="#C3_0_2c1ac43e2a" x="286.61549" y="212.324307" style="fill: #404040; fill-opacity: 0.6"/>
    </g>
    <g clip-path="url(#p6a004d9e7d)">
     <use xlink:href="#C3_0_2c1ac43e2a" x="286.61549" y="219.813394" style="fill: #404040; fill-opacity: 0.6"/>
    </g>
    <g clip-path="url(#p6a004d9e7d)">
     <use xlink:href="#C3_0_2c1ac43e2a" x="286.61549" y="159.342628" style="fill: #404040; fill-opacity: 0.6"/>
    </g>
   </g>
  </g>
  <g id="legend_1">
   <g id="text_11">
    <text style="font: 16px 'Calibri'; text-anchor: start" x="346.75" y="151.28" transform="rotate(-0 346.75 151.28)">Type of Control</text>
   </g>
   <g id="patch_11">
    <path d="M 349.795 173.325 
L 381.795 173.325 
L 381.795 162.125 
L 349.795 162.125 
z
" style="fill: #3274a1; stroke: #3f3f3f; stroke-width: 0.75; stroke-linejoin: miter"/>
   </g>
   <g id="text_12">
    <text style="font: 16px 'Calibri'; text-anchor: start" x="394.595" y="173.325" transform="rotate(-0 394.595 173.325)">SNS</text>
   </g>
   <g id="patch_12">
    <path d="M 349.795 195.37 
L 381.795 195.37 
L 381.795 184.17 
L 349.795 184.17 
z
" style="fill: #e1812c; stroke: #3f3f3f; stroke-width: 0.75; stroke-linejoin: miter"/>
   </g>
   <g id="text_13">
    <text style="font: 16px 'Calibri'; text-anchor: start" x="394.595" y="195.37" transform="rotate(-0 394.595 195.37)">Manual</text>
   </g>
  </g>
 </g>
 <defs>
  <clipPath id="p6a004d9e7d">
   <rect x="56.2575" y="7.2" width="271.0094" height="285.64"/>
  </clipPath>
 </defs>
</svg>
