<?xml version="1.0" encoding="utf-8" standalone="no"?>
<!DOCTYPE svg PUBLIC "-//W3C//DTD SVG 1.1//EN"
  "http://www.w3.org/Graphics/SVG/1.1/DTD/svg11.dtd">
<svg xmlns:xlink="http://www.w3.org/1999/xlink" width="894.788051pt" height="289.836909pt" viewBox="0 0 894.788051 289.836909" xmlns="http://www.w3.org/2000/svg" version="1.1">
 <metadata>
  <rdf:RDF xmlns:dc="http://purl.org/dc/elements/1.1/" xmlns:cc="http://creativecommons.org/ns#" xmlns:rdf="http://www.w3.org/1999/02/22-rdf-syntax-ns#">
   <cc:Work>
    <dc:type rdf:resource="http://purl.org/dc/dcmitype/StillImage"/>
    <dc:date>2023-11-13T12:01:31.832892</dc:date>
    <dc:format>image/svg+xml</dc:format>
    <dc:creator>
     <cc:Agent>
      <dc:title>Matplotlib v3.7.1, https://matplotlib.org/</dc:title>
     </cc:Agent>
    </dc:creator>
   </cc:Work>
  </rdf:RDF>
 </metadata>
 <defs>
  <style type="text/css">*{stroke-linejoin: round; stroke-linecap: butt}</style>
 </defs>
 <g id="figure_1">
  <g id="patch_1">
   <path d="M 0 289.836909 
L 894.788051 289.836909 
L 894.788051 0 
L 0 0 
z
" style="fill: #ffffff"/>
  </g>
  <g id="axes_1">
   <g id="patch_2">
    <path d="M 56.2575 244.126909 
L 248.505138 244.126909 
L 248.505138 24.0825 
L 56.2575 24.0825 
z
" style="fill: #ffffff"/>
   </g>
   <g id="patch_3">
    <path d="M 65.869882 244.126909 
L 104.319409 244.126909 
L 104.319409 104.416173 
L 65.869882 104.416173 
z
" clip-path="url(#p75a0589f46)" style="fill: #3274a1"/>
   </g>
   <g id="patch_4">
    <path d="M 0 0 
z
" clip-path="url(#p75a0589f46)" style="fill: #3274a1"/>
   </g>
   <g id="patch_5">
    <path d="M 0 0 
z
" clip-path="url(#p75a0589f46)" style="fill: #e1812c"/>
   </g>
   <g id="patch_6">
    <path d="M 200.443228 244.126909 
L 238.892756 244.126909 
L 238.892756 139.343857 
L 200.443228 139.343857 
z
" clip-path="url(#p75a0589f46)" style="fill: #e1812c"/>
   </g>
   <g id="PathCollection_1"/>
   <g id="PathCollection_2"/>
   <g id="matplotlib.axis_1">
    <g id="xtick_1">
     <g id="line2d_1">
      <defs>
       <path id="mb789ff3773" d="M 0 0 
L 0 3.5 
" style="stroke: #000000; stroke-width: 0.8"/>
      </defs>
      <g>
       <use xlink:href="#mb789ff3773" x="104.319409" y="244.126909" style="stroke: #000000; stroke-width: 0.8"/>
      </g>
     </g>
     <g id="text_1">
      <text style="font: 16px 'Calibri'; text-anchor: middle" x="104.319409" y="262.009409" transform="rotate(-0 104.319409 262.009409)">Manual</text>
     </g>
    </g>
    <g id="xtick_2">
     <g id="line2d_2">
      <g>
       <use xlink:href="#mb789ff3773" x="200.443228" y="244.126909" style="stroke: #000000; stroke-width: 0.8"/>
      </g>
     </g>
     <g id="text_2">
      <text style="font: 16px 'Calibri'; text-anchor: middle" x="200.443228" y="262.009409" transform="rotate(-0 200.443228 262.009409)">SNS</text>
     </g>
    </g>
    <g id="text_3">
     <text style="font: 16px 'Calibri'; text-anchor: middle" x="152.381319" y="279.791909" transform="rotate(-0 152.381319 279.791909)">Type of Control</text>
    </g>
   </g>
   <g id="matplotlib.axis_2">
    <g id="ytick_1">
     <g id="line2d_3">
      <defs>
       <path id="m0c7747ae05" d="M 0 0 
L -3.5 0 
" style="stroke: #000000; stroke-width: 0.8"/>
      </defs>
      <g>
       <use xlink:href="#m0c7747ae05" x="56.2575" y="244.126909" style="stroke: #000000; stroke-width: 0.8"/>
      </g>
     </g>
     <g id="text_4">
      <text style="font: 16px 'Calibri'; text-anchor: end" x="49.2575" y="249.568159" transform="rotate(-0 49.2575 249.568159)">0</text>
     </g>
    </g>
    <g id="ytick_2">
     <g id="line2d_4">
      <g>
       <use xlink:href="#m0c7747ae05" x="56.2575" y="202.213689" style="stroke: #000000; stroke-width: 0.8"/>
      </g>
     </g>
     <g id="text_5">
      <text style="font: 16px 'Calibri'; text-anchor: end" x="49.2575" y="207.654939" transform="rotate(-0 49.2575 207.654939)">20</text>
     </g>
    </g>
    <g id="ytick_3">
     <g id="line2d_5">
      <g>
       <use xlink:href="#m0c7747ae05" x="56.2575" y="160.300468" style="stroke: #000000; stroke-width: 0.8"/>
      </g>
     </g>
     <g id="text_6">
      <text style="font: 16px 'Calibri'; text-anchor: end" x="49.2575" y="165.741718" transform="rotate(-0 49.2575 165.741718)">40</text>
     </g>
    </g>
    <g id="ytick_4">
     <g id="line2d_6">
      <g>
       <use xlink:href="#m0c7747ae05" x="56.2575" y="118.387247" style="stroke: #000000; stroke-width: 0.8"/>
      </g>
     </g>
     <g id="text_7">
      <text style="font: 16px 'Calibri'; text-anchor: end" x="49.2575" y="123.828497" transform="rotate(-0 49.2575 123.828497)">60</text>
     </g>
    </g>
    <g id="ytick_5">
     <g id="line2d_7">
      <g>
       <use xlink:href="#m0c7747ae05" x="56.2575" y="76.474026" style="stroke: #000000; stroke-width: 0.8"/>
      </g>
     </g>
     <g id="text_8">
      <text style="font: 16px 'Calibri'; text-anchor: end" x="49.2575" y="81.915276" transform="rotate(-0 49.2575 81.915276)">80</text>
     </g>
    </g>
    <g id="ytick_6">
     <g id="line2d_8">
      <g>
       <use xlink:href="#m0c7747ae05" x="56.2575" y="34.560805" style="stroke: #000000; stroke-width: 0.8"/>
      </g>
     </g>
     <g id="text_9">
      <text style="font: 16px 'Calibri'; text-anchor: end" x="49.2575" y="40.002055" transform="rotate(-0 49.2575 40.002055)">100</text>
     </g>
    </g>
    <g id="text_10">
     <text style="font: 16px 'Calibri'; text-anchor: middle" x="18.075" y="134.104705" transform="rotate(-90 18.075 134.104705)">Success Rate Percentage</text>
    </g>
   </g>
   <g id="line2d_9">
    <path d="M 85.094646 174.271541 
L 85.094646 34.560805 
" clip-path="url(#p75a0589f46)" style="fill: none; stroke: #424242; stroke-width: 2.7; stroke-linecap: square"/>
   </g>
   <g id="line2d_10">
    <path clip-path="url(#p75a0589f46)" style="fill: none; stroke: #424242; stroke-width: 2.7; stroke-linecap: square"/>
   </g>
   <g id="line2d_11">
    <path clip-path="url(#p75a0589f46)" style="fill: none; stroke: #424242; stroke-width: 2.7; stroke-linecap: square"/>
   </g>
   <g id="line2d_12">
    <path d="M 219.667992 199.840381 
L 219.667992 78.847334 
" clip-path="url(#p75a0589f46)" style="fill: none; stroke: #424242; stroke-width: 2.7; stroke-linecap: square"/>
   </g>
   <g id="patch_7">
    <path d="M 56.2575 244.126909 
L 56.2575 24.0825 
" style="fill: none; stroke: #000000; stroke-width: 0.8; stroke-linejoin: miter; stroke-linecap: square"/>
   </g>
   <g id="patch_8">
    <path d="M 56.2575 244.126909 
L 248.505138 244.126909 
" style="fill: none; stroke: #000000; stroke-width: 0.8; stroke-linejoin: miter; stroke-linecap: square"/>
   </g>
   <g id="PathCollection_3">
    <defs>
     <path id="C0_0_4d15c25321" d="M 0 4 
C 1.060812 4 2.078319 3.578535 2.828427 2.828427 
C 3.578535 2.078319 4 1.060812 4 -0 
C 4 -1.060812 3.578535 -2.078319 2.828427 -2.828427 
C 2.078319 -3.578535 1.060812 -4 0 -4 
C -1.060812 -4 -2.078319 -3.578535 -2.828427 -2.828427 
C -3.578535 -2.078319 -4 -1.060812 -4 0 
C -4 1.060812 -3.578535 2.078319 -2.828427 2.828427 
C -2.078319 3.578535 -1.060812 4 0 4 
z
"/>
    </defs>
    <g clip-path="url(#p75a0589f46)">
     <use xlink:href="#C0_0_4d15c25321" x="83.95113" y="34.560805" style="fill: #23262a"/>
    </g>
    <g clip-path="url(#p75a0589f46)">
     <use xlink:href="#C0_0_4d15c25321" x="88.754117" y="244.126909" style="fill: #23262a"/>
    </g>
    <g clip-path="url(#p75a0589f46)">
     <use xlink:href="#C0_0_4d15c25321" x="93.507917" y="34.560805" style="fill: #23262a"/>
    </g>
   </g>
   <g id="PathCollection_4"/>
   <g id="PathCollection_5"/>
   <g id="PathCollection_6">
    <defs>
     <path id="C1_0_11ee78fa2c" d="M 0 4 
C 1.060812 4 2.078319 3.578535 2.828427 2.828427 
C 3.578535 2.078319 4 1.060812 4 -0 
C 4 -1.060812 3.578535 -2.078319 2.828427 -2.828427 
C 2.078319 -3.578535 1.060812 -4 0 -4 
C -1.060812 -4 -2.078319 -3.578535 -2.828427 -2.828427 
C -3.578535 -2.078319 -4 -1.060812 -4 0 
C -4 1.060812 -3.578535 2.078319 -2.828427 2.828427 
C -2.078319 3.578535 -1.060812 4 0 4 
z
"/>
    </defs>
    <g clip-path="url(#p75a0589f46)">
     <use xlink:href="#C1_0_11ee78fa2c" x="213.516988" y="139.343857" style="fill: #1f77b4"/>
    </g>
    <g clip-path="url(#p75a0589f46)">
     <use xlink:href="#C1_0_11ee78fa2c" x="223.97993" y="244.126909" style="fill: #1f77b4"/>
    </g>
    <g clip-path="url(#p75a0589f46)">
     <use xlink:href="#C1_0_11ee78fa2c" x="217.897734" y="34.560805" style="fill: #1f77b4"/>
    </g>
   </g>
   <g id="text_11">
    <text style="font: 16px 'Calibri'; text-anchor: middle" x="152.381319" y="18.0825" transform="rotate(-0 152.381319 18.0825)">Participant Number = 1</text>
   </g>
  </g>
  <g id="axes_2">
   <g id="patch_9">
    <path d="M 269.285138 244.126909 
L 461.532776 244.126909 
L 461.532776 24.0825 
L 269.285138 24.0825 
z
" style="fill: #ffffff"/>
   </g>
   <g id="patch_10">
    <path d="M 278.89752 244.126909 
L 317.347047 244.126909 
L 317.347047 104.416173 
L 278.89752 104.416173 
z
" clip-path="url(#pe4895a9c88)" style="fill: #3274a1"/>
   </g>
   <g id="patch_11">
    <path d="M 0 0 
z
" clip-path="url(#pe4895a9c88)" style="fill: #3274a1"/>
   </g>
   <g id="patch_12">
    <path d="M 0 0 
z
" clip-path="url(#pe4895a9c88)" style="fill: #e1812c"/>
   </g>
   <g id="patch_13">
    <path d="M 413.470866 244.126909 
L 451.920394 244.126909 
L 451.920394 127.701296 
L 413.470866 127.701296 
z
" clip-path="url(#pe4895a9c88)" style="fill: #e1812c"/>
   </g>
   <g id="PathCollection_7"/>
   <g id="PathCollection_8"/>
   <g id="matplotlib.axis_3">
    <g id="xtick_3">
     <g id="line2d_13">
      <g>
       <use xlink:href="#mb789ff3773" x="317.347047" y="244.126909" style="stroke: #000000; stroke-width: 0.8"/>
      </g>
     </g>
     <g id="text_12">
      <text style="font: 16px 'Calibri'; text-anchor: middle" x="317.347047" y="262.009409" transform="rotate(-0 317.347047 262.009409)">Manual</text>
     </g>
    </g>
    <g id="xtick_4">
     <g id="line2d_14">
      <g>
       <use xlink:href="#mb789ff3773" x="413.470866" y="244.126909" style="stroke: #000000; stroke-width: 0.8"/>
      </g>
     </g>
     <g id="text_13">
      <text style="font: 16px 'Calibri'; text-anchor: middle" x="413.470866" y="262.009409" transform="rotate(-0 413.470866 262.009409)">SNS</text>
     </g>
    </g>
    <g id="text_14">
     <text style="font: 16px 'Calibri'; text-anchor: middle" x="365.408957" y="279.791909" transform="rotate(-0 365.408957 279.791909)">Type of Control</text>
    </g>
   </g>
   <g id="matplotlib.axis_4">
    <g id="ytick_7">
     <g id="line2d_15">
      <g>
       <use xlink:href="#m0c7747ae05" x="269.285138" y="244.126909" style="stroke: #000000; stroke-width: 0.8"/>
      </g>
     </g>
    </g>
    <g id="ytick_8">
     <g id="line2d_16">
      <g>
       <use xlink:href="#m0c7747ae05" x="269.285138" y="202.213689" style="stroke: #000000; stroke-width: 0.8"/>
      </g>
     </g>
    </g>
    <g id="ytick_9">
     <g id="line2d_17">
      <g>
       <use xlink:href="#m0c7747ae05" x="269.285138" y="160.300468" style="stroke: #000000; stroke-width: 0.8"/>
      </g>
     </g>
    </g>
    <g id="ytick_10">
     <g id="line2d_18">
      <g>
       <use xlink:href="#m0c7747ae05" x="269.285138" y="118.387247" style="stroke: #000000; stroke-width: 0.8"/>
      </g>
     </g>
    </g>
    <g id="ytick_11">
     <g id="line2d_19">
      <g>
       <use xlink:href="#m0c7747ae05" x="269.285138" y="76.474026" style="stroke: #000000; stroke-width: 0.8"/>
      </g>
     </g>
    </g>
    <g id="ytick_12">
     <g id="line2d_20">
      <g>
       <use xlink:href="#m0c7747ae05" x="269.285138" y="34.560805" style="stroke: #000000; stroke-width: 0.8"/>
      </g>
     </g>
    </g>
   </g>
   <g id="line2d_21">
    <path d="M 298.122283 144.747189 
L 298.122283 64.085158 
" clip-path="url(#pe4895a9c88)" style="fill: none; stroke: #424242; stroke-width: 2.7; stroke-linecap: square"/>
   </g>
   <g id="line2d_22">
    <path clip-path="url(#pe4895a9c88)" style="fill: none; stroke: #424242; stroke-width: 2.7; stroke-linecap: square"/>
   </g>
   <g id="line2d_23">
    <path clip-path="url(#pe4895a9c88)" style="fill: none; stroke: #424242; stroke-width: 2.7; stroke-linecap: square"/>
   </g>
   <g id="line2d_24">
    <path d="M 432.69563 189.30794 
L 432.69563 66.094652 
" clip-path="url(#pe4895a9c88)" style="fill: none; stroke: #424242; stroke-width: 2.7; stroke-linecap: square"/>
   </g>
   <g id="patch_14">
    <path d="M 269.285138 244.126909 
L 269.285138 24.0825 
" style="fill: none; stroke: #000000; stroke-width: 0.8; stroke-linejoin: miter; stroke-linecap: square"/>
   </g>
   <g id="patch_15">
    <path d="M 269.285138 244.126909 
L 461.532776 244.126909 
" style="fill: none; stroke: #000000; stroke-width: 0.8; stroke-linejoin: miter; stroke-linecap: square"/>
   </g>
   <g id="PathCollection_9">
    <defs>
     <path id="C2_0_c2e5d990b0" d="M 0 4 
C 1.060812 4 2.078319 3.578535 2.828427 2.828427 
C 3.578535 2.078319 4 1.060812 4 -0 
C 4 -1.060812 3.578535 -2.078319 2.828427 -2.828427 
C 2.078319 -3.578535 1.060812 -4 0 -4 
C -1.060812 -4 -2.078319 -3.578535 -2.828427 -2.828427 
C -3.578535 -2.078319 -4 -1.060812 -4 0 
C -4 1.060812 -3.578535 2.078319 -2.828427 2.828427 
C -2.078319 3.578535 -1.060812 4 0 4 
z
"/>
    </defs>
    <g clip-path="url(#pe4895a9c88)">
     <use xlink:href="#C2_0_c2e5d990b0" x="288.5285" y="174.271541" style="fill: #23262a"/>
    </g>
    <g clip-path="url(#pe4895a9c88)">
     <use xlink:href="#C2_0_c2e5d990b0" x="295.267616" y="104.416173" style="fill: #23262a"/>
    </g>
    <g clip-path="url(#pe4895a9c88)">
     <use xlink:href="#C2_0_c2e5d990b0" x="302.046785" y="34.560805" style="fill: #23262a"/>
    </g>
   </g>
   <g id="PathCollection_10"/>
   <g id="PathCollection_11"/>
   <g id="PathCollection_12">
    <defs>
     <path id="C3_0_bfbbc5792e" d="M 0 4 
C 1.060812 4 2.078319 3.578535 2.828427 2.828427 
C 3.578535 2.078319 4 1.060812 4 -0 
C 4 -1.060812 3.578535 -2.078319 2.828427 -2.828427 
C 2.078319 -3.578535 1.060812 -4 0 -4 
C -1.060812 -4 -2.078319 -3.578535 -2.828427 -2.828427 
C -3.578535 -2.078319 -4 -1.060812 -4 0 
C -4 1.060812 -3.578535 2.078319 -2.828427 2.828427 
C -2.078319 3.578535 -1.060812 4 0 4 
z
"/>
    </defs>
    <g clip-path="url(#pe4895a9c88)">
     <use xlink:href="#C3_0_bfbbc5792e" x="440.00756" y="34.560805" style="fill: #1f77b4"/>
    </g>
    <g clip-path="url(#pe4895a9c88)">
     <use xlink:href="#C3_0_bfbbc5792e" x="442.072407" y="244.126909" style="fill: #1f77b4"/>
    </g>
    <g clip-path="url(#pe4895a9c88)">
     <use xlink:href="#C3_0_bfbbc5792e" x="433.258496" y="104.416173" style="fill: #1f77b4"/>
    </g>
   </g>
   <g id="text_15">
    <text style="font: 16px 'Calibri'; text-anchor: middle" x="365.408957" y="18.0825" transform="rotate(-0 365.408957 18.0825)">Participant Number = 2</text>
   </g>
  </g>
  <g id="axes_3">
   <g id="patch_16">
    <path d="M 482.312776 244.126909 
L 674.560413 244.126909 
L 674.560413 24.0825 
L 482.312776 24.0825 
z
" style="fill: #ffffff"/>
   </g>
   <g id="patch_17">
    <path d="M 491.925157 244.126909 
L 530.374685 244.126909 
L 530.374685 127.701296 
L 491.925157 127.701296 
z
" clip-path="url(#pbdbe4a1cba)" style="fill: #3274a1"/>
   </g>
   <g id="patch_18">
    <path d="M 0 0 
z
" clip-path="url(#pbdbe4a1cba)" style="fill: #3274a1"/>
   </g>
   <g id="patch_19">
    <path d="M 0 0 
z
" clip-path="url(#pbdbe4a1cba)" style="fill: #e1812c"/>
   </g>
   <g id="patch_20">
    <path d="M 626.498504 244.126909 
L 664.948031 244.126909 
L 664.948031 220.841787 
L 626.498504 220.841787 
z
" clip-path="url(#pbdbe4a1cba)" style="fill: #e1812c"/>
   </g>
   <g id="PathCollection_13"/>
   <g id="PathCollection_14"/>
   <g id="matplotlib.axis_5">
    <g id="xtick_5">
     <g id="line2d_25">
      <g>
       <use xlink:href="#mb789ff3773" x="530.374685" y="244.126909" style="stroke: #000000; stroke-width: 0.8"/>
      </g>
     </g>
     <g id="text_16">
      <text style="font: 16px 'Calibri'; text-anchor: middle" x="530.374685" y="262.009409" transform="rotate(-0 530.374685 262.009409)">Manual</text>
     </g>
    </g>
    <g id="xtick_6">
     <g id="line2d_26">
      <g>
       <use xlink:href="#mb789ff3773" x="626.498504" y="244.126909" style="stroke: #000000; stroke-width: 0.8"/>
      </g>
     </g>
     <g id="text_17">
      <text style="font: 16px 'Calibri'; text-anchor: middle" x="626.498504" y="262.009409" transform="rotate(-0 626.498504 262.009409)">SNS</text>
     </g>
    </g>
    <g id="text_18">
     <text style="font: 16px 'Calibri'; text-anchor: middle" x="578.436594" y="279.791909" transform="rotate(-0 578.436594 279.791909)">Type of Control</text>
    </g>
   </g>
   <g id="matplotlib.axis_6">
    <g id="ytick_13">
     <g id="line2d_27">
      <g>
       <use xlink:href="#m0c7747ae05" x="482.312776" y="244.126909" style="stroke: #000000; stroke-width: 0.8"/>
      </g>
     </g>
    </g>
    <g id="ytick_14">
     <g id="line2d_28">
      <g>
       <use xlink:href="#m0c7747ae05" x="482.312776" y="202.213689" style="stroke: #000000; stroke-width: 0.8"/>
      </g>
     </g>
    </g>
    <g id="ytick_15">
     <g id="line2d_29">
      <g>
       <use xlink:href="#m0c7747ae05" x="482.312776" y="160.300468" style="stroke: #000000; stroke-width: 0.8"/>
      </g>
     </g>
    </g>
    <g id="ytick_16">
     <g id="line2d_30">
      <g>
       <use xlink:href="#m0c7747ae05" x="482.312776" y="118.387247" style="stroke: #000000; stroke-width: 0.8"/>
      </g>
     </g>
    </g>
    <g id="ytick_17">
     <g id="line2d_31">
      <g>
       <use xlink:href="#m0c7747ae05" x="482.312776" y="76.474026" style="stroke: #000000; stroke-width: 0.8"/>
      </g>
     </g>
    </g>
    <g id="ytick_18">
     <g id="line2d_32">
      <g>
       <use xlink:href="#m0c7747ae05" x="482.312776" y="34.560805" style="stroke: #000000; stroke-width: 0.8"/>
      </g>
     </g>
    </g>
   </g>
   <g id="line2d_33">
    <path d="M 511.149921 189.30794 
L 511.149921 66.094652 
" clip-path="url(#pbdbe4a1cba)" style="fill: none; stroke: #424242; stroke-width: 2.7; stroke-linecap: square"/>
   </g>
   <g id="line2d_34">
    <path clip-path="url(#pbdbe4a1cba)" style="fill: none; stroke: #424242; stroke-width: 2.7; stroke-linecap: square"/>
   </g>
   <g id="line2d_35">
    <path clip-path="url(#pbdbe4a1cba)" style="fill: none; stroke: #424242; stroke-width: 2.7; stroke-linecap: square"/>
   </g>
   <g id="line2d_36">
    <path d="M 645.723268 244.126909 
L 645.723268 197.556664 
" clip-path="url(#pbdbe4a1cba)" style="fill: none; stroke: #424242; stroke-width: 2.7; stroke-linecap: square"/>
   </g>
   <g id="patch_21">
    <path d="M 482.312776 244.126909 
L 482.312776 24.0825 
" style="fill: none; stroke: #000000; stroke-width: 0.8; stroke-linejoin: miter; stroke-linecap: square"/>
   </g>
   <g id="patch_22">
    <path d="M 482.312776 244.126909 
L 674.560413 244.126909 
" style="fill: none; stroke: #000000; stroke-width: 0.8; stroke-linejoin: miter; stroke-linecap: square"/>
   </g>
   <g id="PathCollection_15">
    <defs>
     <path id="C4_0_4089d647d8" d="M 0 4 
C 1.060812 4 2.078319 3.578535 2.828427 2.828427 
C 3.578535 2.078319 4 1.060812 4 -0 
C 4 -1.060812 3.578535 -2.078319 2.828427 -2.828427 
C 2.078319 -3.578535 1.060812 -4 0 -4 
C -1.060812 -4 -2.078319 -3.578535 -2.828427 -2.828427 
C -3.578535 -2.078319 -4 -1.060812 -4 0 
C -4 1.060812 -3.578535 2.078319 -2.828427 2.828427 
C -2.078319 3.578535 -1.060812 4 0 4 
z
"/>
    </defs>
    <g clip-path="url(#pbdbe4a1cba)">
     <use xlink:href="#C4_0_4089d647d8" x="510.320589" y="104.416173" style="fill: #23262a"/>
    </g>
    <g clip-path="url(#pbdbe4a1cba)">
     <use xlink:href="#C4_0_4089d647d8" x="515.715794" y="244.126909" style="fill: #23262a"/>
    </g>
    <g clip-path="url(#pbdbe4a1cba)">
     <use xlink:href="#C4_0_4089d647d8" x="514.035516" y="34.560805" style="fill: #23262a"/>
    </g>
   </g>
   <g id="PathCollection_16"/>
   <g id="PathCollection_17"/>
   <g id="PathCollection_18">
    <defs>
     <path id="C5_0_d5d74baa5b" d="M 0 4 
C 1.060812 4 2.078319 3.578535 2.828427 2.828427 
C 3.578535 2.078319 4 1.060812 4 -0 
C 4 -1.060812 3.578535 -2.078319 2.828427 -2.828427 
C 2.078319 -3.578535 1.060812 -4 0 -4 
C -1.060812 -4 -2.078319 -3.578535 -2.828427 -2.828427 
C -3.578535 -2.078319 -4 -1.060812 -4 0 
C -4 1.060812 -3.578535 2.078319 -2.828427 2.828427 
C -2.078319 3.578535 -1.060812 4 0 4 
z
"/>
    </defs>
    <g clip-path="url(#pbdbe4a1cba)">
     <use xlink:href="#C5_0_d5d74baa5b" x="649.056266" y="174.271541" style="fill: #1f77b4"/>
    </g>
    <g clip-path="url(#pbdbe4a1cba)">
     <use xlink:href="#C5_0_d5d74baa5b" x="643.081459" y="244.126909" style="fill: #1f77b4"/>
    </g>
    <g clip-path="url(#pbdbe4a1cba)">
     <use xlink:href="#C5_0_d5d74baa5b" x="645.837091" y="244.126909" style="fill: #1f77b4"/>
    </g>
   </g>
   <g id="text_19">
    <text style="font: 16px 'Calibri'; text-anchor: middle" x="578.436594" y="18.0825" transform="rotate(-0 578.436594 18.0825)">Participant Number = 3</text>
   </g>
  </g>
  <g id="axes_4">
   <g id="patch_23">
    <path d="M 695.340413 244.126909 
L 887.588051 244.126909 
L 887.588051 24.0825 
L 695.340413 24.0825 
z
" style="fill: #ffffff"/>
   </g>
   <g id="patch_24">
    <path d="M 704.952795 244.126909 
L 743.402323 244.126909 
L 743.402323 150.986419 
L 704.952795 150.986419 
z
" clip-path="url(#pbfae2724a9)" style="fill: #3274a1"/>
   </g>
   <g id="patch_25">
    <path d="M 0 0 
z
" clip-path="url(#pbfae2724a9)" style="fill: #3274a1"/>
   </g>
   <g id="patch_26">
    <path d="M 0 0 
z
" clip-path="url(#pbfae2724a9)" style="fill: #e1812c"/>
   </g>
   <g id="patch_27">
    <path d="M 839.526142 244.126909 
L 877.975669 244.126909 
L 877.975669 127.701296 
L 839.526142 127.701296 
z
" clip-path="url(#pbfae2724a9)" style="fill: #e1812c"/>
   </g>
   <g id="PathCollection_19"/>
   <g id="PathCollection_20"/>
   <g id="matplotlib.axis_7">
    <g id="xtick_7">
     <g id="line2d_37">
      <g>
       <use xlink:href="#mb789ff3773" x="743.402323" y="244.126909" style="stroke: #000000; stroke-width: 0.8"/>
      </g>
     </g>
     <g id="text_20">
      <text style="font: 16px 'Calibri'; text-anchor: middle" x="743.402323" y="262.009409" transform="rotate(-0 743.402323 262.009409)">Manual</text>
     </g>
    </g>
    <g id="xtick_8">
     <g id="line2d_38">
      <g>
       <use xlink:href="#mb789ff3773" x="839.526142" y="244.126909" style="stroke: #000000; stroke-width: 0.8"/>
      </g>
     </g>
     <g id="text_21">
      <text style="font: 16px 'Calibri'; text-anchor: middle" x="839.526142" y="262.009409" transform="rotate(-0 839.526142 262.009409)">SNS</text>
     </g>
    </g>
    <g id="text_22">
     <text style="font: 16px 'Calibri'; text-anchor: middle" x="791.464232" y="279.791909" transform="rotate(-0 791.464232 279.791909)">Type of Control</text>
    </g>
   </g>
   <g id="matplotlib.axis_8">
    <g id="ytick_19">
     <g id="line2d_39">
      <g>
       <use xlink:href="#m0c7747ae05" x="695.340413" y="244.126909" style="stroke: #000000; stroke-width: 0.8"/>
      </g>
     </g>
    </g>
    <g id="ytick_20">
     <g id="line2d_40">
      <g>
       <use xlink:href="#m0c7747ae05" x="695.340413" y="202.213689" style="stroke: #000000; stroke-width: 0.8"/>
      </g>
     </g>
    </g>
    <g id="ytick_21">
     <g id="line2d_41">
      <g>
       <use xlink:href="#m0c7747ae05" x="695.340413" y="160.300468" style="stroke: #000000; stroke-width: 0.8"/>
      </g>
     </g>
    </g>
    <g id="ytick_22">
     <g id="line2d_42">
      <g>
       <use xlink:href="#m0c7747ae05" x="695.340413" y="118.387247" style="stroke: #000000; stroke-width: 0.8"/>
      </g>
     </g>
    </g>
    <g id="ytick_23">
     <g id="line2d_43">
      <g>
       <use xlink:href="#m0c7747ae05" x="695.340413" y="76.474026" style="stroke: #000000; stroke-width: 0.8"/>
      </g>
     </g>
    </g>
    <g id="ytick_24">
     <g id="line2d_44">
      <g>
       <use xlink:href="#m0c7747ae05" x="695.340413" y="34.560805" style="stroke: #000000; stroke-width: 0.8"/>
      </g>
     </g>
    </g>
   </g>
   <g id="line2d_45">
    <path d="M 724.177559 212.593063 
L 724.177559 89.379775 
" clip-path="url(#pbfae2724a9)" style="fill: none; stroke: #424242; stroke-width: 2.7; stroke-linecap: square"/>
   </g>
   <g id="line2d_46">
    <path clip-path="url(#pbfae2724a9)" style="fill: none; stroke: #424242; stroke-width: 2.7; stroke-linecap: square"/>
   </g>
   <g id="line2d_47">
    <path clip-path="url(#pbfae2724a9)" style="fill: none; stroke: #424242; stroke-width: 2.7; stroke-linecap: square"/>
   </g>
   <g id="line2d_48">
    <path d="M 858.750906 189.30794 
L 858.750906 66.094652 
" clip-path="url(#pbfae2724a9)" style="fill: none; stroke: #424242; stroke-width: 2.7; stroke-linecap: square"/>
   </g>
   <g id="patch_28">
    <path d="M 695.340413 244.126909 
L 695.340413 24.0825 
" style="fill: none; stroke: #000000; stroke-width: 0.8; stroke-linejoin: miter; stroke-linecap: square"/>
   </g>
   <g id="patch_29">
    <path d="M 695.340413 244.126909 
L 887.588051 244.126909 
" style="fill: none; stroke: #000000; stroke-width: 0.8; stroke-linejoin: miter; stroke-linecap: square"/>
   </g>
   <g id="PathCollection_21">
    <defs>
     <path id="C6_0_bb49c18be7" d="M 0 4 
C 1.060812 4 2.078319 3.578535 2.828427 2.828427 
C 3.578535 2.078319 4 1.060812 4 -0 
C 4 -1.060812 3.578535 -2.078319 2.828427 -2.828427 
C 2.078319 -3.578535 1.060812 -4 0 -4 
C -1.060812 -4 -2.078319 -3.578535 -2.828427 -2.828427 
C -3.578535 -2.078319 -4 -1.060812 -4 0 
C -4 1.060812 -3.578535 2.078319 -2.828427 2.828427 
C -2.078319 3.578535 -1.060812 4 0 4 
z
"/>
    </defs>
    <g clip-path="url(#pbfae2724a9)">
     <use xlink:href="#C6_0_bb49c18be7" x="733.057068" y="174.271541" style="fill: #23262a"/>
    </g>
    <g clip-path="url(#pbfae2724a9)">
     <use xlink:href="#C6_0_bb49c18be7" x="720.325576" y="34.560805" style="fill: #23262a"/>
    </g>
    <g clip-path="url(#pbfae2724a9)">
     <use xlink:href="#C6_0_bb49c18be7" x="716.814837" y="244.126909" style="fill: #23262a"/>
    </g>
   </g>
   <g id="PathCollection_22"/>
   <g id="PathCollection_23"/>
   <g id="PathCollection_24">
    <defs>
     <path id="C7_0_2f795e7efc" d="M 0 4 
C 1.060812 4 2.078319 3.578535 2.828427 2.828427 
C 3.578535 2.078319 4 1.060812 4 -0 
C 4 -1.060812 3.578535 -2.078319 2.828427 -2.828427 
C 2.078319 -3.578535 1.060812 -4 0 -4 
C -1.060812 -4 -2.078319 -3.578535 -2.828427 -2.828427 
C -3.578535 -2.078319 -4 -1.060812 -4 0 
C -4 1.060812 -3.578535 2.078319 -2.828427 2.828427 
C -2.078319 3.578535 -1.060812 4 0 4 
z
"/>
    </defs>
    <g clip-path="url(#pbfae2724a9)">
     <use xlink:href="#C7_0_2f795e7efc" x="857.009883" y="104.416173" style="fill: #1f77b4"/>
    </g>
    <g clip-path="url(#pbfae2724a9)">
     <use xlink:href="#C7_0_2f795e7efc" x="862.742436" y="34.560805" style="fill: #1f77b4"/>
    </g>
    <g clip-path="url(#pbfae2724a9)">
     <use xlink:href="#C7_0_2f795e7efc" x="860.685437" y="244.126909" style="fill: #1f77b4"/>
    </g>
   </g>
   <g id="text_23">
    <text style="font: 16px 'Calibri'; text-anchor: middle" x="791.464232" y="18.0825" transform="rotate(-0 791.464232 18.0825)">Participant Number = 4</text>
   </g>
  </g>
 </g>
 <defs>
  <clipPath id="p75a0589f46">
   <rect x="56.2575" y="24.0825" width="192.247638" height="220.044409"/>
  </clipPath>
  <clipPath id="pe4895a9c88">
   <rect x="269.285138" y="24.0825" width="192.247638" height="220.044409"/>
  </clipPath>
  <clipPath id="pbdbe4a1cba">
   <rect x="482.312776" y="24.0825" width="192.247638" height="220.044409"/>
  </clipPath>
  <clipPath id="pbfae2724a9">
   <rect x="695.340413" y="24.0825" width="192.247638" height="220.044409"/>
  </clipPath>
 </defs>
</svg>
