<?xml version="1.0" encoding="utf-8" standalone="no"?>
<!DOCTYPE svg PUBLIC "-//W3C//DTD SVG 1.1//EN"
  "http://www.w3.org/Graphics/SVG/1.1/DTD/svg11.dtd">
<svg xmlns:xlink="http://www.w3.org/1999/xlink" width="1932.718602pt" height="602.358819pt" viewBox="0 0 1932.718602 602.358819" xmlns="http://www.w3.org/2000/svg" version="1.1">
 <metadata>
  <rdf:RDF xmlns:dc="http://purl.org/dc/elements/1.1/" xmlns:cc="http://creativecommons.org/ns#" xmlns:rdf="http://www.w3.org/1999/02/22-rdf-syntax-ns#">
   <cc:Work>
    <dc:type rdf:resource="http://purl.org/dc/dcmitype/StillImage"/>
    <dc:date>2023-08-30T16:16:28.241501</dc:date>
    <dc:format>image/svg+xml</dc:format>
    <dc:creator>
     <cc:Agent>
      <dc:title>Matplotlib v3.7.1, https://matplotlib.org/</dc:title>
     </cc:Agent>
    </dc:creator>
   </cc:Work>
  </rdf:RDF>
 </metadata>
 <defs>
  <style type="text/css">*{stroke-linejoin: round; stroke-linecap: butt}</style>
 </defs>
 <g id="figure_1">
  <g id="patch_1">
   <path d="M 0 602.358819 
L 1932.718602 602.358819 
L 1932.718602 0 
L 0 0 
z
" style="fill: #ffffff"/>
  </g>
  <g id="axes_1">
   <g id="patch_2">
    <path d="M 56.2575 556.688819 
L 1783.736191 556.688819 
L 1783.736191 7.2 
L 56.2575 7.2 
z
" style="fill: #ffffff"/>
   </g>
   <g id="patch_3">
    <path d="M 113.840123 556.688819 
L 344.170615 556.688819 
L 344.170615 251.417253 
L 113.840123 251.417253 
z
" clip-path="url(#p369ab28550)" style="fill: #3274a1"/>
   </g>
   <g id="patch_4">
    <path d="M 689.666353 556.688819 
L 919.996846 556.688819 
L 919.996846 469.468371 
L 689.666353 469.468371 
z
" clip-path="url(#p369ab28550)" style="fill: #3274a1"/>
   </g>
   <g id="patch_5">
    <path d="M 1265.492584 556.688819 
L 1495.823076 556.688819 
L 1495.823076 33.366134 
L 1265.492584 33.366134 
z
" clip-path="url(#p369ab28550)" style="fill: #3274a1"/>
   </g>
   <g id="patch_6">
    <path d="M 344.170615 556.688819 
L 574.501107 556.688819 
L 574.501107 273.222365 
L 344.170615 273.222365 
z
" clip-path="url(#p369ab28550)" style="fill: #e1812c"/>
   </g>
   <g id="patch_7">
    <path d="M 919.996846 556.688819 
L 1150.327338 556.688819 
L 1150.327338 556.688819 
L 919.996846 556.688819 
z
" clip-path="url(#p369ab28550)" style="fill: #e1812c"/>
   </g>
   <g id="patch_8">
    <path d="M 1495.823076 556.688819 
L 1726.153568 556.688819 
L 1726.153568 164.196805 
L 1495.823076 164.196805 
z
" clip-path="url(#p369ab28550)" style="fill: #e1812c"/>
   </g>
   <g id="PathCollection_1"/>
   <g id="PathCollection_2"/>
   <g id="matplotlib.axis_1">
    <g id="xtick_1">
     <g id="line2d_1">
      <defs>
       <path id="m40d6909969" d="M 0 0 
L 0 3.5 
" style="stroke: #000000; stroke-width: 0.8"/>
      </defs>
      <g>
       <use xlink:href="#m40d6909969" x="344.170615" y="556.688819" style="stroke: #000000; stroke-width: 0.8"/>
      </g>
     </g>
     <g id="text_1">
      <text style="font: 16px 'Calibri'; text-anchor: middle" x="344.170615" y="574.571319" transform="rotate(-0 344.170615 574.571319)">breakable</text>
     </g>
    </g>
    <g id="xtick_2">
     <g id="line2d_2">
      <g>
       <use xlink:href="#m40d6909969" x="919.996846" y="556.688819" style="stroke: #000000; stroke-width: 0.8"/>
      </g>
     </g>
     <g id="text_2">
      <text style="font: 16px 'Calibri'; text-anchor: middle" x="919.996846" y="574.571319" transform="rotate(-0 919.996846 574.571319)">fixed</text>
     </g>
    </g>
    <g id="xtick_3">
     <g id="line2d_3">
      <g>
       <use xlink:href="#m40d6909969" x="1495.823076" y="556.688819" style="stroke: #000000; stroke-width: 0.8"/>
      </g>
     </g>
     <g id="text_3">
      <text style="font: 16px 'Calibri'; text-anchor: middle" x="1495.823076" y="574.571319" transform="rotate(-0 1495.823076 574.571319)">graspable</text>
     </g>
    </g>
    <g id="text_4">
     <text style="font: 16px 'Calibri'; text-anchor: middle" x="919.996846" y="592.306319" transform="rotate(-0 919.996846 592.306319)">Object Type</text>
    </g>
   </g>
   <g id="matplotlib.axis_2">
    <g id="ytick_1">
     <g id="line2d_4">
      <defs>
       <path id="md44a5d331f" d="M 0 0 
L -3.5 0 
" style="stroke: #000000; stroke-width: 0.8"/>
      </defs>
      <g>
       <use xlink:href="#md44a5d331f" x="56.2575" y="556.688819" style="stroke: #000000; stroke-width: 0.8"/>
      </g>
     </g>
     <g id="text_5">
      <text style="font: 16px 'Calibri'; text-anchor: end" x="49.2575" y="562.130069" transform="rotate(-0 49.2575 562.130069)">0</text>
     </g>
    </g>
    <g id="ytick_2">
     <g id="line2d_5">
      <g>
       <use xlink:href="#md44a5d331f" x="56.2575" y="452.024282" style="stroke: #000000; stroke-width: 0.8"/>
      </g>
     </g>
     <g id="text_6">
      <text style="font: 16px 'Calibri'; text-anchor: end" x="49.2575" y="457.465532" transform="rotate(-0 49.2575 457.465532)">20</text>
     </g>
    </g>
    <g id="ytick_3">
     <g id="line2d_6">
      <g>
       <use xlink:href="#md44a5d331f" x="56.2575" y="347.359745" style="stroke: #000000; stroke-width: 0.8"/>
      </g>
     </g>
     <g id="text_7">
      <text style="font: 16px 'Calibri'; text-anchor: end" x="49.2575" y="352.800995" transform="rotate(-0 49.2575 352.800995)">40</text>
     </g>
    </g>
    <g id="ytick_4">
     <g id="line2d_7">
      <g>
       <use xlink:href="#md44a5d331f" x="56.2575" y="242.695208" style="stroke: #000000; stroke-width: 0.8"/>
      </g>
     </g>
     <g id="text_8">
      <text style="font: 16px 'Calibri'; text-anchor: end" x="49.2575" y="248.136458" transform="rotate(-0 49.2575 248.136458)">60</text>
     </g>
    </g>
    <g id="ytick_5">
     <g id="line2d_8">
      <g>
       <use xlink:href="#md44a5d331f" x="56.2575" y="138.030671" style="stroke: #000000; stroke-width: 0.8"/>
      </g>
     </g>
     <g id="text_9">
      <text style="font: 16px 'Calibri'; text-anchor: end" x="49.2575" y="143.471921" transform="rotate(-0 49.2575 143.471921)">80</text>
     </g>
    </g>
    <g id="ytick_6">
     <g id="line2d_9">
      <g>
       <use xlink:href="#md44a5d331f" x="56.2575" y="33.366134" style="stroke: #000000; stroke-width: 0.8"/>
      </g>
     </g>
     <g id="text_10">
      <text style="font: 16px 'Calibri'; text-anchor: end" x="49.2575" y="38.807384" transform="rotate(-0 49.2575 38.807384)">100</text>
     </g>
    </g>
    <g id="text_11">
     <text style="font: 16px 'Calibri'; text-anchor: middle" x="18.075" y="281.944409" transform="rotate(-90 18.075 281.944409)">Success Rate Percentage</text>
    </g>
   </g>
   <g id="line2d_10">
    <path d="M 229.005369 334.924474 
L 229.005369 167.910032 
" clip-path="url(#p369ab28550)" style="fill: none; stroke: #424242; stroke-width: 2.7; stroke-linecap: square"/>
   </g>
   <g id="line2d_11">
    <path d="M 804.8316 556.688819 
L 804.8316 382.247924 
" clip-path="url(#p369ab28550)" style="fill: none; stroke: #424242; stroke-width: 2.7; stroke-linecap: square"/>
   </g>
   <g id="line2d_12">
    <path d="M 1380.65783 33.366134 
L 1380.65783 33.366134 
" clip-path="url(#p369ab28550)" style="fill: none; stroke: #424242; stroke-width: 2.7; stroke-linecap: square"/>
   </g>
   <g id="line2d_13">
    <path d="M 459.335861 382.247924 
L 459.335861 164.196805 
" clip-path="url(#p369ab28550)" style="fill: none; stroke: #424242; stroke-width: 2.7; stroke-linecap: square"/>
   </g>
   <g id="line2d_14">
    <path d="M 1035.162092 556.688819 
L 1035.162092 556.688819 
" clip-path="url(#p369ab28550)" style="fill: none; stroke: #424242; stroke-width: 2.7; stroke-linecap: square"/>
   </g>
   <g id="line2d_15">
    <path d="M 1610.988322 247.704026 
L 1610.988322 80.689585 
" clip-path="url(#p369ab28550)" style="fill: none; stroke: #424242; stroke-width: 2.7; stroke-linecap: square"/>
   </g>
   <g id="patch_9">
    <path d="M 56.2575 556.688819 
L 56.2575 7.2 
" style="fill: none; stroke: #000000; stroke-width: 0.8; stroke-linejoin: miter; stroke-linecap: square"/>
   </g>
   <g id="patch_10">
    <path d="M 56.2575 556.688819 
L 1783.736191 556.688819 
" style="fill: none; stroke: #000000; stroke-width: 0.8; stroke-linejoin: miter; stroke-linecap: square"/>
   </g>
   <g id="PathCollection_3">
    <defs>
     <path id="C0_0_2f955f0364" d="M 0 4.75 
C 1.259715 4.75 2.468004 4.24951 3.358757 3.358757 
C 4.24951 2.468004 4.75 1.259715 4.75 -0 
C 4.75 -1.259715 4.24951 -2.468004 3.358757 -3.358757 
C 2.468004 -4.24951 1.259715 -4.75 0 -4.75 
C -1.259715 -4.75 -2.468004 -4.24951 -3.358757 -3.358757 
C -4.24951 -2.468004 -4.75 -1.259715 -4.75 0 
C -4.75 1.259715 -4.24951 2.468004 -3.358757 3.358757 
C -2.468004 4.24951 -1.259715 4.75 0 4.75 
z
"/>
    </defs>
    <g clip-path="url(#p369ab28550)">
     <use xlink:href="#C0_0_2f955f0364" x="221.771129" y="33.366134" style="fill: #23262a"/>
    </g>
    <g clip-path="url(#p369ab28550)">
     <use xlink:href="#C0_0_2f955f0364" x="179.012202" y="382.247924" style="fill: #23262a"/>
    </g>
    <g clip-path="url(#p369ab28550)">
     <use xlink:href="#C0_0_2f955f0364" x="233.984155" y="207.807029" style="fill: #23262a"/>
    </g>
    <g clip-path="url(#p369ab28550)">
     <use xlink:href="#C0_0_2f955f0364" x="256.355995" y="382.247924" style="fill: #23262a"/>
    </g>
   </g>
   <g id="PathCollection_4">
    <defs>
     <path id="C1_0_7ee5af707e" d="M 0 4.75 
C 1.259715 4.75 2.468004 4.24951 3.358757 3.358757 
C 4.24951 2.468004 4.75 1.259715 4.75 -0 
C 4.75 -1.259715 4.24951 -2.468004 3.358757 -3.358757 
C 2.468004 -4.24951 1.259715 -4.75 0 -4.75 
C -1.259715 -4.75 -2.468004 -4.24951 -3.358757 -3.358757 
C -4.24951 -2.468004 -4.75 -1.259715 -4.75 0 
C -4.75 1.259715 -4.24951 2.468004 -3.358757 3.358757 
C -2.468004 4.24951 -1.259715 4.75 0 4.75 
z
"/>
    </defs>
    <g clip-path="url(#p369ab28550)">
     <use xlink:href="#C1_0_7ee5af707e" x="478.685331" y="295.027477" style="fill: #1f77b4"/>
    </g>
    <g clip-path="url(#p369ab28550)">
     <use xlink:href="#C1_0_7ee5af707e" x="404.480978" y="33.366134" style="fill: #1f77b4"/>
    </g>
    <g clip-path="url(#p369ab28550)">
     <use xlink:href="#C1_0_7ee5af707e" x="412.44618" y="556.688819" style="fill: #1f77b4"/>
    </g>
    <g clip-path="url(#p369ab28550)">
     <use xlink:href="#C1_0_7ee5af707e" x="478.68324" y="207.807029" style="fill: #1f77b4"/>
    </g>
   </g>
   <g id="PathCollection_5">
    <defs>
     <path id="C2_0_8d76fb453a" d="M 0 4.75 
C 1.259715 4.75 2.468004 4.24951 3.358757 3.358757 
C 4.24951 2.468004 4.75 1.259715 4.75 -0 
C 4.75 -1.259715 4.24951 -2.468004 3.358757 -3.358757 
C 2.468004 -4.24951 1.259715 -4.75 0 -4.75 
C -1.259715 -4.75 -2.468004 -4.24951 -3.358757 -3.358757 
C -4.24951 -2.468004 -4.75 -1.259715 -4.75 0 
C -4.75 1.259715 -4.24951 2.468004 -3.358757 3.358757 
C -2.468004 4.24951 -1.259715 4.75 0 4.75 
z
"/>
    </defs>
    <g clip-path="url(#p369ab28550)">
     <use xlink:href="#C2_0_8d76fb453a" x="777.822931" y="556.688819" style="fill: #23262a"/>
    </g>
    <g clip-path="url(#p369ab28550)">
     <use xlink:href="#C2_0_8d76fb453a" x="842.570051" y="207.807029" style="fill: #23262a"/>
    </g>
    <g clip-path="url(#p369ab28550)">
     <use xlink:href="#C2_0_8d76fb453a" x="856.41651" y="556.688819" style="fill: #23262a"/>
    </g>
    <g clip-path="url(#p369ab28550)">
     <use xlink:href="#C2_0_8d76fb453a" x="789.931125" y="556.688819" style="fill: #23262a"/>
    </g>
   </g>
   <g id="PathCollection_6">
    <defs>
     <path id="C3_0_37289c3f58" d="M 0 4.75 
C 1.259715 4.75 2.468004 4.24951 3.358757 3.358757 
C 4.24951 2.468004 4.75 1.259715 4.75 -0 
C 4.75 -1.259715 4.24951 -2.468004 3.358757 -3.358757 
C 2.468004 -4.24951 1.259715 -4.75 0 -4.75 
C -1.259715 -4.75 -2.468004 -4.24951 -3.358757 -3.358757 
C -4.24951 -2.468004 -4.75 -1.259715 -4.75 0 
C -4.75 1.259715 -4.24951 2.468004 -3.358757 3.358757 
C -2.468004 4.24951 -1.259715 4.75 0 4.75 
z
"/>
    </defs>
    <g clip-path="url(#p369ab28550)">
     <use xlink:href="#C3_0_37289c3f58" x="1006.626842" y="556.688819" style="fill: #1f77b4"/>
    </g>
    <g clip-path="url(#p369ab28550)">
     <use xlink:href="#C3_0_37289c3f58" x="1023.998225" y="556.688819" style="fill: #1f77b4"/>
    </g>
    <g clip-path="url(#p369ab28550)">
     <use xlink:href="#C3_0_37289c3f58" x="1090.097908" y="556.688819" style="fill: #1f77b4"/>
    </g>
    <g clip-path="url(#p369ab28550)">
     <use xlink:href="#C3_0_37289c3f58" x="1076.423694" y="556.688819" style="fill: #1f77b4"/>
    </g>
   </g>
   <g id="PathCollection_7">
    <defs>
     <path id="C4_0_66ea85c4c5" d="M 0 4.75 
C 1.259715 4.75 2.468004 4.24951 3.358757 3.358757 
C 4.24951 2.468004 4.75 1.259715 4.75 -0 
C 4.75 -1.259715 4.24951 -2.468004 3.358757 -3.358757 
C 2.468004 -4.24951 1.259715 -4.75 0 -4.75 
C -1.259715 -4.75 -2.468004 -4.24951 -3.358757 -3.358757 
C -4.24951 -2.468004 -4.75 -1.259715 -4.75 0 
C -4.75 1.259715 -4.24951 2.468004 -3.358757 3.358757 
C -2.468004 4.24951 -1.259715 4.75 0 4.75 
z
"/>
    </defs>
    <g clip-path="url(#p369ab28550)">
     <use xlink:href="#C4_0_66ea85c4c5" x="1422.407494" y="33.366134" style="fill: #23262a"/>
    </g>
    <g clip-path="url(#p369ab28550)">
     <use xlink:href="#C4_0_66ea85c4c5" x="1332.491474" y="33.366134" style="fill: #23262a"/>
    </g>
    <g clip-path="url(#p369ab28550)">
     <use xlink:href="#C4_0_66ea85c4c5" x="1353.70288" y="33.366134" style="fill: #23262a"/>
    </g>
    <g clip-path="url(#p369ab28550)">
     <use xlink:href="#C4_0_66ea85c4c5" x="1346.61846" y="33.366134" style="fill: #23262a"/>
    </g>
   </g>
   <g id="PathCollection_8">
    <defs>
     <path id="C5_0_224eaf13d8" d="M 0 4.75 
C 1.259715 4.75 2.468004 4.24951 3.358757 3.358757 
C 4.24951 2.468004 4.75 1.259715 4.75 -0 
C 4.75 -1.259715 4.24951 -2.468004 3.358757 -3.358757 
C 2.468004 -4.24951 1.259715 -4.75 0 -4.75 
C -1.259715 -4.75 -2.468004 -4.24951 -3.358757 -3.358757 
C -4.24951 -2.468004 -4.75 -1.259715 -4.75 0 
C -4.75 1.259715 -4.24951 2.468004 -3.358757 3.358757 
C -2.468004 4.24951 -1.259715 4.75 0 4.75 
z
"/>
    </defs>
    <g clip-path="url(#p369ab28550)">
     <use xlink:href="#C5_0_224eaf13d8" x="1636.061061" y="33.366134" style="fill: #1f77b4"/>
    </g>
    <g clip-path="url(#p369ab28550)">
     <use xlink:href="#C5_0_224eaf13d8" x="1611.429984" y="207.807029" style="fill: #1f77b4"/>
    </g>
    <g clip-path="url(#p369ab28550)">
     <use xlink:href="#C5_0_224eaf13d8" x="1589.902206" y="382.247924" style="fill: #1f77b4"/>
    </g>
    <g clip-path="url(#p369ab28550)">
     <use xlink:href="#C5_0_224eaf13d8" x="1578.790784" y="33.366134" style="fill: #1f77b4"/>
    </g>
   </g>
  </g>
  <g id="legend_1">
   <g id="text_12">
    <text style="font: 16px 'Calibri'; text-anchor: start" x="1817.931102" y="283.180659" transform="rotate(-0 1817.931102 283.180659)">Type of Control</text>
   </g>
   <g id="patch_11">
    <path d="M 1820.976102 305.225659 
L 1852.976102 305.225659 
L 1852.976102 294.025659 
L 1820.976102 294.025659 
z
" style="fill: #3274a1"/>
   </g>
   <g id="text_13">
    <text style="font: 16px 'Calibri'; text-anchor: start" x="1865.776102" y="305.225659" transform="rotate(-0 1865.776102 305.225659)">Manual</text>
   </g>
   <g id="patch_12">
    <path d="M 1820.976102 327.270659 
L 1852.976102 327.270659 
L 1852.976102 316.070659 
L 1820.976102 316.070659 
z
" style="fill: #e1812c"/>
   </g>
   <g id="text_14">
    <text style="font: 16px 'Calibri'; text-anchor: start" x="1865.776102" y="327.270659" transform="rotate(-0 1865.776102 327.270659)">SNS</text>
   </g>
  </g>
 </g>
 <defs>
  <clipPath id="p369ab28550">
   <rect x="56.2575" y="7.2" width="1727.478691" height="549.488819"/>
  </clipPath>
 </defs>
</svg>
