<?xml version="1.0" encoding="utf-8" standalone="no"?>
<!DOCTYPE svg PUBLIC "-//W3C//DTD SVG 1.1//EN"
  "http://www.w3.org/Graphics/SVG/1.1/DTD/svg11.dtd">
<svg xmlns:xlink="http://www.w3.org/1999/xlink" width="1810.378602pt" height="601.761319pt" viewBox="0 0 1810.378602 601.761319" xmlns="http://www.w3.org/2000/svg" version="1.1">
 <metadata>
  <rdf:RDF xmlns:dc="http://purl.org/dc/elements/1.1/" xmlns:cc="http://creativecommons.org/ns#" xmlns:rdf="http://www.w3.org/1999/02/22-rdf-syntax-ns#">
   <cc:Work>
    <dc:type rdf:resource="http://purl.org/dc/dcmitype/StillImage"/>
    <dc:date>2023-08-29T14:19:32.484275</dc:date>
    <dc:format>image/svg+xml</dc:format>
    <dc:creator>
     <cc:Agent>
      <dc:title>Matplotlib v3.7.1, https://matplotlib.org/</dc:title>
     </cc:Agent>
    </dc:creator>
   </cc:Work>
  </rdf:RDF>
 </metadata>
 <defs>
  <style type="text/css">*{stroke-linejoin: round; stroke-linecap: butt}</style>
 </defs>
 <g id="figure_1">
  <g id="patch_1">
   <path d="M 0 601.761319 
L 1810.378602 601.761319 
L 1810.378602 0 
L 0 0 
z
" style="fill: #ffffff"/>
  </g>
  <g id="axes_1">
   <g id="patch_2">
    <path d="M 56.2575 556.051319 
L 477.402776 556.051319 
L 477.402776 24.0825 
L 56.2575 24.0825 
z
" style="fill: #ffffff"/>
   </g>
   <g id="patch_3">
    <path d="M 77.314764 556.051319 
L 161.543819 556.051319 
L 161.543819 218.293339 
L 77.314764 218.293339 
z
" clip-path="url(#p3005266080)" style="fill: #3274a1"/>
   </g>
   <g id="patch_4">
    <path d="M 0 0 
z
" clip-path="url(#p3005266080)" style="fill: #3274a1"/>
   </g>
   <g id="patch_5">
    <path d="M 0 0 
z
" clip-path="url(#p3005266080)" style="fill: #e1812c"/>
   </g>
   <g id="patch_6">
    <path d="M 372.116457 556.051319 
L 456.345512 556.051319 
L 456.345512 302.732834 
L 372.116457 302.732834 
z
" clip-path="url(#p3005266080)" style="fill: #e1812c"/>
   </g>
   <g id="PathCollection_1"/>
   <g id="PathCollection_2"/>
   <g id="PathCollection_3"/>
   <g id="matplotlib.axis_1">
    <g id="xtick_1">
     <g id="line2d_1">
      <defs>
       <path id="mac4ac04357" d="M 0 0 
L 0 3.5 
" style="stroke: #000000; stroke-width: 0.8"/>
      </defs>
      <g>
       <use xlink:href="#mac4ac04357" x="161.543819" y="556.051319" style="stroke: #000000; stroke-width: 0.8"/>
      </g>
     </g>
     <g id="text_1">
      <text style="font: 16px 'Calibri'; text-anchor: middle" x="161.543819" y="573.933819" transform="rotate(-0 161.543819 573.933819)">Manual</text>
     </g>
    </g>
    <g id="xtick_2">
     <g id="line2d_2">
      <g>
       <use xlink:href="#mac4ac04357" x="372.116457" y="556.051319" style="stroke: #000000; stroke-width: 0.8"/>
      </g>
     </g>
     <g id="text_2">
      <text style="font: 16px 'Calibri'; text-anchor: middle" x="372.116457" y="573.933819" transform="rotate(-0 372.116457 573.933819)">SNS</text>
     </g>
    </g>
    <g id="text_3">
     <text style="font: 16px 'Calibri'; text-anchor: middle" x="266.830138" y="591.716319" transform="rotate(-0 266.830138 591.716319)">Type of Control</text>
    </g>
   </g>
   <g id="matplotlib.axis_2">
    <g id="ytick_1">
     <g id="line2d_3">
      <defs>
       <path id="m75f6cfd95d" d="M 0 0 
L -3.5 0 
" style="stroke: #000000; stroke-width: 0.8"/>
      </defs>
      <g>
       <use xlink:href="#m75f6cfd95d" x="56.2575" y="556.051319" style="stroke: #000000; stroke-width: 0.8"/>
      </g>
     </g>
     <g id="text_4">
      <text style="font: 16px 'Calibri'; text-anchor: end" x="49.2575" y="561.492569" transform="rotate(-0 49.2575 561.492569)">0</text>
     </g>
    </g>
    <g id="ytick_2">
     <g id="line2d_4">
      <g>
       <use xlink:href="#m75f6cfd95d" x="56.2575" y="454.723925" style="stroke: #000000; stroke-width: 0.8"/>
      </g>
     </g>
     <g id="text_5">
      <text style="font: 16px 'Calibri'; text-anchor: end" x="49.2575" y="460.165175" transform="rotate(-0 49.2575 460.165175)">20</text>
     </g>
    </g>
    <g id="ytick_3">
     <g id="line2d_5">
      <g>
       <use xlink:href="#m75f6cfd95d" x="56.2575" y="353.396531" style="stroke: #000000; stroke-width: 0.8"/>
      </g>
     </g>
     <g id="text_6">
      <text style="font: 16px 'Calibri'; text-anchor: end" x="49.2575" y="358.837781" transform="rotate(-0 49.2575 358.837781)">40</text>
     </g>
    </g>
    <g id="ytick_4">
     <g id="line2d_6">
      <g>
       <use xlink:href="#m75f6cfd95d" x="56.2575" y="252.069137" style="stroke: #000000; stroke-width: 0.8"/>
      </g>
     </g>
     <g id="text_7">
      <text style="font: 16px 'Calibri'; text-anchor: end" x="49.2575" y="257.510387" transform="rotate(-0 49.2575 257.510387)">60</text>
     </g>
    </g>
    <g id="ytick_5">
     <g id="line2d_7">
      <g>
       <use xlink:href="#m75f6cfd95d" x="56.2575" y="150.741743" style="stroke: #000000; stroke-width: 0.8"/>
      </g>
     </g>
     <g id="text_8">
      <text style="font: 16px 'Calibri'; text-anchor: end" x="49.2575" y="156.182993" transform="rotate(-0 49.2575 156.182993)">80</text>
     </g>
    </g>
    <g id="ytick_6">
     <g id="line2d_8">
      <g>
       <use xlink:href="#m75f6cfd95d" x="56.2575" y="49.414349" style="stroke: #000000; stroke-width: 0.8"/>
      </g>
     </g>
     <g id="text_9">
      <text style="font: 16px 'Calibri'; text-anchor: end" x="49.2575" y="54.855599" transform="rotate(-0 49.2575 54.855599)">100</text>
     </g>
    </g>
    <g id="text_10">
     <text style="font: 16px 'Calibri'; text-anchor: middle" x="18.075" y="290.066909" transform="rotate(-90 18.075 290.066909)">Success Rate Percentage</text>
    </g>
   </g>
   <g id="line2d_9">
    <path d="M 119.429291 387.172329 
L 119.429291 49.414349 
" clip-path="url(#p3005266080)" style="fill: none; stroke: #424242; stroke-width: 2.7; stroke-linecap: square"/>
   </g>
   <g id="line2d_10">
    <path clip-path="url(#p3005266080)" style="fill: none; stroke: #424242; stroke-width: 2.7; stroke-linecap: square"/>
   </g>
   <g id="line2d_11">
    <path clip-path="url(#p3005266080)" style="fill: none; stroke: #424242; stroke-width: 2.7; stroke-linecap: square"/>
   </g>
   <g id="line2d_12">
    <path d="M 414.230984 448.986329 
L 414.230984 156.479338 
" clip-path="url(#p3005266080)" style="fill: none; stroke: #424242; stroke-width: 2.7; stroke-linecap: square"/>
   </g>
   <g id="patch_7">
    <path d="M 56.2575 556.051319 
L 56.2575 24.0825 
" style="fill: none; stroke: #000000; stroke-width: 0.8; stroke-linejoin: miter; stroke-linecap: square"/>
   </g>
   <g id="patch_8">
    <path d="M 56.2575 556.051319 
L 477.402776 556.051319 
" style="fill: none; stroke: #000000; stroke-width: 0.8; stroke-linejoin: miter; stroke-linecap: square"/>
   </g>
   <g id="PathCollection_4">
    <defs>
     <path id="C0_0_28d9b117c9" d="M 0 4.75 
C 1.259715 4.75 2.468004 4.24951 3.358757 3.358757 
C 4.24951 2.468004 4.75 1.259715 4.75 -0 
C 4.75 -1.259715 4.24951 -2.468004 3.358757 -3.358757 
C 2.468004 -4.24951 1.259715 -4.75 0 -4.75 
C -1.259715 -4.75 -2.468004 -4.24951 -3.358757 -3.358757 
C -4.24951 -2.468004 -4.75 -1.259715 -4.75 0 
C -4.75 1.259715 -4.24951 2.468004 -3.358757 3.358757 
C -2.468004 4.24951 -1.259715 4.75 0 4.75 
z
"/>
    </defs>
    <g clip-path="url(#p3005266080)">
     <use xlink:href="#C0_0_28d9b117c9" x="161.543819" y="49.414349" style="fill: #51127c"/>
    </g>
    <g clip-path="url(#p3005266080)">
     <use xlink:href="#C0_0_28d9b117c9" x="161.543819" y="556.051319" style="fill: #b73779"/>
    </g>
    <g clip-path="url(#p3005266080)">
     <use xlink:href="#C0_0_28d9b117c9" x="161.543819" y="49.414349" style="fill: #fc8961"/>
    </g>
   </g>
   <g id="PathCollection_5">
    <defs>
     <path id="C1_0_4f569fc1c8" d="M 0 4.75 
C 1.259715 4.75 2.468004 4.24951 3.358757 3.358757 
C 4.24951 2.468004 4.75 1.259715 4.75 -0 
C 4.75 -1.259715 4.24951 -2.468004 3.358757 -3.358757 
C 2.468004 -4.24951 1.259715 -4.75 0 -4.75 
C -1.259715 -4.75 -2.468004 -4.24951 -3.358757 -3.358757 
C -4.24951 -2.468004 -4.75 -1.259715 -4.75 0 
C -4.75 1.259715 -4.24951 2.468004 -3.358757 3.358757 
C -2.468004 4.24951 -1.259715 4.75 0 4.75 
z
"/>
    </defs>
    <g clip-path="url(#p3005266080)">
     <use xlink:href="#C1_0_4f569fc1c8" x="372.116457" y="302.732834" style="fill: #51127c"/>
    </g>
    <g clip-path="url(#p3005266080)">
     <use xlink:href="#C1_0_4f569fc1c8" x="372.116457" y="556.051319" style="fill: #b73779"/>
    </g>
    <g clip-path="url(#p3005266080)">
     <use xlink:href="#C1_0_4f569fc1c8" x="372.116457" y="49.414349" style="fill: #fc8961"/>
    </g>
   </g>
   <g id="text_11">
    <text style="font: 16px 'Calibri'; text-anchor: middle" x="266.830138" y="18.0825" transform="rotate(-0 266.830138 18.0825)">Participant Number = 1</text>
   </g>
  </g>
  <g id="axes_2">
   <g id="patch_9">
    <path d="M 498.182776 556.051319 
L 919.328051 556.051319 
L 919.328051 24.0825 
L 498.182776 24.0825 
z
" style="fill: #ffffff"/>
   </g>
   <g id="patch_10">
    <path d="M 519.240039 556.051319 
L 603.469094 556.051319 
L 603.469094 218.293339 
L 519.240039 218.293339 
z
" clip-path="url(#p0ebfe19ba1)" style="fill: #3274a1"/>
   </g>
   <g id="patch_11">
    <path d="M 0 0 
z
" clip-path="url(#p0ebfe19ba1)" style="fill: #3274a1"/>
   </g>
   <g id="patch_12">
    <path d="M 0 0 
z
" clip-path="url(#p0ebfe19ba1)" style="fill: #e1812c"/>
   </g>
   <g id="patch_13">
    <path d="M 814.041732 556.051319 
L 898.270787 556.051319 
L 898.270787 274.586335 
L 814.041732 274.586335 
z
" clip-path="url(#p0ebfe19ba1)" style="fill: #e1812c"/>
   </g>
   <g id="PathCollection_6"/>
   <g id="PathCollection_7"/>
   <g id="PathCollection_8"/>
   <g id="matplotlib.axis_3">
    <g id="xtick_3">
     <g id="line2d_13">
      <g>
       <use xlink:href="#mac4ac04357" x="603.469094" y="556.051319" style="stroke: #000000; stroke-width: 0.8"/>
      </g>
     </g>
     <g id="text_12">
      <text style="font: 16px 'Calibri'; text-anchor: middle" x="603.469094" y="573.933819" transform="rotate(-0 603.469094 573.933819)">Manual</text>
     </g>
    </g>
    <g id="xtick_4">
     <g id="line2d_14">
      <g>
       <use xlink:href="#mac4ac04357" x="814.041732" y="556.051319" style="stroke: #000000; stroke-width: 0.8"/>
      </g>
     </g>
     <g id="text_13">
      <text style="font: 16px 'Calibri'; text-anchor: middle" x="814.041732" y="573.933819" transform="rotate(-0 814.041732 573.933819)">SNS</text>
     </g>
    </g>
    <g id="text_14">
     <text style="font: 16px 'Calibri'; text-anchor: middle" x="708.755413" y="591.716319" transform="rotate(-0 708.755413 591.716319)">Type of Control</text>
    </g>
   </g>
   <g id="matplotlib.axis_4">
    <g id="ytick_7">
     <g id="line2d_15">
      <g>
       <use xlink:href="#m75f6cfd95d" x="498.182776" y="556.051319" style="stroke: #000000; stroke-width: 0.8"/>
      </g>
     </g>
    </g>
    <g id="ytick_8">
     <g id="line2d_16">
      <g>
       <use xlink:href="#m75f6cfd95d" x="498.182776" y="454.723925" style="stroke: #000000; stroke-width: 0.8"/>
      </g>
     </g>
    </g>
    <g id="ytick_9">
     <g id="line2d_17">
      <g>
       <use xlink:href="#m75f6cfd95d" x="498.182776" y="353.396531" style="stroke: #000000; stroke-width: 0.8"/>
      </g>
     </g>
    </g>
    <g id="ytick_10">
     <g id="line2d_18">
      <g>
       <use xlink:href="#m75f6cfd95d" x="498.182776" y="252.069137" style="stroke: #000000; stroke-width: 0.8"/>
      </g>
     </g>
    </g>
    <g id="ytick_11">
     <g id="line2d_19">
      <g>
       <use xlink:href="#m75f6cfd95d" x="498.182776" y="150.741743" style="stroke: #000000; stroke-width: 0.8"/>
      </g>
     </g>
    </g>
    <g id="ytick_12">
     <g id="line2d_20">
      <g>
       <use xlink:href="#m75f6cfd95d" x="498.182776" y="49.414349" style="stroke: #000000; stroke-width: 0.8"/>
      </g>
     </g>
    </g>
   </g>
   <g id="line2d_21">
    <path d="M 561.354567 315.795669 
L 561.354567 120.791008 
" clip-path="url(#p0ebfe19ba1)" style="fill: none; stroke: #424242; stroke-width: 2.7; stroke-linecap: square"/>
   </g>
   <g id="line2d_22">
    <path clip-path="url(#p0ebfe19ba1)" style="fill: none; stroke: #424242; stroke-width: 2.7; stroke-linecap: square"/>
   </g>
   <g id="line2d_23">
    <path clip-path="url(#p0ebfe19ba1)" style="fill: none; stroke: #424242; stroke-width: 2.7; stroke-linecap: square"/>
   </g>
   <g id="line2d_24">
    <path d="M 856.15626 423.523605 
L 856.15626 125.649066 
" clip-path="url(#p0ebfe19ba1)" style="fill: none; stroke: #424242; stroke-width: 2.7; stroke-linecap: square"/>
   </g>
   <g id="patch_14">
    <path d="M 498.182776 556.051319 
L 498.182776 24.0825 
" style="fill: none; stroke: #000000; stroke-width: 0.8; stroke-linejoin: miter; stroke-linecap: square"/>
   </g>
   <g id="patch_15">
    <path d="M 498.182776 556.051319 
L 919.328051 556.051319 
" style="fill: none; stroke: #000000; stroke-width: 0.8; stroke-linejoin: miter; stroke-linecap: square"/>
   </g>
   <g id="PathCollection_9">
    <defs>
     <path id="C2_0_c2ca19e567" d="M 0 4.75 
C 1.259715 4.75 2.468004 4.24951 3.358757 3.358757 
C 4.24951 2.468004 4.75 1.259715 4.75 -0 
C 4.75 -1.259715 4.24951 -2.468004 3.358757 -3.358757 
C 2.468004 -4.24951 1.259715 -4.75 0 -4.75 
C -1.259715 -4.75 -2.468004 -4.24951 -3.358757 -3.358757 
C -4.24951 -2.468004 -4.75 -1.259715 -4.75 0 
C -4.75 1.259715 -4.24951 2.468004 -3.358757 3.358757 
C -2.468004 4.24951 -1.259715 4.75 0 4.75 
z
"/>
    </defs>
    <g clip-path="url(#p0ebfe19ba1)">
     <use xlink:href="#C2_0_c2ca19e567" x="603.469094" y="387.172329" style="fill: #51127c"/>
    </g>
    <g clip-path="url(#p0ebfe19ba1)">
     <use xlink:href="#C2_0_c2ca19e567" x="603.469094" y="218.293339" style="fill: #b73779"/>
    </g>
    <g clip-path="url(#p0ebfe19ba1)">
     <use xlink:href="#C2_0_c2ca19e567" x="603.469094" y="49.414349" style="fill: #fc8961"/>
    </g>
   </g>
   <g id="PathCollection_10">
    <defs>
     <path id="C3_0_6d2930bd64" d="M 0 4.75 
C 1.259715 4.75 2.468004 4.24951 3.358757 3.358757 
C 4.24951 2.468004 4.75 1.259715 4.75 -0 
C 4.75 -1.259715 4.24951 -2.468004 3.358757 -3.358757 
C 2.468004 -4.24951 1.259715 -4.75 0 -4.75 
C -1.259715 -4.75 -2.468004 -4.24951 -3.358757 -3.358757 
C -4.24951 -2.468004 -4.75 -1.259715 -4.75 0 
C -4.75 1.259715 -4.24951 2.468004 -3.358757 3.358757 
C -2.468004 4.24951 -1.259715 4.75 0 4.75 
z
"/>
    </defs>
    <g clip-path="url(#p0ebfe19ba1)">
     <use xlink:href="#C3_0_6d2930bd64" x="814.041732" y="49.414349" style="fill: #51127c"/>
    </g>
    <g clip-path="url(#p0ebfe19ba1)">
     <use xlink:href="#C3_0_6d2930bd64" x="814.041732" y="556.051319" style="fill: #b73779"/>
    </g>
    <g clip-path="url(#p0ebfe19ba1)">
     <use xlink:href="#C3_0_6d2930bd64" x="814.041732" y="218.293339" style="fill: #fc8961"/>
    </g>
   </g>
   <g id="text_15">
    <text style="font: 16px 'Calibri'; text-anchor: middle" x="708.755413" y="18.0825" transform="rotate(-0 708.755413 18.0825)">Participant Number = 2</text>
   </g>
  </g>
  <g id="axes_3">
   <g id="patch_16">
    <path d="M 940.108051 556.051319 
L 1361.253327 556.051319 
L 1361.253327 24.0825 
L 940.108051 24.0825 
z
" style="fill: #ffffff"/>
   </g>
   <g id="patch_17">
    <path d="M 961.165315 556.051319 
L 1045.39437 556.051319 
L 1045.39437 274.586335 
L 961.165315 274.586335 
z
" clip-path="url(#p164a355a0c)" style="fill: #3274a1"/>
   </g>
   <g id="patch_18">
    <path d="M 0 0 
z
" clip-path="url(#p164a355a0c)" style="fill: #3274a1"/>
   </g>
   <g id="patch_19">
    <path d="M 0 0 
z
" clip-path="url(#p164a355a0c)" style="fill: #e1812c"/>
   </g>
   <g id="patch_20">
    <path d="M 1255.967008 556.051319 
L 1340.196063 556.051319 
L 1340.196063 499.758322 
L 1255.967008 499.758322 
z
" clip-path="url(#p164a355a0c)" style="fill: #e1812c"/>
   </g>
   <g id="PathCollection_11"/>
   <g id="PathCollection_12"/>
   <g id="PathCollection_13"/>
   <g id="matplotlib.axis_5">
    <g id="xtick_5">
     <g id="line2d_25">
      <g>
       <use xlink:href="#mac4ac04357" x="1045.39437" y="556.051319" style="stroke: #000000; stroke-width: 0.8"/>
      </g>
     </g>
     <g id="text_16">
      <text style="font: 16px 'Calibri'; text-anchor: middle" x="1045.39437" y="573.933819" transform="rotate(-0 1045.39437 573.933819)">Manual</text>
     </g>
    </g>
    <g id="xtick_6">
     <g id="line2d_26">
      <g>
       <use xlink:href="#mac4ac04357" x="1255.967008" y="556.051319" style="stroke: #000000; stroke-width: 0.8"/>
      </g>
     </g>
     <g id="text_17">
      <text style="font: 16px 'Calibri'; text-anchor: middle" x="1255.967008" y="573.933819" transform="rotate(-0 1255.967008 573.933819)">SNS</text>
     </g>
    </g>
    <g id="text_18">
     <text style="font: 16px 'Calibri'; text-anchor: middle" x="1150.680689" y="591.716319" transform="rotate(-0 1150.680689 591.716319)">Type of Control</text>
    </g>
   </g>
   <g id="matplotlib.axis_6">
    <g id="ytick_13">
     <g id="line2d_27">
      <g>
       <use xlink:href="#m75f6cfd95d" x="940.108051" y="556.051319" style="stroke: #000000; stroke-width: 0.8"/>
      </g>
     </g>
    </g>
    <g id="ytick_14">
     <g id="line2d_28">
      <g>
       <use xlink:href="#m75f6cfd95d" x="940.108051" y="454.723925" style="stroke: #000000; stroke-width: 0.8"/>
      </g>
     </g>
    </g>
    <g id="ytick_15">
     <g id="line2d_29">
      <g>
       <use xlink:href="#m75f6cfd95d" x="940.108051" y="353.396531" style="stroke: #000000; stroke-width: 0.8"/>
      </g>
     </g>
    </g>
    <g id="ytick_16">
     <g id="line2d_30">
      <g>
       <use xlink:href="#m75f6cfd95d" x="940.108051" y="252.069137" style="stroke: #000000; stroke-width: 0.8"/>
      </g>
     </g>
    </g>
    <g id="ytick_17">
     <g id="line2d_31">
      <g>
       <use xlink:href="#m75f6cfd95d" x="940.108051" y="150.741743" style="stroke: #000000; stroke-width: 0.8"/>
      </g>
     </g>
    </g>
    <g id="ytick_18">
     <g id="line2d_32">
      <g>
       <use xlink:href="#m75f6cfd95d" x="940.108051" y="49.414349" style="stroke: #000000; stroke-width: 0.8"/>
      </g>
     </g>
    </g>
   </g>
   <g id="line2d_33">
    <path d="M 1003.279843 423.523605 
L 1003.279843 125.649066 
" clip-path="url(#p164a355a0c)" style="fill: none; stroke: #424242; stroke-width: 2.7; stroke-linecap: square"/>
   </g>
   <g id="line2d_34">
    <path clip-path="url(#p164a355a0c)" style="fill: none; stroke: #424242; stroke-width: 2.7; stroke-linecap: square"/>
   </g>
   <g id="line2d_35">
    <path clip-path="url(#p164a355a0c)" style="fill: none; stroke: #424242; stroke-width: 2.7; stroke-linecap: square"/>
   </g>
   <g id="line2d_36">
    <path d="M 1298.081535 556.051319 
L 1298.081535 443.465325 
" clip-path="url(#p164a355a0c)" style="fill: none; stroke: #424242; stroke-width: 2.7; stroke-linecap: square"/>
   </g>
   <g id="patch_21">
    <path d="M 940.108051 556.051319 
L 940.108051 24.0825 
" style="fill: none; stroke: #000000; stroke-width: 0.8; stroke-linejoin: miter; stroke-linecap: square"/>
   </g>
   <g id="patch_22">
    <path d="M 940.108051 556.051319 
L 1361.253327 556.051319 
" style="fill: none; stroke: #000000; stroke-width: 0.8; stroke-linejoin: miter; stroke-linecap: square"/>
   </g>
   <g id="PathCollection_14">
    <defs>
     <path id="C4_0_44dbf5e16a" d="M 0 4.75 
C 1.259715 4.75 2.468004 4.24951 3.358757 3.358757 
C 4.24951 2.468004 4.75 1.259715 4.75 -0 
C 4.75 -1.259715 4.24951 -2.468004 3.358757 -3.358757 
C 2.468004 -4.24951 1.259715 -4.75 0 -4.75 
C -1.259715 -4.75 -2.468004 -4.24951 -3.358757 -3.358757 
C -4.24951 -2.468004 -4.75 -1.259715 -4.75 0 
C -4.75 1.259715 -4.24951 2.468004 -3.358757 3.358757 
C -2.468004 4.24951 -1.259715 4.75 0 4.75 
z
"/>
    </defs>
    <g clip-path="url(#p164a355a0c)">
     <use xlink:href="#C4_0_44dbf5e16a" x="1045.39437" y="218.293339" style="fill: #51127c"/>
    </g>
    <g clip-path="url(#p164a355a0c)">
     <use xlink:href="#C4_0_44dbf5e16a" x="1045.39437" y="556.051319" style="fill: #b73779"/>
    </g>
    <g clip-path="url(#p164a355a0c)">
     <use xlink:href="#C4_0_44dbf5e16a" x="1045.39437" y="49.414349" style="fill: #fc8961"/>
    </g>
   </g>
   <g id="PathCollection_15">
    <defs>
     <path id="C5_0_4ef24b4d89" d="M 0 4.75 
C 1.259715 4.75 2.468004 4.24951 3.358757 3.358757 
C 4.24951 2.468004 4.75 1.259715 4.75 -0 
C 4.75 -1.259715 4.24951 -2.468004 3.358757 -3.358757 
C 2.468004 -4.24951 1.259715 -4.75 0 -4.75 
C -1.259715 -4.75 -2.468004 -4.24951 -3.358757 -3.358757 
C -4.24951 -2.468004 -4.75 -1.259715 -4.75 0 
C -4.75 1.259715 -4.24951 2.468004 -3.358757 3.358757 
C -2.468004 4.24951 -1.259715 4.75 0 4.75 
z
"/>
    </defs>
    <g clip-path="url(#p164a355a0c)">
     <use xlink:href="#C5_0_4ef24b4d89" x="1255.967008" y="387.172329" style="fill: #fc8961"/>
    </g>
    <g clip-path="url(#p164a355a0c)">
     <use xlink:href="#C5_0_4ef24b4d89" x="1255.967008" y="556.051319" style="fill: #51127c"/>
    </g>
    <g clip-path="url(#p164a355a0c)">
     <use xlink:href="#C5_0_4ef24b4d89" x="1255.967008" y="556.051319" style="fill: #b73779"/>
    </g>
   </g>
   <g id="text_19">
    <text style="font: 16px 'Calibri'; text-anchor: middle" x="1150.680689" y="18.0825" transform="rotate(-0 1150.680689 18.0825)">Participant Number = 3</text>
   </g>
  </g>
  <g id="axes_4">
   <g id="patch_23">
    <path d="M 1382.033327 556.051319 
L 1803.178602 556.051319 
L 1803.178602 24.0825 
L 1382.033327 24.0825 
z
" style="fill: #ffffff"/>
   </g>
   <g id="patch_24">
    <path d="M 1403.090591 556.051319 
L 1487.319646 556.051319 
L 1487.319646 330.879332 
L 1403.090591 330.879332 
z
" clip-path="url(#p1ac5817452)" style="fill: #3274a1"/>
   </g>
   <g id="patch_25">
    <path d="M 0 0 
z
" clip-path="url(#p1ac5817452)" style="fill: #3274a1"/>
   </g>
   <g id="patch_26">
    <path d="M 0 0 
z
" clip-path="url(#p1ac5817452)" style="fill: #e1812c"/>
   </g>
   <g id="patch_27">
    <path d="M 1697.892283 556.051319 
L 1782.121339 556.051319 
L 1782.121339 274.586335 
L 1697.892283 274.586335 
z
" clip-path="url(#p1ac5817452)" style="fill: #e1812c"/>
   </g>
   <g id="PathCollection_16"/>
   <g id="PathCollection_17"/>
   <g id="PathCollection_18"/>
   <g id="matplotlib.axis_7">
    <g id="xtick_7">
     <g id="line2d_37">
      <g>
       <use xlink:href="#mac4ac04357" x="1487.319646" y="556.051319" style="stroke: #000000; stroke-width: 0.8"/>
      </g>
     </g>
     <g id="text_20">
      <text style="font: 16px 'Calibri'; text-anchor: middle" x="1487.319646" y="573.933819" transform="rotate(-0 1487.319646 573.933819)">Manual</text>
     </g>
    </g>
    <g id="xtick_8">
     <g id="line2d_38">
      <g>
       <use xlink:href="#mac4ac04357" x="1697.892283" y="556.051319" style="stroke: #000000; stroke-width: 0.8"/>
      </g>
     </g>
     <g id="text_21">
      <text style="font: 16px 'Calibri'; text-anchor: middle" x="1697.892283" y="573.933819" transform="rotate(-0 1697.892283 573.933819)">SNS</text>
     </g>
    </g>
    <g id="text_22">
     <text style="font: 16px 'Calibri'; text-anchor: middle" x="1592.605965" y="591.716319" transform="rotate(-0 1592.605965 591.716319)">Type of Control</text>
    </g>
   </g>
   <g id="matplotlib.axis_8">
    <g id="ytick_19">
     <g id="line2d_39">
      <g>
       <use xlink:href="#m75f6cfd95d" x="1382.033327" y="556.051319" style="stroke: #000000; stroke-width: 0.8"/>
      </g>
     </g>
    </g>
    <g id="ytick_20">
     <g id="line2d_40">
      <g>
       <use xlink:href="#m75f6cfd95d" x="1382.033327" y="454.723925" style="stroke: #000000; stroke-width: 0.8"/>
      </g>
     </g>
    </g>
    <g id="ytick_21">
     <g id="line2d_41">
      <g>
       <use xlink:href="#m75f6cfd95d" x="1382.033327" y="353.396531" style="stroke: #000000; stroke-width: 0.8"/>
      </g>
     </g>
    </g>
    <g id="ytick_22">
     <g id="line2d_42">
      <g>
       <use xlink:href="#m75f6cfd95d" x="1382.033327" y="252.069137" style="stroke: #000000; stroke-width: 0.8"/>
      </g>
     </g>
    </g>
    <g id="ytick_23">
     <g id="line2d_43">
      <g>
       <use xlink:href="#m75f6cfd95d" x="1382.033327" y="150.741743" style="stroke: #000000; stroke-width: 0.8"/>
      </g>
     </g>
    </g>
    <g id="ytick_24">
     <g id="line2d_44">
      <g>
       <use xlink:href="#m75f6cfd95d" x="1382.033327" y="49.414349" style="stroke: #000000; stroke-width: 0.8"/>
      </g>
     </g>
    </g>
   </g>
   <g id="line2d_45">
    <path d="M 1445.205118 479.816602 
L 1445.205118 181.942062 
" clip-path="url(#p1ac5817452)" style="fill: none; stroke: #424242; stroke-width: 2.7; stroke-linecap: square"/>
   </g>
   <g id="line2d_46">
    <path clip-path="url(#p1ac5817452)" style="fill: none; stroke: #424242; stroke-width: 2.7; stroke-linecap: square"/>
   </g>
   <g id="line2d_47">
    <path clip-path="url(#p1ac5817452)" style="fill: none; stroke: #424242; stroke-width: 2.7; stroke-linecap: square"/>
   </g>
   <g id="line2d_48">
    <path d="M 1740.006811 423.523605 
L 1740.006811 125.649066 
" clip-path="url(#p1ac5817452)" style="fill: none; stroke: #424242; stroke-width: 2.7; stroke-linecap: square"/>
   </g>
   <g id="patch_28">
    <path d="M 1382.033327 556.051319 
L 1382.033327 24.0825 
" style="fill: none; stroke: #000000; stroke-width: 0.8; stroke-linejoin: miter; stroke-linecap: square"/>
   </g>
   <g id="patch_29">
    <path d="M 1382.033327 556.051319 
L 1803.178602 556.051319 
" style="fill: none; stroke: #000000; stroke-width: 0.8; stroke-linejoin: miter; stroke-linecap: square"/>
   </g>
   <g id="PathCollection_19">
    <defs>
     <path id="C6_0_b92a31f881" d="M 0 4.75 
C 1.259715 4.75 2.468004 4.24951 3.358757 3.358757 
C 4.24951 2.468004 4.75 1.259715 4.75 -0 
C 4.75 -1.259715 4.24951 -2.468004 3.358757 -3.358757 
C 2.468004 -4.24951 1.259715 -4.75 0 -4.75 
C -1.259715 -4.75 -2.468004 -4.24951 -3.358757 -3.358757 
C -4.24951 -2.468004 -4.75 -1.259715 -4.75 0 
C -4.75 1.259715 -4.24951 2.468004 -3.358757 3.358757 
C -2.468004 4.24951 -1.259715 4.75 0 4.75 
z
"/>
    </defs>
    <g clip-path="url(#p1ac5817452)">
     <use xlink:href="#C6_0_b92a31f881" x="1487.319646" y="387.172329" style="fill: #51127c"/>
    </g>
    <g clip-path="url(#p1ac5817452)">
     <use xlink:href="#C6_0_b92a31f881" x="1487.319646" y="49.414349" style="fill: #b73779"/>
    </g>
    <g clip-path="url(#p1ac5817452)">
     <use xlink:href="#C6_0_b92a31f881" x="1487.319646" y="556.051319" style="fill: #fc8961"/>
    </g>
   </g>
   <g id="PathCollection_20">
    <defs>
     <path id="C7_0_13370a3d59" d="M 0 4.75 
C 1.259715 4.75 2.468004 4.24951 3.358757 3.358757 
C 4.24951 2.468004 4.75 1.259715 4.75 -0 
C 4.75 -1.259715 4.24951 -2.468004 3.358757 -3.358757 
C 2.468004 -4.24951 1.259715 -4.75 0 -4.75 
C -1.259715 -4.75 -2.468004 -4.24951 -3.358757 -3.358757 
C -4.24951 -2.468004 -4.75 -1.259715 -4.75 0 
C -4.75 1.259715 -4.24951 2.468004 -3.358757 3.358757 
C -2.468004 4.24951 -1.259715 4.75 0 4.75 
z
"/>
    </defs>
    <g clip-path="url(#p1ac5817452)">
     <use xlink:href="#C7_0_13370a3d59" x="1697.892283" y="218.293339" style="fill: #51127c"/>
    </g>
    <g clip-path="url(#p1ac5817452)">
     <use xlink:href="#C7_0_13370a3d59" x="1697.892283" y="49.414349" style="fill: #b73779"/>
    </g>
    <g clip-path="url(#p1ac5817452)">
     <use xlink:href="#C7_0_13370a3d59" x="1697.892283" y="556.051319" style="fill: #fc8961"/>
    </g>
   </g>
   <g id="text_23">
    <text style="font: 16px 'Calibri'; text-anchor: middle" x="1592.605965" y="18.0825" transform="rotate(-0 1592.605965 18.0825)">Participant Number = 4</text>
   </g>
  </g>
 </g>
 <defs>
  <clipPath id="p3005266080">
   <rect x="56.2575" y="24.0825" width="421.145276" height="531.968819"/>
  </clipPath>
  <clipPath id="p0ebfe19ba1">
   <rect x="498.182776" y="24.0825" width="421.145276" height="531.968819"/>
  </clipPath>
  <clipPath id="p164a355a0c">
   <rect x="940.108051" y="24.0825" width="421.145276" height="531.968819"/>
  </clipPath>
  <clipPath id="p1ac5817452">
   <rect x="1382.033327" y="24.0825" width="421.145276" height="531.968819"/>
  </clipPath>
 </defs>
</svg>
