<?xml version="1.0" encoding="utf-8" standalone="no"?>
<!DOCTYPE svg PUBLIC "-//W3C//DTD SVG 1.1//EN"
  "http://www.w3.org/Graphics/SVG/1.1/DTD/svg11.dtd">
<svg xmlns:xlink="http://www.w3.org/1999/xlink" width="461.5375pt" height="338.5575pt" viewBox="0 0 461.5375 338.5575" xmlns="http://www.w3.org/2000/svg" version="1.1">
 <metadata>
  <rdf:RDF xmlns:dc="http://purl.org/dc/elements/1.1/" xmlns:cc="http://creativecommons.org/ns#" xmlns:rdf="http://www.w3.org/1999/02/22-rdf-syntax-ns#">
   <cc:Work>
    <dc:type rdf:resource="http://purl.org/dc/dcmitype/StillImage"/>
    <dc:date>2023-08-24T21:00:15.595944</dc:date>
    <dc:format>image/svg+xml</dc:format>
    <dc:creator>
     <cc:Agent>
      <dc:title>Matplotlib v3.7.1, https://matplotlib.org/</dc:title>
     </cc:Agent>
    </dc:creator>
   </cc:Work>
  </rdf:RDF>
 </metadata>
 <defs>
  <style type="text/css">*{stroke-linejoin: round; stroke-linecap: butt}</style>
 </defs>
 <g id="figure_1">
  <g id="patch_1">
   <path d="M 0 338.5575 
L 461.5375 338.5575 
L 461.5375 0 
L 0 0 
z
" style="fill: #ffffff"/>
  </g>
  <g id="axes_1">
   <g id="patch_2">
    <path d="M 56.2575 292.84 
L 327.2669 292.84 
L 327.2669 7.2 
L 56.2575 7.2 
z
" style="fill: #ffffff"/>
   </g>
   <g id="patch_3">
    <path d="M 110.594885 234.73192 
L 123.874345 234.73192 
L 123.874345 217.178457 
L 110.594885 217.178457 
L 110.594885 234.73192 
z
" clip-path="url(#p9870591657)" style="fill: #3274a1; stroke: #3f3f3f; stroke-width: 1.5; stroke-linejoin: miter"/>
   </g>
   <g id="patch_4">
    <path d="M 124.145355 261.699974 
L 137.424815 261.699974 
L 137.424815 242.680596 
L 124.145355 242.680596 
L 124.145355 261.699974 
z
" clip-path="url(#p9870591657)" style="fill: #e1812c; stroke: #3f3f3f; stroke-width: 1.5; stroke-linejoin: miter"/>
   </g>
   <g id="patch_5">
    <path d="M 246.099585 236.062629 
L 259.379045 236.062629 
L 259.379045 234.044246 
L 246.099585 234.044246 
L 246.099585 236.062629 
z
" clip-path="url(#p9870591657)" style="fill: #3274a1; stroke: #3f3f3f; stroke-width: 1.5; stroke-linejoin: miter"/>
   </g>
   <g id="patch_6">
    <path d="M 259.650055 242.883729 
L 272.929515 242.883729 
L 272.929515 230.294712 
L 259.650055 230.294712 
L 259.650055 242.883729 
z
" clip-path="url(#p9870591657)" style="fill: #e1812c; stroke: #3f3f3f; stroke-width: 1.5; stroke-linejoin: miter"/>
   </g>
   <g id="patch_7">
    <path d="M 124.00985 290.859138 
L 124.00985 290.859138 
L 124.00985 290.859138 
L 124.00985 290.859138 
z
" clip-path="url(#p9870591657)" style="fill: #3274a1; stroke: #3f3f3f; stroke-width: 0.75; stroke-linejoin: miter"/>
   </g>
   <g id="patch_8">
    <path d="M 124.00985 290.859138 
L 124.00985 290.859138 
L 124.00985 290.859138 
L 124.00985 290.859138 
z
" clip-path="url(#p9870591657)" style="fill: #e1812c; stroke: #3f3f3f; stroke-width: 0.75; stroke-linejoin: miter"/>
   </g>
   <g id="PathCollection_1"/>
   <g id="PathCollection_2"/>
   <g id="matplotlib.axis_1">
    <g id="xtick_1">
     <g id="line2d_1">
      <defs>
       <path id="ma66b64e427" d="M 0 0 
L 0 3.5 
" style="stroke: #000000; stroke-width: 0.8"/>
      </defs>
      <g>
       <use xlink:href="#ma66b64e427" x="124.00985" y="292.84" style="stroke: #000000; stroke-width: 0.8"/>
      </g>
     </g>
     <g id="text_1">
      <text style="font: 16px 'Calibri'; text-anchor: middle" x="124.00985" y="310.7775" transform="rotate(-0 124.00985 310.7775)">SNS_first</text>
     </g>
    </g>
    <g id="xtick_2">
     <g id="line2d_2">
      <g>
       <use xlink:href="#ma66b64e427" x="259.51455" y="292.84" style="stroke: #000000; stroke-width: 0.8"/>
      </g>
     </g>
     <g id="text_2">
      <text style="font: 16px 'Calibri'; text-anchor: middle" x="259.51455" y="310.7775" transform="rotate(-0 259.51455 310.7775)">Manual_first</text>
     </g>
    </g>
    <g id="text_3">
     <text style="font: 16px 'Calibri'; text-anchor: middle" x="191.7622" y="328.5125" transform="rotate(-0 191.7622 328.5125)">Group Type</text>
    </g>
   </g>
   <g id="matplotlib.axis_2">
    <g id="ytick_1">
     <g id="line2d_3">
      <defs>
       <path id="mdc15c846d9" d="M 0 0 
L -3.5 0 
" style="stroke: #000000; stroke-width: 0.8"/>
      </defs>
      <g>
       <use xlink:href="#mdc15c846d9" x="56.2575" y="290.859138" style="stroke: #000000; stroke-width: 0.8"/>
      </g>
     </g>
     <g id="text_4">
      <text style="font: 16px 'Calibri'; text-anchor: end" x="49.2575" y="296.300388" transform="rotate(-0 49.2575 296.300388)">0</text>
     </g>
    </g>
    <g id="ytick_2">
     <g id="line2d_4">
      <g>
       <use xlink:href="#mdc15c846d9" x="56.2575" y="239.10573" style="stroke: #000000; stroke-width: 0.8"/>
      </g>
     </g>
     <g id="text_5">
      <text style="font: 16px 'Calibri'; text-anchor: end" x="49.2575" y="244.54698" transform="rotate(-0 49.2575 244.54698)">20</text>
     </g>
    </g>
    <g id="ytick_3">
     <g id="line2d_5">
      <g>
       <use xlink:href="#mdc15c846d9" x="56.2575" y="187.352321" style="stroke: #000000; stroke-width: 0.8"/>
      </g>
     </g>
     <g id="text_6">
      <text style="font: 16px 'Calibri'; text-anchor: end" x="49.2575" y="192.793571" transform="rotate(-0 49.2575 192.793571)">40</text>
     </g>
    </g>
    <g id="ytick_4">
     <g id="line2d_6">
      <g>
       <use xlink:href="#mdc15c846d9" x="56.2575" y="135.598913" style="stroke: #000000; stroke-width: 0.8"/>
      </g>
     </g>
     <g id="text_7">
      <text style="font: 16px 'Calibri'; text-anchor: end" x="49.2575" y="141.040163" transform="rotate(-0 49.2575 141.040163)">60</text>
     </g>
    </g>
    <g id="ytick_5">
     <g id="line2d_7">
      <g>
       <use xlink:href="#mdc15c846d9" x="56.2575" y="83.845504" style="stroke: #000000; stroke-width: 0.8"/>
      </g>
     </g>
     <g id="text_8">
      <text style="font: 16px 'Calibri'; text-anchor: end" x="49.2575" y="89.286754" transform="rotate(-0 49.2575 89.286754)">80</text>
     </g>
    </g>
    <g id="ytick_6">
     <g id="line2d_8">
      <g>
       <use xlink:href="#mdc15c846d9" x="56.2575" y="32.092096" style="stroke: #000000; stroke-width: 0.8"/>
      </g>
     </g>
     <g id="text_9">
      <text style="font: 16px 'Calibri'; text-anchor: end" x="49.2575" y="37.533346" transform="rotate(-0 49.2575 37.533346)">100</text>
     </g>
    </g>
    <g id="text_10">
     <text style="font: 16px 'Calibri'; text-anchor: middle" x="18.0825" y="150.02" transform="rotate(-90 18.0825 150.02)">Deposit Time</text>
    </g>
   </g>
   <g id="line2d_9">
    <path d="M 117.234615 234.73192 
L 117.234615 240.267594 
" clip-path="url(#p9870591657)" style="fill: none; stroke: #3f3f3f; stroke-width: 1.5; stroke-linecap: square"/>
   </g>
   <g id="line2d_10">
    <path d="M 117.234615 217.178457 
L 117.234615 206.630466 
" clip-path="url(#p9870591657)" style="fill: none; stroke: #3f3f3f; stroke-width: 1.5; stroke-linecap: square"/>
   </g>
   <g id="line2d_11">
    <path d="M 113.91475 240.267594 
L 120.55448 240.267594 
" clip-path="url(#p9870591657)" style="fill: none; stroke: #3f3f3f; stroke-width: 1.5; stroke-linecap: square"/>
   </g>
   <g id="line2d_12">
    <path d="M 113.91475 206.630466 
L 120.55448 206.630466 
" clip-path="url(#p9870591657)" style="fill: none; stroke: #3f3f3f; stroke-width: 1.5; stroke-linecap: square"/>
   </g>
   <g id="line2d_13">
    <defs>
     <path id="m32569e6e4b" d="M 0 3.535534 
L 2.12132 0 
L 0 -3.535534 
L -2.12132 0 
z
" style="stroke: #3f3f3f; stroke-linejoin: miter"/>
    </defs>
    <g clip-path="url(#p9870591657)">
     <use xlink:href="#m32569e6e4b" x="117.234615" y="178.085873" style="fill: #3f3f3f; stroke: #3f3f3f; stroke-linejoin: miter"/>
    </g>
   </g>
   <g id="line2d_14">
    <path d="M 130.785085 261.699974 
L 130.785085 279.856364 
" clip-path="url(#p9870591657)" style="fill: none; stroke: #3f3f3f; stroke-width: 1.5; stroke-linecap: square"/>
   </g>
   <g id="line2d_15">
    <path d="M 130.785085 242.680596 
L 130.785085 238.484689 
" clip-path="url(#p9870591657)" style="fill: none; stroke: #3f3f3f; stroke-width: 1.5; stroke-linecap: square"/>
   </g>
   <g id="line2d_16">
    <path d="M 127.46522 279.856364 
L 134.10495 279.856364 
" clip-path="url(#p9870591657)" style="fill: none; stroke: #3f3f3f; stroke-width: 1.5; stroke-linecap: square"/>
   </g>
   <g id="line2d_17">
    <path d="M 127.46522 238.484689 
L 134.10495 238.484689 
" clip-path="url(#p9870591657)" style="fill: none; stroke: #3f3f3f; stroke-width: 1.5; stroke-linecap: square"/>
   </g>
   <g id="line2d_18"/>
   <g id="line2d_19">
    <path d="M 252.739315 236.062629 
L 252.739315 236.062629 
" clip-path="url(#p9870591657)" style="fill: none; stroke: #3f3f3f; stroke-width: 1.5; stroke-linecap: square"/>
   </g>
   <g id="line2d_20">
    <path d="M 252.739315 234.044246 
L 252.739315 234.044246 
" clip-path="url(#p9870591657)" style="fill: none; stroke: #3f3f3f; stroke-width: 1.5; stroke-linecap: square"/>
   </g>
   <g id="line2d_21">
    <path d="M 249.41945 236.062629 
L 256.05918 236.062629 
" clip-path="url(#p9870591657)" style="fill: none; stroke: #3f3f3f; stroke-width: 1.5; stroke-linecap: square"/>
   </g>
   <g id="line2d_22">
    <path d="M 249.41945 234.044246 
L 256.05918 234.044246 
" clip-path="url(#p9870591657)" style="fill: none; stroke: #3f3f3f; stroke-width: 1.5; stroke-linecap: square"/>
   </g>
   <g id="line2d_23">
    <g clip-path="url(#p9870591657)">
     <use xlink:href="#m32569e6e4b" x="252.739315" y="241.27161" style="fill: #3f3f3f; stroke: #3f3f3f; stroke-linejoin: miter"/>
     <use xlink:href="#m32569e6e4b" x="252.739315" y="193.358304" style="fill: #3f3f3f; stroke: #3f3f3f; stroke-linejoin: miter"/>
    </g>
   </g>
   <g id="line2d_24">
    <path d="M 266.289785 242.883729 
L 266.289785 257.889629 
" clip-path="url(#p9870591657)" style="fill: none; stroke: #3f3f3f; stroke-width: 1.5; stroke-linecap: square"/>
   </g>
   <g id="line2d_25">
    <path d="M 266.289785 230.294712 
L 266.289785 229.642619 
" clip-path="url(#p9870591657)" style="fill: none; stroke: #3f3f3f; stroke-width: 1.5; stroke-linecap: square"/>
   </g>
   <g id="line2d_26">
    <path d="M 262.96992 257.889629 
L 269.60965 257.889629 
" clip-path="url(#p9870591657)" style="fill: none; stroke: #3f3f3f; stroke-width: 1.5; stroke-linecap: square"/>
   </g>
   <g id="line2d_27">
    <path d="M 262.96992 229.642619 
L 269.60965 229.642619 
" clip-path="url(#p9870591657)" style="fill: none; stroke: #3f3f3f; stroke-width: 1.5; stroke-linecap: square"/>
   </g>
   <g id="line2d_28">
    <g clip-path="url(#p9870591657)">
     <use xlink:href="#m32569e6e4b" x="266.289785" y="20.183636" style="fill: #3f3f3f; stroke: #3f3f3f; stroke-linejoin: miter"/>
    </g>
   </g>
   <g id="line2d_29">
    <path d="M 110.594885 228.960768 
L 123.874345 228.960768 
" clip-path="url(#p9870591657)" style="fill: none; stroke: #3f3f3f; stroke-width: 1.5; stroke-linecap: square"/>
   </g>
   <g id="line2d_30">
    <path d="M 124.145355 244.865884 
L 137.424815 244.865884 
" clip-path="url(#p9870591657)" style="fill: none; stroke: #3f3f3f; stroke-width: 1.5; stroke-linecap: square"/>
   </g>
   <g id="line2d_31">
    <path d="M 246.099585 235.237162 
L 259.379045 235.237162 
" clip-path="url(#p9870591657)" style="fill: none; stroke: #3f3f3f; stroke-width: 1.5; stroke-linecap: square"/>
   </g>
   <g id="line2d_32">
    <path d="M 259.650055 241.196567 
L 272.929515 241.196567 
" clip-path="url(#p9870591657)" style="fill: none; stroke: #3f3f3f; stroke-width: 1.5; stroke-linecap: square"/>
   </g>
   <g id="patch_9">
    <path d="M 56.2575 292.84 
L 56.2575 7.2 
" style="fill: none; stroke: #000000; stroke-width: 0.8; stroke-linejoin: miter; stroke-linecap: square"/>
   </g>
   <g id="patch_10">
    <path d="M 56.2575 292.84 
L 327.2669 292.84 
" style="fill: none; stroke: #000000; stroke-width: 0.8; stroke-linejoin: miter; stroke-linecap: square"/>
   </g>
   <g id="PathCollection_3">
    <defs>
     <path id="C0_0_dc7f59c4c3" d="M 0 2.5 
C 0.663008 2.5 1.29895 2.236584 1.767767 1.767767 
C 2.236584 1.29895 2.5 0.663008 2.5 -0 
C 2.5 -0.663008 2.236584 -1.29895 1.767767 -1.767767 
C 1.29895 -2.236584 0.663008 -2.5 0 -2.5 
C -0.663008 -2.5 -1.29895 -2.236584 -1.767767 -1.767767 
C -2.236584 -1.29895 -2.5 -0.663008 -2.5 0 
C -2.5 0.663008 -2.236584 1.29895 -1.767767 1.767767 
C -1.29895 2.236584 -0.663008 2.5 0 2.5 
z
"/>
    </defs>
    <g clip-path="url(#p9870591657)">
     <use xlink:href="#C0_0_dc7f59c4c3" x="96.90891" y="178.085873" style="fill: #404040; fill-opacity: 0.6"/>
    </g>
    <g clip-path="url(#p9870591657)">
     <use xlink:href="#C0_0_dc7f59c4c3" x="96.90891" y="220.694455" style="fill: #404040; fill-opacity: 0.6"/>
    </g>
    <g clip-path="url(#p9870591657)">
     <use xlink:href="#C0_0_dc7f59c4c3" x="96.90891" y="238.484689" style="fill: #404040; fill-opacity: 0.6"/>
    </g>
    <g clip-path="url(#p9870591657)">
     <use xlink:href="#C0_0_dc7f59c4c3" x="96.90891" y="244.865884" style="fill: #404040; fill-opacity: 0.6"/>
    </g>
    <g clip-path="url(#p9870591657)">
     <use xlink:href="#C0_0_dc7f59c4c3" x="96.90891" y="279.856364" style="fill: #404040; fill-opacity: 0.6"/>
    </g>
    <g clip-path="url(#p9870591657)">
     <use xlink:href="#C0_0_dc7f59c4c3" x="96.90891" y="229.378677" style="fill: #404040; fill-opacity: 0.6"/>
    </g>
    <g clip-path="url(#p9870591657)">
     <use xlink:href="#C0_0_dc7f59c4c3" x="96.90891" y="233.462021" style="fill: #404040; fill-opacity: 0.6"/>
    </g>
    <g clip-path="url(#p9870591657)">
     <use xlink:href="#C0_0_dc7f59c4c3" x="96.90891" y="267.068096" style="fill: #404040; fill-opacity: 0.6"/>
    </g>
    <g clip-path="url(#p9870591657)">
     <use xlink:href="#C0_0_dc7f59c4c3" x="96.90891" y="256.331852" style="fill: #404040; fill-opacity: 0.6"/>
    </g>
    <g clip-path="url(#p9870591657)">
     <use xlink:href="#C0_0_dc7f59c4c3" x="96.90891" y="243.691082" style="fill: #404040; fill-opacity: 0.6"/>
    </g>
   </g>
   <g id="PathCollection_4">
    <defs>
     <path id="C1_0_fa0a99f9e1" d="M 0 2.5 
C 0.663008 2.5 1.29895 2.236584 1.767767 1.767767 
C 2.236584 1.29895 2.5 0.663008 2.5 -0 
C 2.5 -0.663008 2.236584 -1.29895 1.767767 -1.767767 
C 1.29895 -2.236584 0.663008 -2.5 0 -2.5 
C -0.663008 -2.5 -1.29895 -2.236584 -1.767767 -1.767767 
C -2.236584 -1.29895 -2.5 -0.663008 -2.5 0 
C -2.5 0.663008 -2.236584 1.29895 -1.767767 1.767767 
C -1.29895 2.236584 -0.663008 2.5 0 2.5 
z
"/>
    </defs>
    <g clip-path="url(#p9870591657)">
     <use xlink:href="#C1_0_fa0a99f9e1" x="151.11079" y="238.541618" style="fill: #404040; fill-opacity: 0.6"/>
    </g>
    <g clip-path="url(#p9870591657)">
     <use xlink:href="#C1_0_fa0a99f9e1" x="151.11079" y="241.670111" style="fill: #404040; fill-opacity: 0.6"/>
    </g>
    <g clip-path="url(#p9870591657)">
     <use xlink:href="#C1_0_fa0a99f9e1" x="151.11079" y="206.630466" style="fill: #404040; fill-opacity: 0.6"/>
    </g>
    <g clip-path="url(#p9870591657)">
     <use xlink:href="#C1_0_fa0a99f9e1" x="151.11079" y="240.267594" style="fill: #404040; fill-opacity: 0.6"/>
    </g>
    <g clip-path="url(#p9870591657)">
     <use xlink:href="#C1_0_fa0a99f9e1" x="151.11079" y="228.542859" style="fill: #404040; fill-opacity: 0.6"/>
    </g>
   </g>
   <g id="PathCollection_5">
    <defs>
     <path id="C2_0_e7edf00534" d="M 0 2.5 
C 0.663008 2.5 1.29895 2.236584 1.767767 1.767767 
C 2.236584 1.29895 2.5 0.663008 2.5 -0 
C 2.5 -0.663008 2.236584 -1.29895 1.767767 -1.767767 
C 1.29895 -2.236584 0.663008 -2.5 0 -2.5 
C -0.663008 -2.5 -1.29895 -2.236584 -1.767767 -1.767767 
C -2.236584 -1.29895 -2.5 -0.663008 -2.5 0 
C -2.5 0.663008 -2.236584 1.29895 -1.767767 1.767767 
C -1.29895 2.236584 -0.663008 2.5 0 2.5 
z
"/>
    </defs>
    <g clip-path="url(#p9870591657)">
     <use xlink:href="#C2_0_e7edf00534" x="232.41361" y="242.883729" style="fill: #404040; fill-opacity: 0.6"/>
    </g>
    <g clip-path="url(#p9870591657)">
     <use xlink:href="#C2_0_e7edf00534" x="232.41361" y="241.196567" style="fill: #404040; fill-opacity: 0.6"/>
    </g>
    <g clip-path="url(#p9870591657)">
     <use xlink:href="#C2_0_e7edf00534" x="232.41361" y="257.889629" style="fill: #404040; fill-opacity: 0.6"/>
    </g>
    <g clip-path="url(#p9870591657)">
     <use xlink:href="#C2_0_e7edf00534" x="232.41361" y="234.044246" style="fill: #404040; fill-opacity: 0.6"/>
    </g>
    <g clip-path="url(#p9870591657)">
     <use xlink:href="#C2_0_e7edf00534" x="232.41361" y="20.183636" style="fill: #404040; fill-opacity: 0.6"/>
    </g>
    <g clip-path="url(#p9870591657)">
     <use xlink:href="#C2_0_e7edf00534" x="232.41361" y="235.030149" style="fill: #404040; fill-opacity: 0.6"/>
    </g>
    <g clip-path="url(#p9870591657)">
     <use xlink:href="#C2_0_e7edf00534" x="232.41361" y="253.185245" style="fill: #404040; fill-opacity: 0.6"/>
    </g>
    <g clip-path="url(#p9870591657)">
     <use xlink:href="#C2_0_e7edf00534" x="232.41361" y="193.358304" style="fill: #404040; fill-opacity: 0.6"/>
    </g>
    <g clip-path="url(#p9870591657)">
     <use xlink:href="#C2_0_e7edf00534" x="232.41361" y="241.27161" style="fill: #404040; fill-opacity: 0.6"/>
    </g>
   </g>
   <g id="PathCollection_6">
    <defs>
     <path id="C3_0_bc40c89312" d="M 0 2.5 
C 0.663008 2.5 1.29895 2.236584 1.767767 1.767767 
C 2.236584 1.29895 2.5 0.663008 2.5 -0 
C 2.5 -0.663008 2.236584 -1.29895 1.767767 -1.767767 
C 1.29895 -2.236584 0.663008 -2.5 0 -2.5 
C -0.663008 -2.5 -1.29895 -2.236584 -1.767767 -1.767767 
C -2.236584 -1.29895 -2.5 -0.663008 -2.5 0 
C -2.5 0.663008 -2.236584 1.29895 -1.767767 1.767767 
C -1.29895 2.236584 -0.663008 2.5 0 2.5 
z
"/>
    </defs>
    <g clip-path="url(#p9870591657)">
     <use xlink:href="#C3_0_bc40c89312" x="286.61549" y="229.642619" style="fill: #404040; fill-opacity: 0.6"/>
    </g>
    <g clip-path="url(#p9870591657)">
     <use xlink:href="#C3_0_bc40c89312" x="286.61549" y="242.249749" style="fill: #404040; fill-opacity: 0.6"/>
    </g>
    <g clip-path="url(#p9870591657)">
     <use xlink:href="#C3_0_bc40c89312" x="286.61549" y="230.294712" style="fill: #404040; fill-opacity: 0.6"/>
    </g>
    <g clip-path="url(#p9870591657)">
     <use xlink:href="#C3_0_bc40c89312" x="286.61549" y="235.237162" style="fill: #404040; fill-opacity: 0.6"/>
    </g>
    <g clip-path="url(#p9870591657)">
     <use xlink:href="#C3_0_bc40c89312" x="286.61549" y="236.062629" style="fill: #404040; fill-opacity: 0.6"/>
    </g>
   </g>
  </g>
  <g id="legend_1">
   <g id="text_11">
    <text style="font: 16px 'Calibri'; text-anchor: start" x="346.75" y="151.28" transform="rotate(-0 346.75 151.28)">Type of Control</text>
   </g>
   <g id="patch_11">
    <path d="M 349.795 173.325 
L 381.795 173.325 
L 381.795 162.125 
L 349.795 162.125 
z
" style="fill: #3274a1; stroke: #3f3f3f; stroke-width: 0.75; stroke-linejoin: miter"/>
   </g>
   <g id="text_12">
    <text style="font: 16px 'Calibri'; text-anchor: start" x="394.595" y="173.325" transform="rotate(-0 394.595 173.325)">SNS</text>
   </g>
   <g id="patch_12">
    <path d="M 349.795 195.37 
L 381.795 195.37 
L 381.795 184.17 
L 349.795 184.17 
z
" style="fill: #e1812c; stroke: #3f3f3f; stroke-width: 0.75; stroke-linejoin: miter"/>
   </g>
   <g id="text_13">
    <text style="font: 16px 'Calibri'; text-anchor: start" x="394.595" y="195.37" transform="rotate(-0 394.595 195.37)">Manual</text>
   </g>
  </g>
 </g>
 <defs>
  <clipPath id="p9870591657">
   <rect x="56.2575" y="7.2" width="271.0094" height="285.64"/>
  </clipPath>
 </defs>
</svg>
