<?xml version="1.0" encoding="utf-8" standalone="no"?>
<!DOCTYPE svg PUBLIC "-//W3C//DTD SVG 1.1//EN"
  "http://www.w3.org/Graphics/SVG/1.1/DTD/svg11.dtd">
<svg xmlns:xlink="http://www.w3.org/1999/xlink" width="1017.128051pt" height="289.796909pt" viewBox="0 0 1017.128051 289.796909" xmlns="http://www.w3.org/2000/svg" version="1.1">
 <metadata>
  <rdf:RDF xmlns:dc="http://purl.org/dc/elements/1.1/" xmlns:cc="http://creativecommons.org/ns#" xmlns:rdf="http://www.w3.org/1999/02/22-rdf-syntax-ns#">
   <cc:Work>
    <dc:type rdf:resource="http://purl.org/dc/dcmitype/StillImage"/>
    <dc:date>2023-08-24T21:00:17.121334</dc:date>
    <dc:format>image/svg+xml</dc:format>
    <dc:creator>
     <cc:Agent>
      <dc:title>Matplotlib v3.7.1, https://matplotlib.org/</dc:title>
     </cc:Agent>
    </dc:creator>
   </cc:Work>
  </rdf:RDF>
 </metadata>
 <defs>
  <style type="text/css">*{stroke-linejoin: round; stroke-linecap: butt}</style>
 </defs>
 <g id="figure_1">
  <g id="patch_1">
   <path d="M 0 289.796909 
L 1017.128051 289.796909 
L 1017.128051 0 
L 0 0 
z
" style="fill: #ffffff"/>
  </g>
  <g id="axes_1">
   <g id="patch_2">
    <path d="M 56.2575 244.126909 
L 245.933511 244.126909 
L 245.933511 24.0825 
L 56.2575 24.0825 
z
" style="fill: #ffffff"/>
   </g>
   <g id="patch_3">
    <path d="M 66.120653 234.029618 
L 103.297151 234.029618 
L 103.297151 233.839072 
L 66.120653 233.839072 
L 66.120653 234.029618 
z
" clip-path="url(#pe413a8db04)" style="fill: #3274a1; stroke: #3f3f3f; stroke-width: 1.5; stroke-linejoin: miter"/>
   </g>
   <g id="patch_4">
    <path d="M 104.055855 160.903152 
L 141.232353 160.903152 
L 141.232353 129.862521 
L 104.055855 129.862521 
L 104.055855 160.903152 
z
" clip-path="url(#pe413a8db04)" style="fill: #e1812c; stroke: #3f3f3f; stroke-width: 1.5; stroke-linejoin: miter"/>
   </g>
   <g id="patch_5">
    <path d="M 160.958658 166.34896 
L 198.135157 166.34896 
L 198.135157 166.34896 
L 160.958658 166.34896 
L 160.958658 166.34896 
z
" clip-path="url(#pe413a8db04)" style="fill: #3274a1; stroke: #3f3f3f; stroke-width: 1.5; stroke-linejoin: miter"/>
   </g>
   <g id="patch_6">
    <path d="M 198.893861 160.001959 
L 236.070359 160.001959 
L 236.070359 160.001959 
L 198.893861 160.001959 
L 198.893861 160.001959 
z
" clip-path="url(#pe413a8db04)" style="fill: #e1812c; stroke: #3f3f3f; stroke-width: 1.5; stroke-linejoin: miter"/>
   </g>
   <g id="patch_7">
    <path d="M 103.676503 245.880404 
L 103.676503 245.880404 
L 103.676503 245.880404 
L 103.676503 245.880404 
z
" clip-path="url(#pe413a8db04)" style="fill: #3274a1; stroke: #3f3f3f; stroke-width: 0.75; stroke-linejoin: miter"/>
   </g>
   <g id="patch_8">
    <path d="M 103.676503 245.880404 
L 103.676503 245.880404 
L 103.676503 245.880404 
L 103.676503 245.880404 
z
" clip-path="url(#pe413a8db04)" style="fill: #e1812c; stroke: #3f3f3f; stroke-width: 0.75; stroke-linejoin: miter"/>
   </g>
   <g id="PathCollection_1"/>
   <g id="PathCollection_2"/>
   <g id="matplotlib.axis_1">
    <g id="xtick_1">
     <g id="line2d_1">
      <defs>
       <path id="mf74b1a5599" d="M 0 0 
L 0 3.5 
" style="stroke: #000000; stroke-width: 0.8"/>
      </defs>
      <g>
       <use xlink:href="#mf74b1a5599" x="103.676503" y="244.126909" style="stroke: #000000; stroke-width: 0.8"/>
      </g>
     </g>
     <g id="text_1">
      <text style="font: 16px 'Calibri'; text-anchor: middle" x="103.676503" y="262.009409" transform="rotate(-0 103.676503 262.009409)">graspable</text>
     </g>
    </g>
    <g id="xtick_2">
     <g id="line2d_2">
      <g>
       <use xlink:href="#mf74b1a5599" x="198.514509" y="244.126909" style="stroke: #000000; stroke-width: 0.8"/>
      </g>
     </g>
     <g id="text_2">
      <text style="font: 16px 'Calibri'; text-anchor: middle" x="198.514509" y="262.009409" transform="rotate(-0 198.514509 262.009409)">breakable</text>
     </g>
    </g>
    <g id="text_3">
     <text style="font: 16px 'Calibri'; text-anchor: middle" x="151.095506" y="279.744409" transform="rotate(-0 151.095506 279.744409)">Object Type</text>
    </g>
   </g>
   <g id="matplotlib.axis_2">
    <g id="ytick_1">
     <g id="line2d_3">
      <defs>
       <path id="mc56576a750" d="M 0 0 
L -3.5 0 
" style="stroke: #000000; stroke-width: 0.8"/>
      </defs>
      <g>
       <use xlink:href="#mc56576a750" x="56.2575" y="178.070568" style="stroke: #000000; stroke-width: 0.8"/>
      </g>
     </g>
     <g id="text_4">
      <text style="font: 16px 'Calibri'; text-anchor: end" x="49.2575" y="183.511818" transform="rotate(-0 49.2575 183.511818)">50</text>
     </g>
    </g>
    <g id="ytick_2">
     <g id="line2d_4">
      <g>
       <use xlink:href="#mc56576a750" x="56.2575" y="110.260732" style="stroke: #000000; stroke-width: 0.8"/>
      </g>
     </g>
     <g id="text_5">
      <text style="font: 16px 'Calibri'; text-anchor: end" x="49.2575" y="115.701982" transform="rotate(-0 49.2575 115.701982)">100</text>
     </g>
    </g>
    <g id="ytick_3">
     <g id="line2d_5">
      <g>
       <use xlink:href="#mc56576a750" x="56.2575" y="42.450896" style="stroke: #000000; stroke-width: 0.8"/>
      </g>
     </g>
     <g id="text_6">
      <text style="font: 16px 'Calibri'; text-anchor: end" x="49.2575" y="47.892146" transform="rotate(-0 49.2575 47.892146)">150</text>
     </g>
    </g>
    <g id="text_7">
     <text style="font: 16px 'Calibri'; text-anchor: middle" x="18.0825" y="134.104705" transform="rotate(-90 18.0825 134.104705)">Grasp Time</text>
    </g>
   </g>
   <g id="line2d_6">
    <path d="M 84.708902 234.029618 
L 84.708902 234.124891 
" clip-path="url(#pe413a8db04)" style="fill: none; stroke: #3f3f3f; stroke-width: 1.5; stroke-linecap: square"/>
   </g>
   <g id="line2d_7">
    <path d="M 84.708902 233.839072 
L 84.708902 233.7438 
" clip-path="url(#pe413a8db04)" style="fill: none; stroke: #3f3f3f; stroke-width: 1.5; stroke-linecap: square"/>
   </g>
   <g id="line2d_8">
    <path d="M 75.414777 234.124891 
L 94.003026 234.124891 
" clip-path="url(#pe413a8db04)" style="fill: none; stroke: #3f3f3f; stroke-width: 1.5; stroke-linecap: square"/>
   </g>
   <g id="line2d_9">
    <path d="M 75.414777 233.7438 
L 94.003026 233.7438 
" clip-path="url(#pe413a8db04)" style="fill: none; stroke: #3f3f3f; stroke-width: 1.5; stroke-linecap: square"/>
   </g>
   <g id="line2d_10"/>
   <g id="line2d_11">
    <path d="M 122.644104 160.903152 
L 122.644104 181.288823 
" clip-path="url(#pe413a8db04)" style="fill: none; stroke: #3f3f3f; stroke-width: 1.5; stroke-linecap: square"/>
   </g>
   <g id="line2d_12">
    <path d="M 122.644104 129.862521 
L 122.644104 119.207562 
" clip-path="url(#pe413a8db04)" style="fill: none; stroke: #3f3f3f; stroke-width: 1.5; stroke-linecap: square"/>
   </g>
   <g id="line2d_13">
    <path d="M 113.349979 181.288823 
L 131.938229 181.288823 
" clip-path="url(#pe413a8db04)" style="fill: none; stroke: #3f3f3f; stroke-width: 1.5; stroke-linecap: square"/>
   </g>
   <g id="line2d_14">
    <path d="M 113.349979 119.207562 
L 131.938229 119.207562 
" clip-path="url(#pe413a8db04)" style="fill: none; stroke: #3f3f3f; stroke-width: 1.5; stroke-linecap: square"/>
   </g>
   <g id="line2d_15"/>
   <g id="line2d_16">
    <path d="M 179.546907 166.34896 
L 179.546907 166.34896 
" clip-path="url(#pe413a8db04)" style="fill: none; stroke: #3f3f3f; stroke-width: 1.5; stroke-linecap: square"/>
   </g>
   <g id="line2d_17">
    <path d="M 179.546907 166.34896 
L 179.546907 166.34896 
" clip-path="url(#pe413a8db04)" style="fill: none; stroke: #3f3f3f; stroke-width: 1.5; stroke-linecap: square"/>
   </g>
   <g id="line2d_18">
    <path d="M 170.252783 166.34896 
L 188.841032 166.34896 
" clip-path="url(#pe413a8db04)" style="fill: none; stroke: #3f3f3f; stroke-width: 1.5; stroke-linecap: square"/>
   </g>
   <g id="line2d_19">
    <path d="M 170.252783 166.34896 
L 188.841032 166.34896 
" clip-path="url(#pe413a8db04)" style="fill: none; stroke: #3f3f3f; stroke-width: 1.5; stroke-linecap: square"/>
   </g>
   <g id="line2d_20"/>
   <g id="line2d_21">
    <path d="M 217.48211 160.001959 
L 217.48211 160.001959 
" clip-path="url(#pe413a8db04)" style="fill: none; stroke: #3f3f3f; stroke-width: 1.5; stroke-linecap: square"/>
   </g>
   <g id="line2d_22">
    <path d="M 217.48211 160.001959 
L 217.48211 160.001959 
" clip-path="url(#pe413a8db04)" style="fill: none; stroke: #3f3f3f; stroke-width: 1.5; stroke-linecap: square"/>
   </g>
   <g id="line2d_23">
    <path d="M 208.187985 160.001959 
L 226.776234 160.001959 
" clip-path="url(#pe413a8db04)" style="fill: none; stroke: #3f3f3f; stroke-width: 1.5; stroke-linecap: square"/>
   </g>
   <g id="line2d_24">
    <path d="M 208.187985 160.001959 
L 226.776234 160.001959 
" clip-path="url(#pe413a8db04)" style="fill: none; stroke: #3f3f3f; stroke-width: 1.5; stroke-linecap: square"/>
   </g>
   <g id="line2d_25"/>
   <g id="line2d_26">
    <path d="M 66.120653 233.934345 
L 103.297151 233.934345 
" clip-path="url(#pe413a8db04)" style="fill: none; stroke: #3f3f3f; stroke-width: 1.5; stroke-linecap: square"/>
   </g>
   <g id="line2d_27">
    <path d="M 104.055855 140.517481 
L 141.232353 140.517481 
" clip-path="url(#pe413a8db04)" style="fill: none; stroke: #3f3f3f; stroke-width: 1.5; stroke-linecap: square"/>
   </g>
   <g id="line2d_28">
    <path d="M 160.958658 166.34896 
L 198.135157 166.34896 
" clip-path="url(#pe413a8db04)" style="fill: none; stroke: #3f3f3f; stroke-width: 1.5; stroke-linecap: square"/>
   </g>
   <g id="line2d_29">
    <path d="M 198.893861 160.001959 
L 236.070359 160.001959 
" clip-path="url(#pe413a8db04)" style="fill: none; stroke: #3f3f3f; stroke-width: 1.5; stroke-linecap: square"/>
   </g>
   <g id="patch_9">
    <path d="M 56.2575 244.126909 
L 56.2575 24.0825 
" style="fill: none; stroke: #000000; stroke-width: 0.8; stroke-linejoin: miter; stroke-linecap: square"/>
   </g>
   <g id="patch_10">
    <path d="M 56.2575 244.126909 
L 245.933511 244.126909 
" style="fill: none; stroke: #000000; stroke-width: 0.8; stroke-linejoin: miter; stroke-linecap: square"/>
   </g>
   <g id="PathCollection_3">
    <defs>
     <path id="C0_0_becea804b5" d="M 0 4 
C 1.060812 4 2.078319 3.578535 2.828427 2.828427 
C 3.578535 2.078319 4 1.060812 4 -0 
C 4 -1.060812 3.578535 -2.078319 2.828427 -2.828427 
C 2.078319 -3.578535 1.060812 -4 0 -4 
C -1.060812 -4 -2.078319 -3.578535 -2.828427 -2.828427 
C -3.578535 -2.078319 -4 -1.060812 -4 0 
C -4 1.060812 -3.578535 2.078319 -2.828427 2.828427 
C -2.078319 3.578535 -1.060812 4 0 4 
z
"/>
    </defs>
    <g clip-path="url(#pe413a8db04)">
     <use xlink:href="#C0_0_becea804b5" x="103.676503" y="234.124891" style="fill: #ff0000"/>
    </g>
    <g clip-path="url(#pe413a8db04)">
     <use xlink:href="#C0_0_becea804b5" x="103.676503" y="233.7438" style="fill: #ff0000"/>
    </g>
    <g clip-path="url(#pe413a8db04)">
     <use xlink:href="#C0_0_becea804b5" x="103.676503" y="119.207562" style="fill: #ff0000"/>
    </g>
    <g clip-path="url(#pe413a8db04)">
     <use xlink:href="#C0_0_becea804b5" x="103.676503" y="140.517481" style="fill: #ff0000"/>
    </g>
    <g clip-path="url(#pe413a8db04)">
     <use xlink:href="#C0_0_becea804b5" x="103.676503" y="181.288823" style="fill: #ff0000"/>
    </g>
   </g>
   <g id="PathCollection_4">
    <defs>
     <path id="C1_0_464a1e946e" d="M 0 4 
C 1.060812 4 2.078319 3.578535 2.828427 2.828427 
C 3.578535 2.078319 4 1.060812 4 -0 
C 4 -1.060812 3.578535 -2.078319 2.828427 -2.828427 
C 2.078319 -3.578535 1.060812 -4 0 -4 
C -1.060812 -4 -2.078319 -3.578535 -2.828427 -2.828427 
C -3.578535 -2.078319 -4 -1.060812 -4 0 
C -4 1.060812 -3.578535 2.078319 -2.828427 2.828427 
C -2.078319 3.578535 -1.060812 4 0 4 
z
"/>
    </defs>
    <g clip-path="url(#pe413a8db04)">
     <use xlink:href="#C1_0_464a1e946e" x="198.514509" y="166.34896" style="fill: #0000ff"/>
    </g>
    <g clip-path="url(#pe413a8db04)">
     <use xlink:href="#C1_0_464a1e946e" x="198.514509" y="160.001959" style="fill: #0000ff"/>
    </g>
   </g>
   <g id="text_8">
    <text style="font: 16px 'Calibri'; text-anchor: middle" x="151.095506" y="18.0825" transform="rotate(-0 151.095506 18.0825)">Participant Number = 1</text>
   </g>
  </g>
  <g id="axes_2">
   <g id="patch_11">
    <path d="M 266.713511 244.126909 
L 456.389523 244.126909 
L 456.389523 24.0825 
L 266.713511 24.0825 
z
" style="fill: #ffffff"/>
   </g>
   <g id="patch_12">
    <path d="M 276.576664 216.928316 
L 313.753162 216.928316 
L 313.753162 192.025832 
L 276.576664 192.025832 
L 276.576664 216.928316 
z
" clip-path="url(#p9a8cc7e4bc)" style="fill: #3274a1; stroke: #3f3f3f; stroke-width: 1.5; stroke-linejoin: miter"/>
   </g>
   <g id="patch_13">
    <path d="M 314.511866 144.603702 
L 351.688365 144.603702 
L 351.688365 108.277973 
L 314.511866 108.277973 
L 314.511866 144.603702 
z
" clip-path="url(#p9a8cc7e4bc)" style="fill: #e1812c; stroke: #3f3f3f; stroke-width: 1.5; stroke-linejoin: miter"/>
   </g>
   <g id="patch_14">
    <path d="M 371.41467 205.718672 
L 408.591168 205.718672 
L 408.591168 169.838454 
L 371.41467 169.838454 
L 371.41467 205.718672 
z
" clip-path="url(#p9a8cc7e4bc)" style="fill: #3274a1; stroke: #3f3f3f; stroke-width: 1.5; stroke-linejoin: miter"/>
   </g>
   <g id="patch_15">
    <path d="M 314.132514 245.880404 
L 314.132514 245.880404 
L 314.132514 245.880404 
L 314.132514 245.880404 
z
" clip-path="url(#p9a8cc7e4bc)" style="fill: #3274a1; stroke: #3f3f3f; stroke-width: 0.75; stroke-linejoin: miter"/>
   </g>
   <g id="patch_16">
    <path d="M 314.132514 245.880404 
L 314.132514 245.880404 
L 314.132514 245.880404 
L 314.132514 245.880404 
z
" clip-path="url(#p9a8cc7e4bc)" style="fill: #e1812c; stroke: #3f3f3f; stroke-width: 0.75; stroke-linejoin: miter"/>
   </g>
   <g id="PathCollection_5"/>
   <g id="PathCollection_6"/>
   <g id="matplotlib.axis_3">
    <g id="xtick_3">
     <g id="line2d_30">
      <g>
       <use xlink:href="#mf74b1a5599" x="314.132514" y="244.126909" style="stroke: #000000; stroke-width: 0.8"/>
      </g>
     </g>
     <g id="text_9">
      <text style="font: 16px 'Calibri'; text-anchor: middle" x="314.132514" y="262.009409" transform="rotate(-0 314.132514 262.009409)">graspable</text>
     </g>
    </g>
    <g id="xtick_4">
     <g id="line2d_31">
      <g>
       <use xlink:href="#mf74b1a5599" x="408.97052" y="244.126909" style="stroke: #000000; stroke-width: 0.8"/>
      </g>
     </g>
     <g id="text_10">
      <text style="font: 16px 'Calibri'; text-anchor: middle" x="408.97052" y="262.009409" transform="rotate(-0 408.97052 262.009409)">breakable</text>
     </g>
    </g>
    <g id="text_11">
     <text style="font: 16px 'Calibri'; text-anchor: middle" x="361.551517" y="279.744409" transform="rotate(-0 361.551517 279.744409)">Object Type</text>
    </g>
   </g>
   <g id="matplotlib.axis_4">
    <g id="ytick_4">
     <g id="line2d_32">
      <g>
       <use xlink:href="#mc56576a750" x="266.713511" y="178.070568" style="stroke: #000000; stroke-width: 0.8"/>
      </g>
     </g>
    </g>
    <g id="ytick_5">
     <g id="line2d_33">
      <g>
       <use xlink:href="#mc56576a750" x="266.713511" y="110.260732" style="stroke: #000000; stroke-width: 0.8"/>
      </g>
     </g>
    </g>
    <g id="ytick_6">
     <g id="line2d_34">
      <g>
       <use xlink:href="#mc56576a750" x="266.713511" y="42.450896" style="stroke: #000000; stroke-width: 0.8"/>
      </g>
     </g>
    </g>
   </g>
   <g id="line2d_35">
    <path d="M 295.164913 216.928316 
L 295.164913 229.379559 
" clip-path="url(#p9a8cc7e4bc)" style="fill: none; stroke: #3f3f3f; stroke-width: 1.5; stroke-linecap: square"/>
   </g>
   <g id="line2d_36">
    <path d="M 295.164913 192.025832 
L 295.164913 179.57459 
" clip-path="url(#p9a8cc7e4bc)" style="fill: none; stroke: #3f3f3f; stroke-width: 1.5; stroke-linecap: square"/>
   </g>
   <g id="line2d_37">
    <path d="M 285.870789 229.379559 
L 304.459038 229.379559 
" clip-path="url(#p9a8cc7e4bc)" style="fill: none; stroke: #3f3f3f; stroke-width: 1.5; stroke-linecap: square"/>
   </g>
   <g id="line2d_38">
    <path d="M 285.870789 179.57459 
L 304.459038 179.57459 
" clip-path="url(#p9a8cc7e4bc)" style="fill: none; stroke: #3f3f3f; stroke-width: 1.5; stroke-linecap: square"/>
   </g>
   <g id="line2d_39"/>
   <g id="line2d_40">
    <path d="M 333.100115 144.603702 
L 333.100115 158.053104 
" clip-path="url(#p9a8cc7e4bc)" style="fill: none; stroke: #3f3f3f; stroke-width: 1.5; stroke-linecap: square"/>
   </g>
   <g id="line2d_41">
    <path d="M 333.100115 108.277973 
L 333.100115 85.401646 
" clip-path="url(#p9a8cc7e4bc)" style="fill: none; stroke: #3f3f3f; stroke-width: 1.5; stroke-linecap: square"/>
   </g>
   <g id="line2d_42">
    <path d="M 323.805991 158.053104 
L 342.39424 158.053104 
" clip-path="url(#p9a8cc7e4bc)" style="fill: none; stroke: #3f3f3f; stroke-width: 1.5; stroke-linecap: square"/>
   </g>
   <g id="line2d_43">
    <path d="M 323.805991 85.401646 
L 342.39424 85.401646 
" clip-path="url(#p9a8cc7e4bc)" style="fill: none; stroke: #3f3f3f; stroke-width: 1.5; stroke-linecap: square"/>
   </g>
   <g id="line2d_44"/>
   <g id="line2d_45">
    <path d="M 390.002919 205.718672 
L 390.002919 233.875351 
" clip-path="url(#p9a8cc7e4bc)" style="fill: none; stroke: #3f3f3f; stroke-width: 1.5; stroke-linecap: square"/>
   </g>
   <g id="line2d_46">
    <path d="M 390.002919 169.838454 
L 390.002919 162.114914 
" clip-path="url(#p9a8cc7e4bc)" style="fill: none; stroke: #3f3f3f; stroke-width: 1.5; stroke-linecap: square"/>
   </g>
   <g id="line2d_47">
    <path d="M 380.708794 233.875351 
L 399.297043 233.875351 
" clip-path="url(#p9a8cc7e4bc)" style="fill: none; stroke: #3f3f3f; stroke-width: 1.5; stroke-linecap: square"/>
   </g>
   <g id="line2d_48">
    <path d="M 380.708794 162.114914 
L 399.297043 162.114914 
" clip-path="url(#p9a8cc7e4bc)" style="fill: none; stroke: #3f3f3f; stroke-width: 1.5; stroke-linecap: square"/>
   </g>
   <g id="line2d_49"/>
   <g id="line2d_50">
    <path d="M 276.576664 204.477074 
L 313.753162 204.477074 
" clip-path="url(#p9a8cc7e4bc)" style="fill: none; stroke: #3f3f3f; stroke-width: 1.5; stroke-linecap: square"/>
   </g>
   <g id="line2d_51">
    <path d="M 314.511866 131.154299 
L 351.688365 131.154299 
" clip-path="url(#p9a8cc7e4bc)" style="fill: none; stroke: #3f3f3f; stroke-width: 1.5; stroke-linecap: square"/>
   </g>
   <g id="line2d_52">
    <path d="M 371.41467 177.561994 
L 408.591168 177.561994 
" clip-path="url(#p9a8cc7e4bc)" style="fill: none; stroke: #3f3f3f; stroke-width: 1.5; stroke-linecap: square"/>
   </g>
   <g id="patch_17">
    <path d="M 266.713511 244.126909 
L 266.713511 24.0825 
" style="fill: none; stroke: #000000; stroke-width: 0.8; stroke-linejoin: miter; stroke-linecap: square"/>
   </g>
   <g id="patch_18">
    <path d="M 266.713511 244.126909 
L 456.389523 244.126909 
" style="fill: none; stroke: #000000; stroke-width: 0.8; stroke-linejoin: miter; stroke-linecap: square"/>
   </g>
   <g id="PathCollection_7">
    <defs>
     <path id="C2_0_3116874b8c" d="M 0 4 
C 1.060812 4 2.078319 3.578535 2.828427 2.828427 
C 3.578535 2.078319 4 1.060812 4 -0 
C 4 -1.060812 3.578535 -2.078319 2.828427 -2.828427 
C 2.078319 -3.578535 1.060812 -4 0 -4 
C -1.060812 -4 -2.078319 -3.578535 -2.828427 -2.828427 
C -3.578535 -2.078319 -4 -1.060812 -4 0 
C -4 1.060812 -3.578535 2.078319 -2.828427 2.828427 
C -2.078319 3.578535 -1.060812 4 0 4 
z
"/>
    </defs>
    <g clip-path="url(#p9a8cc7e4bc)">
     <use xlink:href="#C2_0_3116874b8c" x="314.132514" y="179.57459" style="fill: #0000ff"/>
    </g>
    <g clip-path="url(#p9a8cc7e4bc)">
     <use xlink:href="#C2_0_3116874b8c" x="314.132514" y="229.379559" style="fill: #0000ff"/>
    </g>
    <g clip-path="url(#p9a8cc7e4bc)">
     <use xlink:href="#C2_0_3116874b8c" x="314.132514" y="158.053104" style="fill: #0000ff"/>
    </g>
    <g clip-path="url(#p9a8cc7e4bc)">
     <use xlink:href="#C2_0_3116874b8c" x="314.132514" y="85.401646" style="fill: #0000ff"/>
    </g>
    <g clip-path="url(#p9a8cc7e4bc)">
     <use xlink:href="#C2_0_3116874b8c" x="314.132514" y="131.154299" style="fill: #0000ff"/>
    </g>
   </g>
   <g id="PathCollection_8">
    <defs>
     <path id="C3_0_122eaa0edd" d="M 0 4 
C 1.060812 4 2.078319 3.578535 2.828427 2.828427 
C 3.578535 2.078319 4 1.060812 4 -0 
C 4 -1.060812 3.578535 -2.078319 2.828427 -2.828427 
C 2.078319 -3.578535 1.060812 -4 0 -4 
C -1.060812 -4 -2.078319 -3.578535 -2.828427 -2.828427 
C -3.578535 -2.078319 -4 -1.060812 -4 0 
C -4 1.060812 -3.578535 2.078319 -2.828427 2.828427 
C -2.078319 3.578535 -1.060812 4 0 4 
z
"/>
    </defs>
    <g clip-path="url(#p9a8cc7e4bc)">
     <use xlink:href="#C3_0_122eaa0edd" x="408.97052" y="233.875351" style="fill: #ff0000"/>
    </g>
    <g clip-path="url(#p9a8cc7e4bc)">
     <use xlink:href="#C3_0_122eaa0edd" x="408.97052" y="177.561994" style="fill: #ff0000"/>
    </g>
    <g clip-path="url(#p9a8cc7e4bc)">
     <use xlink:href="#C3_0_122eaa0edd" x="408.97052" y="162.114914" style="fill: #ff0000"/>
    </g>
   </g>
   <g id="text_12">
    <text style="font: 16px 'Calibri'; text-anchor: middle" x="361.551517" y="18.0825" transform="rotate(-0 361.551517 18.0825)">Participant Number = 2</text>
   </g>
  </g>
  <g id="axes_3">
   <g id="patch_19">
    <path d="M 477.169523 244.126909 
L 666.845534 244.126909 
L 666.845534 24.0825 
L 477.169523 24.0825 
z
" style="fill: #ffffff"/>
   </g>
   <g id="patch_20">
    <path d="M 487.032675 232.444563 
L 524.209174 232.444563 
L 524.209174 232.444563 
L 487.032675 232.444563 
L 487.032675 232.444563 
z
" clip-path="url(#p32b6e3dff2)" style="fill: #3274a1; stroke: #3f3f3f; stroke-width: 1.5; stroke-linejoin: miter"/>
   </g>
   <g id="patch_21">
    <path d="M 524.967878 108.859103 
L 562.144376 108.859103 
L 562.144376 63.739794 
L 524.967878 63.739794 
L 524.967878 108.859103 
z
" clip-path="url(#p32b6e3dff2)" style="fill: #e1812c; stroke: #3f3f3f; stroke-width: 1.5; stroke-linejoin: miter"/>
   </g>
   <g id="patch_22">
    <path d="M 619.805883 111.905799 
L 656.982382 111.905799 
L 656.982382 110.709633 
L 619.805883 110.709633 
L 619.805883 111.905799 
z
" clip-path="url(#p32b6e3dff2)" style="fill: #e1812c; stroke: #3f3f3f; stroke-width: 1.5; stroke-linejoin: miter"/>
   </g>
   <g id="patch_23">
    <path d="M 524.588526 245.880404 
L 524.588526 245.880404 
L 524.588526 245.880404 
L 524.588526 245.880404 
z
" clip-path="url(#p32b6e3dff2)" style="fill: #3274a1; stroke: #3f3f3f; stroke-width: 0.75; stroke-linejoin: miter"/>
   </g>
   <g id="patch_24">
    <path d="M 524.588526 245.880404 
L 524.588526 245.880404 
L 524.588526 245.880404 
L 524.588526 245.880404 
z
" clip-path="url(#p32b6e3dff2)" style="fill: #e1812c; stroke: #3f3f3f; stroke-width: 0.75; stroke-linejoin: miter"/>
   </g>
   <g id="PathCollection_9"/>
   <g id="PathCollection_10"/>
   <g id="matplotlib.axis_5">
    <g id="xtick_5">
     <g id="line2d_53">
      <g>
       <use xlink:href="#mf74b1a5599" x="524.588526" y="244.126909" style="stroke: #000000; stroke-width: 0.8"/>
      </g>
     </g>
     <g id="text_13">
      <text style="font: 16px 'Calibri'; text-anchor: middle" x="524.588526" y="262.009409" transform="rotate(-0 524.588526 262.009409)">graspable</text>
     </g>
    </g>
    <g id="xtick_6">
     <g id="line2d_54">
      <g>
       <use xlink:href="#mf74b1a5599" x="619.426531" y="244.126909" style="stroke: #000000; stroke-width: 0.8"/>
      </g>
     </g>
     <g id="text_14">
      <text style="font: 16px 'Calibri'; text-anchor: middle" x="619.426531" y="262.009409" transform="rotate(-0 619.426531 262.009409)">breakable</text>
     </g>
    </g>
    <g id="text_15">
     <text style="font: 16px 'Calibri'; text-anchor: middle" x="572.007529" y="279.744409" transform="rotate(-0 572.007529 279.744409)">Object Type</text>
    </g>
   </g>
   <g id="matplotlib.axis_6">
    <g id="ytick_7">
     <g id="line2d_55">
      <g>
       <use xlink:href="#mc56576a750" x="477.169523" y="178.070568" style="stroke: #000000; stroke-width: 0.8"/>
      </g>
     </g>
    </g>
    <g id="ytick_8">
     <g id="line2d_56">
      <g>
       <use xlink:href="#mc56576a750" x="477.169523" y="110.260732" style="stroke: #000000; stroke-width: 0.8"/>
      </g>
     </g>
    </g>
    <g id="ytick_9">
     <g id="line2d_57">
      <g>
       <use xlink:href="#mc56576a750" x="477.169523" y="42.450896" style="stroke: #000000; stroke-width: 0.8"/>
      </g>
     </g>
    </g>
   </g>
   <g id="line2d_58">
    <path d="M 505.620925 232.444563 
L 505.620925 232.444563 
" clip-path="url(#p32b6e3dff2)" style="fill: none; stroke: #3f3f3f; stroke-width: 1.5; stroke-linecap: square"/>
   </g>
   <g id="line2d_59">
    <path d="M 505.620925 232.444563 
L 505.620925 232.444563 
" clip-path="url(#p32b6e3dff2)" style="fill: none; stroke: #3f3f3f; stroke-width: 1.5; stroke-linecap: square"/>
   </g>
   <g id="line2d_60">
    <path d="M 496.3268 232.444563 
L 514.915049 232.444563 
" clip-path="url(#p32b6e3dff2)" style="fill: none; stroke: #3f3f3f; stroke-width: 1.5; stroke-linecap: square"/>
   </g>
   <g id="line2d_61">
    <path d="M 496.3268 232.444563 
L 514.915049 232.444563 
" clip-path="url(#p32b6e3dff2)" style="fill: none; stroke: #3f3f3f; stroke-width: 1.5; stroke-linecap: square"/>
   </g>
   <g id="line2d_62"/>
   <g id="line2d_63">
    <path d="M 543.556127 108.859103 
L 543.556127 124.323136 
" clip-path="url(#p32b6e3dff2)" style="fill: none; stroke: #3f3f3f; stroke-width: 1.5; stroke-linecap: square"/>
   </g>
   <g id="line2d_64">
    <path d="M 543.556127 63.739794 
L 543.556127 34.084519 
" clip-path="url(#p32b6e3dff2)" style="fill: none; stroke: #3f3f3f; stroke-width: 1.5; stroke-linecap: square"/>
   </g>
   <g id="line2d_65">
    <path d="M 534.262002 124.323136 
L 552.850251 124.323136 
" clip-path="url(#p32b6e3dff2)" style="fill: none; stroke: #3f3f3f; stroke-width: 1.5; stroke-linecap: square"/>
   </g>
   <g id="line2d_66">
    <path d="M 534.262002 34.084519 
L 552.850251 34.084519 
" clip-path="url(#p32b6e3dff2)" style="fill: none; stroke: #3f3f3f; stroke-width: 1.5; stroke-linecap: square"/>
   </g>
   <g id="line2d_67"/>
   <g id="line2d_68">
    <path d="M 638.394133 111.905799 
L 638.394133 112.503881 
" clip-path="url(#p32b6e3dff2)" style="fill: none; stroke: #3f3f3f; stroke-width: 1.5; stroke-linecap: square"/>
   </g>
   <g id="line2d_69">
    <path d="M 638.394133 110.709633 
L 638.394133 110.11155 
" clip-path="url(#p32b6e3dff2)" style="fill: none; stroke: #3f3f3f; stroke-width: 1.5; stroke-linecap: square"/>
   </g>
   <g id="line2d_70">
    <path d="M 629.100008 112.503881 
L 647.688257 112.503881 
" clip-path="url(#p32b6e3dff2)" style="fill: none; stroke: #3f3f3f; stroke-width: 1.5; stroke-linecap: square"/>
   </g>
   <g id="line2d_71">
    <path d="M 629.100008 110.11155 
L 647.688257 110.11155 
" clip-path="url(#p32b6e3dff2)" style="fill: none; stroke: #3f3f3f; stroke-width: 1.5; stroke-linecap: square"/>
   </g>
   <g id="line2d_72"/>
   <g id="line2d_73">
    <path d="M 487.032675 232.444563 
L 524.209174 232.444563 
" clip-path="url(#p32b6e3dff2)" style="fill: none; stroke: #3f3f3f; stroke-width: 1.5; stroke-linecap: square"/>
   </g>
   <g id="line2d_74">
    <path d="M 524.967878 93.39507 
L 562.144376 93.39507 
" clip-path="url(#p32b6e3dff2)" style="fill: none; stroke: #3f3f3f; stroke-width: 1.5; stroke-linecap: square"/>
   </g>
   <g id="line2d_75">
    <path d="M 619.805883 111.307716 
L 656.982382 111.307716 
" clip-path="url(#p32b6e3dff2)" style="fill: none; stroke: #3f3f3f; stroke-width: 1.5; stroke-linecap: square"/>
   </g>
   <g id="patch_25">
    <path d="M 477.169523 244.126909 
L 477.169523 24.0825 
" style="fill: none; stroke: #000000; stroke-width: 0.8; stroke-linejoin: miter; stroke-linecap: square"/>
   </g>
   <g id="patch_26">
    <path d="M 477.169523 244.126909 
L 666.845534 244.126909 
" style="fill: none; stroke: #000000; stroke-width: 0.8; stroke-linejoin: miter; stroke-linecap: square"/>
   </g>
   <g id="PathCollection_11">
    <defs>
     <path id="C4_0_0b4f822eba" d="M 0 4 
C 1.060812 4 2.078319 3.578535 2.828427 2.828427 
C 3.578535 2.078319 4 1.060812 4 -0 
C 4 -1.060812 3.578535 -2.078319 2.828427 -2.828427 
C 2.078319 -3.578535 1.060812 -4 0 -4 
C -1.060812 -4 -2.078319 -3.578535 -2.828427 -2.828427 
C -3.578535 -2.078319 -4 -1.060812 -4 0 
C -4 1.060812 -3.578535 2.078319 -2.828427 2.828427 
C -2.078319 3.578535 -1.060812 4 0 4 
z
"/>
    </defs>
    <g clip-path="url(#p32b6e3dff2)">
     <use xlink:href="#C4_0_0b4f822eba" x="524.588526" y="93.39507" style="fill: #ff0000"/>
    </g>
    <g clip-path="url(#p32b6e3dff2)">
     <use xlink:href="#C4_0_0b4f822eba" x="524.588526" y="34.084519" style="fill: #ff0000"/>
    </g>
    <g clip-path="url(#p32b6e3dff2)">
     <use xlink:href="#C4_0_0b4f822eba" x="524.588526" y="124.323136" style="fill: #ff0000"/>
    </g>
    <g clip-path="url(#p32b6e3dff2)">
     <use xlink:href="#C4_0_0b4f822eba" x="524.588526" y="232.444563" style="fill: #ff0000"/>
    </g>
   </g>
   <g id="PathCollection_12">
    <defs>
     <path id="C5_0_e7e8d1a424" d="M 0 4 
C 1.060812 4 2.078319 3.578535 2.828427 2.828427 
C 3.578535 2.078319 4 1.060812 4 -0 
C 4 -1.060812 3.578535 -2.078319 2.828427 -2.828427 
C 2.078319 -3.578535 1.060812 -4 0 -4 
C -1.060812 -4 -2.078319 -3.578535 -2.828427 -2.828427 
C -3.578535 -2.078319 -4 -1.060812 -4 0 
C -4 1.060812 -3.578535 2.078319 -2.828427 2.828427 
C -2.078319 3.578535 -1.060812 4 0 4 
z
"/>
    </defs>
    <g clip-path="url(#p32b6e3dff2)">
     <use xlink:href="#C5_0_e7e8d1a424" x="619.426531" y="110.11155" style="fill: #0000ff"/>
    </g>
    <g clip-path="url(#p32b6e3dff2)">
     <use xlink:href="#C5_0_e7e8d1a424" x="619.426531" y="112.503881" style="fill: #0000ff"/>
    </g>
   </g>
   <g id="text_16">
    <text style="font: 16px 'Calibri'; text-anchor: middle" x="572.007529" y="18.0825" transform="rotate(-0 572.007529 18.0825)">Participant Number = 3</text>
   </g>
  </g>
  <g id="axes_4">
   <g id="patch_27">
    <path d="M 687.625534 244.126909 
L 877.301546 244.126909 
L 877.301546 24.0825 
L 687.625534 24.0825 
z
" style="fill: #ffffff"/>
   </g>
   <g id="patch_28">
    <path d="M 697.488687 145.828686 
L 734.665185 145.828686 
L 734.665185 138.267212 
L 697.488687 138.267212 
L 697.488687 145.828686 
z
" clip-path="url(#pa79dd7699b)" style="fill: #3274a1; stroke: #3f3f3f; stroke-width: 1.5; stroke-linejoin: miter"/>
   </g>
   <g id="patch_29">
    <path d="M 735.423889 184.985815 
L 772.600387 184.985815 
L 772.600387 161.693815 
L 735.423889 161.693815 
L 735.423889 184.985815 
z
" clip-path="url(#pa79dd7699b)" style="fill: #e1812c; stroke: #3f3f3f; stroke-width: 1.5; stroke-linejoin: miter"/>
   </g>
   <g id="patch_30">
    <path d="M 792.326693 218.189918 
L 829.503191 218.189918 
L 829.503191 209.448552 
L 792.326693 209.448552 
L 792.326693 218.189918 
z
" clip-path="url(#pa79dd7699b)" style="fill: #3274a1; stroke: #3f3f3f; stroke-width: 1.5; stroke-linejoin: miter"/>
   </g>
   <g id="patch_31">
    <path d="M 830.261895 152.297406 
L 867.438393 152.297406 
L 867.438393 152.297406 
L 830.261895 152.297406 
L 830.261895 152.297406 
z
" clip-path="url(#pa79dd7699b)" style="fill: #e1812c; stroke: #3f3f3f; stroke-width: 1.5; stroke-linejoin: miter"/>
   </g>
   <g id="patch_32">
    <path d="M 735.044537 245.880404 
L 735.044537 245.880404 
L 735.044537 245.880404 
L 735.044537 245.880404 
z
" clip-path="url(#pa79dd7699b)" style="fill: #3274a1; stroke: #3f3f3f; stroke-width: 0.75; stroke-linejoin: miter"/>
   </g>
   <g id="patch_33">
    <path d="M 735.044537 245.880404 
L 735.044537 245.880404 
L 735.044537 245.880404 
L 735.044537 245.880404 
z
" clip-path="url(#pa79dd7699b)" style="fill: #e1812c; stroke: #3f3f3f; stroke-width: 0.75; stroke-linejoin: miter"/>
   </g>
   <g id="PathCollection_13"/>
   <g id="PathCollection_14"/>
   <g id="matplotlib.axis_7">
    <g id="xtick_7">
     <g id="line2d_76">
      <g>
       <use xlink:href="#mf74b1a5599" x="735.044537" y="244.126909" style="stroke: #000000; stroke-width: 0.8"/>
      </g>
     </g>
     <g id="text_17">
      <text style="font: 16px 'Calibri'; text-anchor: middle" x="735.044537" y="262.009409" transform="rotate(-0 735.044537 262.009409)">graspable</text>
     </g>
    </g>
    <g id="xtick_8">
     <g id="line2d_77">
      <g>
       <use xlink:href="#mf74b1a5599" x="829.882543" y="244.126909" style="stroke: #000000; stroke-width: 0.8"/>
      </g>
     </g>
     <g id="text_18">
      <text style="font: 16px 'Calibri'; text-anchor: middle" x="829.882543" y="262.009409" transform="rotate(-0 829.882543 262.009409)">breakable</text>
     </g>
    </g>
    <g id="text_19">
     <text style="font: 16px 'Calibri'; text-anchor: middle" x="782.46354" y="279.744409" transform="rotate(-0 782.46354 279.744409)">Object Type</text>
    </g>
   </g>
   <g id="matplotlib.axis_8">
    <g id="ytick_10">
     <g id="line2d_78">
      <g>
       <use xlink:href="#mc56576a750" x="687.625534" y="178.070568" style="stroke: #000000; stroke-width: 0.8"/>
      </g>
     </g>
    </g>
    <g id="ytick_11">
     <g id="line2d_79">
      <g>
       <use xlink:href="#mc56576a750" x="687.625534" y="110.260732" style="stroke: #000000; stroke-width: 0.8"/>
      </g>
     </g>
    </g>
    <g id="ytick_12">
     <g id="line2d_80">
      <g>
       <use xlink:href="#mc56576a750" x="687.625534" y="42.450896" style="stroke: #000000; stroke-width: 0.8"/>
      </g>
     </g>
    </g>
   </g>
   <g id="line2d_81">
    <path d="M 716.076936 145.828686 
L 716.076936 149.609424 
" clip-path="url(#pa79dd7699b)" style="fill: none; stroke: #3f3f3f; stroke-width: 1.5; stroke-linecap: square"/>
   </g>
   <g id="line2d_82">
    <path d="M 716.076936 138.267212 
L 716.076936 134.486474 
" clip-path="url(#pa79dd7699b)" style="fill: none; stroke: #3f3f3f; stroke-width: 1.5; stroke-linecap: square"/>
   </g>
   <g id="line2d_83">
    <path d="M 706.782811 149.609424 
L 725.371061 149.609424 
" clip-path="url(#pa79dd7699b)" style="fill: none; stroke: #3f3f3f; stroke-width: 1.5; stroke-linecap: square"/>
   </g>
   <g id="line2d_84">
    <path d="M 706.782811 134.486474 
L 725.371061 134.486474 
" clip-path="url(#pa79dd7699b)" style="fill: none; stroke: #3f3f3f; stroke-width: 1.5; stroke-linecap: square"/>
   </g>
   <g id="line2d_85"/>
   <g id="line2d_86">
    <path d="M 754.012138 184.985815 
L 754.012138 187.870446 
" clip-path="url(#pa79dd7699b)" style="fill: none; stroke: #3f3f3f; stroke-width: 1.5; stroke-linecap: square"/>
   </g>
   <g id="line2d_87">
    <path d="M 754.012138 161.693815 
L 754.012138 141.286444 
" clip-path="url(#pa79dd7699b)" style="fill: none; stroke: #3f3f3f; stroke-width: 1.5; stroke-linecap: square"/>
   </g>
   <g id="line2d_88">
    <path d="M 744.718014 187.870446 
L 763.306263 187.870446 
" clip-path="url(#pa79dd7699b)" style="fill: none; stroke: #3f3f3f; stroke-width: 1.5; stroke-linecap: square"/>
   </g>
   <g id="line2d_89">
    <path d="M 744.718014 141.286444 
L 763.306263 141.286444 
" clip-path="url(#pa79dd7699b)" style="fill: none; stroke: #3f3f3f; stroke-width: 1.5; stroke-linecap: square"/>
   </g>
   <g id="line2d_90"/>
   <g id="line2d_91">
    <path d="M 810.914942 218.189918 
L 810.914942 222.560601 
" clip-path="url(#pa79dd7699b)" style="fill: none; stroke: #3f3f3f; stroke-width: 1.5; stroke-linecap: square"/>
   </g>
   <g id="line2d_92">
    <path d="M 810.914942 209.448552 
L 810.914942 205.07787 
" clip-path="url(#pa79dd7699b)" style="fill: none; stroke: #3f3f3f; stroke-width: 1.5; stroke-linecap: square"/>
   </g>
   <g id="line2d_93">
    <path d="M 801.620817 222.560601 
L 820.209066 222.560601 
" clip-path="url(#pa79dd7699b)" style="fill: none; stroke: #3f3f3f; stroke-width: 1.5; stroke-linecap: square"/>
   </g>
   <g id="line2d_94">
    <path d="M 801.620817 205.07787 
L 820.209066 205.07787 
" clip-path="url(#pa79dd7699b)" style="fill: none; stroke: #3f3f3f; stroke-width: 1.5; stroke-linecap: square"/>
   </g>
   <g id="line2d_95"/>
   <g id="line2d_96">
    <path d="M 848.850144 152.297406 
L 848.850144 152.297406 
" clip-path="url(#pa79dd7699b)" style="fill: none; stroke: #3f3f3f; stroke-width: 1.5; stroke-linecap: square"/>
   </g>
   <g id="line2d_97">
    <path d="M 848.850144 152.297406 
L 848.850144 152.297406 
" clip-path="url(#pa79dd7699b)" style="fill: none; stroke: #3f3f3f; stroke-width: 1.5; stroke-linecap: square"/>
   </g>
   <g id="line2d_98">
    <path d="M 839.556019 152.297406 
L 858.144269 152.297406 
" clip-path="url(#pa79dd7699b)" style="fill: none; stroke: #3f3f3f; stroke-width: 1.5; stroke-linecap: square"/>
   </g>
   <g id="line2d_99">
    <path d="M 839.556019 152.297406 
L 858.144269 152.297406 
" clip-path="url(#pa79dd7699b)" style="fill: none; stroke: #3f3f3f; stroke-width: 1.5; stroke-linecap: square"/>
   </g>
   <g id="line2d_100"/>
   <g id="line2d_101">
    <path d="M 697.488687 142.047949 
L 734.665185 142.047949 
" clip-path="url(#pa79dd7699b)" style="fill: none; stroke: #3f3f3f; stroke-width: 1.5; stroke-linecap: square"/>
   </g>
   <g id="line2d_102">
    <path d="M 735.423889 182.101185 
L 772.600387 182.101185 
" clip-path="url(#pa79dd7699b)" style="fill: none; stroke: #3f3f3f; stroke-width: 1.5; stroke-linecap: square"/>
   </g>
   <g id="line2d_103">
    <path d="M 792.326693 213.819235 
L 829.503191 213.819235 
" clip-path="url(#pa79dd7699b)" style="fill: none; stroke: #3f3f3f; stroke-width: 1.5; stroke-linecap: square"/>
   </g>
   <g id="line2d_104">
    <path d="M 830.261895 152.297406 
L 867.438393 152.297406 
" clip-path="url(#pa79dd7699b)" style="fill: none; stroke: #3f3f3f; stroke-width: 1.5; stroke-linecap: square"/>
   </g>
   <g id="patch_34">
    <path d="M 687.625534 244.126909 
L 687.625534 24.0825 
" style="fill: none; stroke: #000000; stroke-width: 0.8; stroke-linejoin: miter; stroke-linecap: square"/>
   </g>
   <g id="patch_35">
    <path d="M 687.625534 244.126909 
L 877.301546 244.126909 
" style="fill: none; stroke: #000000; stroke-width: 0.8; stroke-linejoin: miter; stroke-linecap: square"/>
   </g>
   <g id="PathCollection_15">
    <defs>
     <path id="C6_0_61b2ed4205" d="M 0 4 
C 1.060812 4 2.078319 3.578535 2.828427 2.828427 
C 3.578535 2.078319 4 1.060812 4 -0 
C 4 -1.060812 3.578535 -2.078319 2.828427 -2.828427 
C 2.078319 -3.578535 1.060812 -4 0 -4 
C -1.060812 -4 -2.078319 -3.578535 -2.828427 -2.828427 
C -3.578535 -2.078319 -4 -1.060812 -4 0 
C -4 1.060812 -3.578535 2.078319 -2.828427 2.828427 
C -2.078319 3.578535 -1.060812 4 0 4 
z
"/>
    </defs>
    <g clip-path="url(#pa79dd7699b)">
     <use xlink:href="#C6_0_61b2ed4205" x="735.044537" y="182.101185" style="fill: #0000ff"/>
    </g>
    <g clip-path="url(#pa79dd7699b)">
     <use xlink:href="#C6_0_61b2ed4205" x="735.044537" y="187.870446" style="fill: #0000ff"/>
    </g>
    <g clip-path="url(#pa79dd7699b)">
     <use xlink:href="#C6_0_61b2ed4205" x="735.044537" y="141.286444" style="fill: #0000ff"/>
    </g>
    <g clip-path="url(#pa79dd7699b)">
     <use xlink:href="#C6_0_61b2ed4205" x="735.044537" y="149.609424" style="fill: #0000ff"/>
    </g>
    <g clip-path="url(#pa79dd7699b)">
     <use xlink:href="#C6_0_61b2ed4205" x="735.044537" y="134.486474" style="fill: #0000ff"/>
    </g>
   </g>
   <g id="PathCollection_16">
    <defs>
     <path id="C7_0_ddaa30079c" d="M 0 4 
C 1.060812 4 2.078319 3.578535 2.828427 2.828427 
C 3.578535 2.078319 4 1.060812 4 -0 
C 4 -1.060812 3.578535 -2.078319 2.828427 -2.828427 
C 2.078319 -3.578535 1.060812 -4 0 -4 
C -1.060812 -4 -2.078319 -3.578535 -2.828427 -2.828427 
C -3.578535 -2.078319 -4 -1.060812 -4 0 
C -4 1.060812 -3.578535 2.078319 -2.828427 2.828427 
C -2.078319 3.578535 -1.060812 4 0 4 
z
"/>
    </defs>
    <g clip-path="url(#pa79dd7699b)">
     <use xlink:href="#C7_0_ddaa30079c" x="829.882543" y="152.297406" style="fill: #ff0000"/>
    </g>
    <g clip-path="url(#pa79dd7699b)">
     <use xlink:href="#C7_0_ddaa30079c" x="829.882543" y="205.07787" style="fill: #ff0000"/>
    </g>
    <g clip-path="url(#pa79dd7699b)">
     <use xlink:href="#C7_0_ddaa30079c" x="829.882543" y="222.560601" style="fill: #ff0000"/>
    </g>
   </g>
   <g id="text_20">
    <text style="font: 16px 'Calibri'; text-anchor: middle" x="782.46354" y="18.0825" transform="rotate(-0 782.46354 18.0825)">Participant Number = 4</text>
   </g>
  </g>
  <g id="legend_1">
   <g id="text_21">
    <text style="font: 16px 'Calibri'; text-anchor: start" x="902.340551" y="126.899705" transform="rotate(-0 902.340551 126.899705)">Type of Control</text>
   </g>
   <g id="patch_36">
    <path d="M 905.385551 148.944705 
L 937.385551 148.944705 
L 937.385551 137.744705 
L 905.385551 137.744705 
z
" style="fill: #3274a1; stroke: #3f3f3f; stroke-width: 0.75; stroke-linejoin: miter"/>
   </g>
   <g id="text_22">
    <text style="font: 16px 'Calibri'; text-anchor: start" x="950.185551" y="148.944705" transform="rotate(-0 950.185551 148.944705)">SNS</text>
   </g>
   <g id="patch_37">
    <path d="M 905.385551 170.989705 
L 937.385551 170.989705 
L 937.385551 159.789705 
L 905.385551 159.789705 
z
" style="fill: #e1812c; stroke: #3f3f3f; stroke-width: 0.75; stroke-linejoin: miter"/>
   </g>
   <g id="text_23">
    <text style="font: 16px 'Calibri'; text-anchor: start" x="950.185551" y="170.989705" transform="rotate(-0 950.185551 170.989705)">Manual</text>
   </g>
  </g>
 </g>
 <defs>
  <clipPath id="pe413a8db04">
   <rect x="56.2575" y="24.0825" width="189.676011" height="220.044409"/>
  </clipPath>
  <clipPath id="p9a8cc7e4bc">
   <rect x="266.713511" y="24.0825" width="189.676011" height="220.044409"/>
  </clipPath>
  <clipPath id="p32b6e3dff2">
   <rect x="477.169523" y="24.0825" width="189.676011" height="220.044409"/>
  </clipPath>
  <clipPath id="pa79dd7699b">
   <rect x="687.625534" y="24.0825" width="189.676011" height="220.044409"/>
  </clipPath>
 </defs>
</svg>
