<svg width="81" height="73" viewBox="0 0 81 73" fill="none" xmlns="http://www.w3.org/2000/svg">
<path fill-rule="evenodd" clip-rule="evenodd" d="M5.72847 26.667L1.1709 18.198L5.75758 9.68398L10.3442 1.16998H34.4606L39.057 9.70198L43.6533 18.234L39.1054 26.649L34.5576 35.064L31.7357 35.091C30.1842 35.109 24.7248 35.127 19.6048 35.127H10.2958L5.73818 26.667H5.72847ZM26.2667 32.868C26.2667 32.868 26.2085 32.103 26.1697 32.067C26.16 32.058 26.0436 32.139 25.9176 32.247C25.7915 32.355 25.6752 32.445 25.6655 32.427C25.6461 32.409 25.7042 32.274 25.7818 32.121C25.9564 31.806 26.0242 31.527 26.0727 31.023C26.0921 30.834 26.1503 30.537 26.1988 30.375C26.2473 30.213 26.2764 30.069 26.2667 30.051C26.2279 30.015 26.0921 30.087 25.5394 30.42C25.2776 30.582 24.8703 30.78 24.6473 30.852C24.4242 30.933 24.2012 31.014 24.143 31.032C24.0751 31.059 24.0557 31.05 24.0654 31.005C24.0751 30.969 24.3467 30.807 24.6667 30.654C25.7624 30.114 26.9357 29.178 27.0618 28.737C27.1394 28.485 27.1006 28.269 26.9358 28.008C26.8388 27.846 26.7321 27.774 26.48 27.657C26.0727 27.468 26.0145 27.477 25.2097 27.846C24.463 28.188 24.1333 28.431 23.5418 29.07C23.0667 29.574 22.4558 30.159 22.2521 30.285C21.9806 30.456 22.1067 30.267 22.5915 29.799C23.057 29.349 23.6194 28.656 23.6194 28.548C23.6194 28.377 22.9794 28.539 22.2618 28.89C21.777 29.124 21.6024 29.16 21.8448 28.971C21.9806 28.863 22.6012 28.584 23.7164 28.116C25.3939 27.414 25.937 26.964 25.7624 26.433C25.6364 26.055 25.297 26.028 23.4545 26.271C22.1067 26.451 21.8061 26.523 21.2339 26.838C20.4873 27.243 20.0121 27.36 19.4594 27.297C18.9939 27.243 19.0909 27.162 19.6727 27.135C20.3418 27.099 20.4679 27.063 21.0109 26.748C21.6509 26.379 21.9321 26.262 22.3879 26.181C23.0376 26.064 23.0279 26.01 22.2715 25.551C21.5636 25.128 21.5151 25.092 21.5539 25.047C21.5733 25.029 21.9612 25.2 22.417 25.425L23.2412 25.839L23.9782 25.722C24.9382 25.56 25.3357 25.452 25.5782 25.254C25.7333 25.128 25.7721 25.065 25.7721 24.948C25.7721 24.606 24.8315 23.931 23.5418 23.364C22.8436 23.049 22.6594 22.95 22.7176 22.887C22.7273 22.878 22.9309 22.95 23.1733 23.058C23.6291 23.256 23.92 23.301 23.92 23.175C23.92 23.139 23.8521 22.977 23.7648 22.815C23.6776 22.653 23.6194 22.518 23.6388 22.5C23.6582 22.482 23.7551 22.554 23.8521 22.662C24.7054 23.553 24.8412 23.679 24.9867 23.679C25.2 23.679 25.2194 23.589 25.3067 22.536C25.4424 20.916 25.4521 20.844 25.5879 20.925C25.6364 20.952 25.646 21.087 25.6073 21.51C25.5297 22.437 25.5491 23.292 25.6557 23.58C25.7915 23.949 25.9273 24.03 26.4024 24.003C26.8873 23.976 27.1394 23.859 27.5758 23.454C28.0412 23.013 28.3515 22.554 28.7491 21.717C28.943 21.312 29.1951 20.835 29.3115 20.655C29.6121 20.178 30.1649 19.665 31.183 18.9C32.8218 17.676 33.6461 16.749 33.9467 15.813C34.063 15.462 34.1018 14.841 34.0339 14.517C33.8109 13.401 32.5697 12.618 30.5915 12.339C29.3988 12.168 27.2557 12.123 24.5018 12.213C23.8327 12.231 23.0667 12.24 22.7855 12.213C22.1164 12.168 21.68 11.97 21.137 11.493C20.6521 11.07 20.303 10.584 19.8376 9.66598C19.4109 8.82898 19.2364 8.63998 18.7418 8.42398C18.4606 8.29798 18.3733 8.28898 18.1115 8.30698C17.7818 8.33398 17.5685 8.42398 16.4145 8.99998C15.5515 9.43198 15.3479 9.50398 14.6303 9.59398C13.6897 9.71098 13.5733 9.76499 12.9236 10.467C12.2352 11.205 11.4885 12.141 10.7903 13.113C10.3248 13.77 10.2182 13.968 9.89817 14.733C9.51999 15.651 8.18182 18.126 7.89091 18.45C7.73575 18.63 7.63878 18.639 7.63878 18.486C7.63878 18.441 8.07514 17.586 8.59878 16.596C9.55878 14.805 9.71393 14.463 9.71393 14.148V13.986L9.46181 14.013C9.11272 14.049 8.68606 14.265 8.13333 14.679C7.43515 15.21 7.34787 15.246 6.73696 15.246C6.45575 15.246 6.08726 15.219 5.91272 15.183C5.72847 15.147 5.57333 15.138 5.54424 15.165C5.49576 15.21 3.96363 18.198 3.96363 18.243C3.96363 18.288 5.15635 20.592 6.50423 23.148C8.59878 27.126 11.5854 32.607 11.7212 32.706C11.7988 32.769 12.4485 32.814 13.8933 32.868C14.96 32.904 26.1891 32.904 26.2376 32.868H26.2667ZM29.4085 32.868H30.3588V32.688C30.3588 32.382 30.1745 31.932 29.7963 31.311C29.2533 30.429 28.9527 29.817 28.8558 29.43C28.8073 29.241 28.7394 29.016 28.7006 28.944C28.6133 28.791 28.3515 28.62 28.1867 28.62C28.0606 28.62 27.6145 29.043 27.1491 29.619C26.3927 30.555 26.3539 30.699 26.4218 31.986C26.4541 32.55 26.5123 32.844 26.5964 32.868C26.6642 32.886 27.1103 32.895 27.5854 32.886C28.0606 32.877 28.8752 32.868 29.3988 32.859L29.4085 32.868ZM31.4448 32.805C31.4642 32.76 31.4836 32.76 31.5321 32.805C31.5806 32.85 31.8133 32.868 32.2982 32.868H32.9964L33.0739 32.733C33.1127 32.652 33.1515 32.58 33.1515 32.553C33.1515 32.526 33.0352 32.454 32.88 32.382C32.143 31.995 31.5806 31.482 30.6109 30.285C29.7964 29.268 29.5539 29.007 29.457 29.007C29.1952 29.007 29.263 29.916 29.5636 30.474C29.6897 30.699 30.1164 31.221 30.5818 31.716C31.2218 32.4 31.4254 32.634 31.3867 32.67C31.3673 32.688 31.2121 32.562 31.0376 32.382C30.863 32.202 30.6982 32.067 30.6691 32.067C30.6206 32.067 30.543 32.472 30.543 32.76C30.543 32.868 30.5527 32.868 30.9697 32.868C31.2703 32.868 31.4061 32.85 31.4255 32.805H31.4448ZM33.9661 31.068C34.4509 30.177 34.6739 29.709 34.6545 29.655C34.6351 29.592 34.6546 29.565 34.703 29.565C34.7515 29.565 34.9454 29.259 35.2945 28.611C35.5757 28.089 35.7988 27.621 35.7988 27.576C35.7988 27.513 35.7018 27.468 35.4012 27.396C34.4509 27.162 32.9479 26.946 32.9479 27.045C32.9479 27.153 33.4036 27.666 33.6267 27.792C33.7527 27.873 34.0533 28.017 34.2957 28.116C34.5382 28.215 34.7321 28.314 34.7321 28.332C34.7321 28.377 34.1309 28.251 33.8594 28.152C33.5103 28.026 33.297 27.882 33.0545 27.612C32.6473 27.162 32.0073 26.892 31.3576 26.883C30.9309 26.883 30.8436 26.946 30.8921 27.279C30.9697 27.837 31.1927 28.188 31.5224 28.296C32.7346 28.692 34.4703 29.394 34.4703 29.493C34.4703 29.529 34.4315 29.538 34.383 29.52C33.8012 29.304 31.9006 28.692 31.8036 28.692C31.7842 28.692 31.7745 28.728 31.7745 28.764C31.7745 28.899 32.0945 29.277 32.7151 29.871C33.0545 30.195 33.3745 30.519 33.423 30.591C33.6073 30.852 33.4424 30.771 32.9867 30.375C32.5212 29.97 32.3273 29.862 32.2206 29.961C32.1042 30.069 32.3273 30.528 32.6958 30.969C32.9382 31.257 32.8509 31.293 32.5309 31.023C32.24 30.78 32.1139 30.546 31.9006 29.871C31.6097 28.953 31.4157 28.656 30.9891 28.476C30.7854 28.386 30.64 28.359 30.3103 28.359C29.8352 28.359 29.6315 28.413 29.6315 28.53C29.6315 28.575 29.8255 28.854 30.0679 29.16C30.3103 29.466 30.7273 29.997 30.9988 30.357C31.2703 30.726 31.6873 31.194 31.92 31.419C32.337 31.806 33.0545 32.355 33.1709 32.355C33.2 32.355 33.5491 31.761 33.9467 31.032L33.9661 31.068ZM36.1576 27.009C36.2739 26.802 36.3612 26.622 36.3515 26.613C36.3515 26.613 36.1382 26.577 35.9055 26.541C35.6727 26.505 35.1297 26.37 34.7127 26.235C33.8206 25.947 33.5782 25.911 33.0448 25.974C32.6473 26.019 32.0751 26.226 31.9491 26.361C31.8424 26.478 31.9588 26.514 33.1127 26.73C34.1697 26.928 34.7612 27.063 35.44 27.27C35.6533 27.333 35.8473 27.387 35.8764 27.387C35.9055 27.387 36.0315 27.216 36.1479 27.009H36.1576ZM36.526 26.334C36.526 26.334 37.5733 24.444 38.7757 22.212L40.9576 18.153L37.0012 10.845C34.8291 6.82198 33.0351 3.52798 33.0157 3.50998C32.9964 3.49198 30.0873 3.46498 26.5479 3.44698L20.1091 3.41098L20.0024 3.73498C19.6727 4.76098 19.5564 5.57098 19.6145 6.51598C19.7115 8.27998 20.0509 9.65698 20.5648 10.386C20.8751 10.827 21.5442 11.448 21.9515 11.673C22.5042 11.979 22.9212 12.015 24.1915 11.88C25.3067 11.763 28.6618 11.736 29.583 11.835C30.4849 11.934 31.2509 12.069 31.7649 12.222C33.0933 12.618 34.0339 13.419 34.3055 14.391C34.48 15.003 34.3636 15.588 33.9273 16.416C33.5782 17.073 33.2 17.568 32.4339 18.396C31.2315 19.683 30.737 20.322 30.2909 21.177C30.0194 21.69 30.0194 21.699 30.0194 22.122C30.0194 22.581 30.1358 23.166 30.3297 23.634C30.6206 24.345 31.0473 24.669 31.5612 24.579C31.9879 24.507 32.7248 23.913 33.5685 22.968C34.1406 22.329 34.4897 22.032 34.8388 21.879C35.1394 21.753 35.1588 21.753 35.1588 21.807C35.1588 21.834 35.0327 21.915 34.8679 22.005C34.3442 22.275 33.7527 22.887 33.6557 23.247C33.6267 23.364 33.6364 23.373 33.7915 23.373C33.8885 23.373 34.2085 23.301 34.4994 23.211C35.4497 22.914 35.3236 23.067 34.2376 23.517C33.5879 23.787 33.2873 23.967 33.1806 24.156C33.1224 24.264 33.1224 24.282 33.1806 24.318C33.3358 24.408 34.2279 24.201 34.7612 23.958C35.1782 23.76 35.2364 23.751 35.4691 23.778C35.6048 23.796 35.7309 23.823 35.7503 23.85C35.76 23.868 35.6339 23.913 35.4594 23.94C35.2849 23.967 34.9842 24.075 34.7903 24.174C34.3539 24.399 34.2473 24.426 33.3745 24.597C32.4145 24.786 31.6679 25.119 31.6679 25.353C31.6679 25.47 31.9297 25.623 32.2206 25.659C32.3466 25.677 32.6182 25.659 32.8606 25.623C33.4327 25.533 33.6654 25.569 34.7709 25.983C35.2848 26.172 35.76 26.343 35.8182 26.352C36.0509 26.406 36.497 26.379 36.5648 26.325L36.526 26.334ZM7.28968 14.859C7.37696 14.841 7.58059 14.724 7.74544 14.598C7.91029 14.472 8.24968 14.247 8.50181 14.112C8.75393 13.977 9.22908 13.716 9.56848 13.527C10.1794 13.194 10.4412 12.996 10.7612 12.627L10.9358 12.42L9.66545 12.447C8.24 12.474 8.12363 12.492 7.61939 12.807C7.44485 12.915 7.27999 12.987 7.2509 12.978C7.07636 12.879 7.43514 12.51 7.91029 12.303C8.1915 12.186 8.2303 12.177 9.39394 12.159C10.5188 12.141 10.5964 12.132 10.8194 12.033C11.2267 11.844 12.5842 10.44 12.8364 9.94498C12.9915 9.63898 12.943 9.65698 11.2267 10.314C9.69454 10.908 9.44241 10.989 9.27757 10.953C9.19999 10.935 9.14181 10.89 9.14181 10.854C9.14181 10.818 9.5103 10.647 10.0533 10.431C10.5576 10.233 11.0133 10.035 11.0715 9.99898C11.1491 9.94498 11.1782 9.88198 11.1782 9.73798C11.1782 9.56698 11.1491 9.51298 10.9358 9.32398C10.7515 9.15298 10.6254 9.08098 10.4121 9.02698C10.0824 8.93698 10.0145 8.95498 9.63636 9.20698C9.33576 9.41398 9.12241 9.44998 8.87999 9.35998L8.70545 9.28798L7.22181 12.051C6.40727 13.572 5.73818 14.832 5.73818 14.85C5.73818 14.895 7.08606 14.895 7.29939 14.85L7.28968 14.859ZM12.1382 9.62998C12.3127 9.59398 12.6327 9.52198 12.8558 9.48598C13.0885 9.44098 13.263 9.37798 13.2824 9.34198C13.3018 9.29698 13.1855 9.15298 12.9818 8.95498C12.8073 8.78398 12.5648 8.47798 12.4582 8.28898C12.3321 8.07298 12.1091 7.79398 11.8764 7.56898L11.4982 7.19998L11.6339 7.15498C11.7406 7.11898 11.8085 7.12798 11.9636 7.19998C12.2158 7.31698 12.3806 7.51498 12.72 8.06398C13.1951 8.85598 13.6703 9.17998 14.2909 9.18898C14.6885 9.18898 15.2509 9.08098 15.8618 8.90098C16.5503 8.69398 16.56 8.67598 16.2206 8.46898C15.6 8.09998 15.4351 7.84798 15.0085 6.70498C14.6982 5.86798 14.64 5.75998 14.2521 5.34598C13.9127 4.97698 13.8642 4.85098 14.0776 4.85098C14.2812 4.85098 14.7273 5.30998 14.96 5.75098C15.0667 5.93998 15.2412 6.38998 15.3576 6.74098C15.6291 7.53298 15.7551 7.78498 15.9976 7.95598C16.1624 8.07298 16.24 8.09098 16.6182 8.10898C16.88 8.11798 17.2291 8.09098 17.4812 8.04598C18.1115 7.93798 18.3539 7.94698 18.7418 8.10898C19.1976 8.29798 19.217 8.29798 19.217 8.02798C19.217 7.90198 19.2364 7.13698 19.2654 6.31798C19.3139 4.76098 19.343 4.49098 19.5951 3.82498C19.663 3.63598 19.7212 3.46498 19.7212 3.45598C19.7212 3.44698 17.9467 3.43798 15.7745 3.43798H11.8279L10.3151 6.24598C9.48121 7.79398 8.80242 9.06298 8.80242 9.08098C8.80242 9.09898 8.91878 9.09898 9.06423 9.08098C9.28726 9.05398 9.36485 9.01798 9.5297 8.86498C9.64606 8.75698 9.79151 8.66698 9.88848 8.64898C10.1212 8.61298 10.6739 8.78398 10.9745 8.99098C11.2073 9.15298 11.2848 9.23398 11.5176 9.58498C11.6145 9.73798 11.6921 9.73798 12.1285 9.64798L12.1382 9.62998Z" fill="#FFCDBC" stroke="#FFCDBC" stroke-width="0.59" stroke-miterlimit="11.85"/>
<path fill-rule="evenodd" clip-rule="evenodd" d="M16.9967 67.347C16.9094 67.257 16.7737 66.987 16.6379 66.654C16.2985 65.79 16.2307 65.655 16.0561 65.547C15.9494 65.475 15.8234 65.439 15.6585 65.439C15.4452 65.439 15.3967 65.466 15.2125 65.628C15.0961 65.736 14.8634 66.033 14.6888 66.285C14.3397 66.816 14.0973 67.059 13.9422 67.059C13.7482 67.059 13.4864 66.924 13.4088 66.789C13.3604 66.699 13.3216 66.42 13.3022 65.88C13.2699 65.172 13.1729 64.764 13.0113 64.656C12.6913 64.44 12.507 64.467 12.0513 64.755C10.7907 65.565 10.8294 65.556 10.5094 65.259C10.3349 65.097 10.2864 65.016 10.2864 64.899C10.2864 64.809 10.461 64.431 10.7228 63.936L11.1591 63.126L10.8682 62.874C10.5773 62.622 10.5773 62.622 10.2864 62.64C10.1313 62.649 9.6852 62.712 9.29733 62.775C8.77369 62.865 8.57005 62.874 8.51187 62.838C8.40521 62.775 8.17247 62.46 8.12399 62.307C8.0852 62.19 8.07551 62.199 9.13248 61.281C9.56884 60.903 9.62702 60.831 9.62702 60.687C9.62702 60.48 9.46218 60.156 9.31672 60.057C9.24884 60.021 8.91915 59.94 8.58945 59.886C8.25975 59.832 7.90096 59.769 7.79429 59.742C7.34823 59.634 7.12521 59.238 7.34824 58.977C7.484 58.815 7.72641 58.698 8.30823 58.509C8.88035 58.32 9.21005 58.167 9.30702 58.032C9.42338 57.879 9.40399 57.546 9.27793 57.357C9.21975 57.267 8.92884 57.051 8.57005 56.826C7.67793 56.268 7.58096 56.115 7.82338 55.71L7.93976 55.521L8.97732 55.494C10.0634 55.467 10.1701 55.449 10.3155 55.251C10.4998 55.008 10.3931 54.684 9.89853 54.009C9.50096 53.46 9.43308 53.325 9.43308 53.118C9.43308 52.992 9.47187 52.911 9.58824 52.803C9.72399 52.677 9.77248 52.659 9.96642 52.686C10.0925 52.704 10.4707 52.839 10.8779 53.019C11.2561 53.19 11.6343 53.343 11.7119 53.361C11.8961 53.397 12.1482 53.307 12.3422 53.136C12.5361 52.974 12.5264 52.785 12.3034 51.858C12.2064 51.453 12.1385 51.075 12.1482 51.03C12.187 50.904 12.5361 50.697 12.701 50.697C12.9337 50.697 13.1179 50.823 13.5446 51.282C14.0295 51.804 14.2719 52.011 14.4367 52.047C14.6113 52.092 15.067 51.939 15.1543 51.804C15.1931 51.741 15.2997 51.39 15.387 51.021C15.6294 49.941 15.6294 49.941 16.1143 49.941C16.4925 49.941 16.5797 50.031 16.8222 50.706C17.1713 51.669 17.2973 51.831 17.724 51.831C18.0343 51.831 18.1604 51.732 18.6258 51.102C19.2561 50.247 19.5373 50.103 19.9252 50.427L20.1094 50.58L20.0804 51.453C20.0416 52.452 20.0707 52.542 20.4391 52.704C20.701 52.821 20.9725 52.749 21.5058 52.434C22.4076 51.894 22.6307 51.831 22.941 52.002C23.2125 52.164 23.164 52.47 22.747 53.244C22.4464 53.802 22.3688 54.054 22.4367 54.252C22.524 54.486 22.8052 54.702 23.0282 54.702C23.1252 54.702 23.5713 54.621 24.0173 54.531C24.8125 54.36 24.8319 54.36 24.9385 54.45C25.1034 54.585 25.3361 54.927 25.3361 55.017C25.3361 55.062 25.0355 55.359 24.6767 55.683C24.0076 56.286 23.8137 56.538 23.8137 56.808C23.8137 57.006 23.9979 57.159 24.3276 57.258C24.5798 57.33 25.4234 57.492 25.85 57.555C26.0731 57.582 26.1507 57.717 26.1507 58.068C26.1507 58.419 26.0149 58.527 25.0355 58.824C24.4052 59.013 24.2403 59.103 24.124 59.319C23.8913 59.742 24.0173 59.949 24.8222 60.435C25.821 61.038 25.9179 61.182 25.5979 61.578C25.3652 61.875 25.307 61.893 24.764 61.803C24.1143 61.704 23.6391 61.704 23.4161 61.812C23.1931 61.92 23.0088 62.163 23.0088 62.343C23.0088 62.523 23.0961 62.676 23.6391 63.405L24.1046 64.035L24.0173 64.188C23.9688 64.269 23.8428 64.431 23.7361 64.548L23.5519 64.755L23.0476 64.494C22.4367 64.188 22.0198 64.008 21.8161 63.963C21.6028 63.918 21.2925 64.008 21.147 64.152C21.0404 64.26 21.021 64.314 21.0307 64.593C21.0307 64.764 21.0985 65.178 21.1761 65.502C21.3022 66.051 21.3119 66.105 21.2343 66.24C21.0888 66.501 20.6816 66.654 20.4391 66.528C20.3907 66.501 20.1191 66.231 19.8379 65.925C19.45 65.502 19.2852 65.349 19.1204 65.286C18.7907 65.169 18.6646 65.187 18.461 65.394C18.2573 65.592 18.1313 65.952 18.0052 66.645C17.9179 67.14 17.8404 67.275 17.5882 67.383C17.2876 67.509 17.2101 67.5 17.0452 67.338L16.9967 67.347ZM17.2973 60.759C18.5094 60.444 19.1882 59.49 19.0234 58.311C18.9555 57.798 18.7907 57.492 18.3737 57.114C17.8985 56.673 17.5882 56.538 17.0355 56.511C16.4828 56.484 15.7167 56.601 15.4258 56.763C15.0088 56.988 14.6404 57.483 14.4755 58.014C14.204 58.905 14.3979 59.661 15.0282 60.228C15.6876 60.813 16.4149 60.984 17.2876 60.768L17.2973 60.759Z" fill="#FFCDBC" stroke="#FFCDBC" stroke-width="0.59" stroke-miterlimit="11.85"/>
<path fill-rule="evenodd" clip-rule="evenodd" d="M42.4505 28.215C40.9475 31.005 39.4444 33.795 37.9414 36.585C40.9475 42.156 43.9438 47.736 46.9499 53.307H70.5426C73.5487 47.736 76.545 42.156 79.5511 36.585C76.545 31.014 73.5487 25.434 70.5426 19.863H46.9499C45.4468 22.644 43.9535 25.425 42.4505 28.206V28.215ZM58.7414 21.519H69.282C69.825 21.807 69.9026 22.545 70.2614 23.013C72.6759 27.504 75.0905 31.986 77.5147 36.477C77.4469 37.125 76.9232 37.701 76.642 38.304C76.4675 38.601 76.1862 39.258 75.7208 38.916C73.2772 37.179 70.9111 35.361 68.4869 33.606C63.7741 33.579 59.0614 33.552 54.3487 33.525C52.7778 32.535 51.3426 31.338 49.8202 30.276C48.356 29.151 46.7753 28.143 45.3596 26.973C45.1366 26.514 45.6796 26.055 45.825 25.623C46.0966 25.29 46.1644 24.66 46.6493 24.561C47.3765 24.84 47.939 25.461 48.5984 25.884C49.4905 26.496 50.3341 27.252 51.265 27.756H66.7317C67.0226 27.828 67.5365 28.341 67.682 28.35C67.2068 28.089 66.9644 27.468 67.4202 27.081C67.9147 26.514 68.9329 26.964 68.8844 27.657C68.9523 27.549 68.8844 27.126 68.6226 27.027C68.1765 26.514 67.5075 26.946 67.0905 27.261C66.0723 27.567 64.9572 27.387 63.9002 27.459C59.6626 27.495 55.4347 27.513 51.1971 27.54C49.8008 26.676 48.5208 25.623 47.1923 24.651C46.8044 24.462 46.5717 24.075 46.8723 23.724C47.2699 22.995 47.5705 22.176 48.1135 21.546C51.6529 21.519 55.202 21.546 58.7414 21.537V21.519ZM45.3111 27.198C49.0735 29.853 52.7196 32.643 56.4529 35.334C57.345 36.045 58.402 36.63 59.1778 37.422C59.3038 39.123 59.3329 40.833 59.3523 42.543C61.9802 44.451 64.6081 46.368 67.2456 48.276C67.5172 48.834 67.2262 49.743 68.0893 49.95C68.8553 50.103 69.699 48.969 68.8844 48.501C68.4675 48.267 69.0493 48.573 69.0784 48.771C69.4856 49.5 68.3802 50.202 67.7402 49.716C66.9935 49.185 67.8469 48.051 68.545 48.348C67.042 48.114 65.9559 47.007 64.7535 46.233C63.0275 44.955 61.2335 43.731 59.5656 42.417C59.4299 41.301 59.5269 40.131 59.5172 38.997C59.5656 38.646 59.3717 37.836 60.0117 37.971C63.9681 40.806 67.8953 43.686 71.8032 46.584C72.0844 47.034 71.5511 47.529 71.425 47.961C70.785 49.167 70.1741 50.409 69.4566 51.57C68.7099 51.768 67.8372 51.597 67.0517 51.651H48.1911C47.6481 51.363 47.5705 50.625 47.2117 50.157C44.7972 45.675 42.3826 41.184 39.9584 36.702C40.0262 36.018 40.6081 35.433 40.8699 34.785C41.3159 34.065 41.6166 33.192 42.1499 32.562C42.6929 32.364 43.042 33.057 43.5075 33.264C43.9535 33.651 44.6129 33.885 44.9135 34.371C44.9523 36.009 44.8456 37.665 45.0202 39.294C45.6214 40.113 46.7172 40.572 47.1826 41.481C47.2117 41.67 47.3378 42.21 47.3765 42.201C46.9693 41.4 48.1523 40.644 48.7923 41.283C49.316 41.841 48.7244 42.741 47.9584 42.597C47.8032 42.624 47.3668 42.327 47.7159 42.561C48.5111 42.993 49.5293 41.877 48.802 41.256C48.3462 40.833 47.5996 41.094 47.0953 40.725C46.3875 40.32 45.6311 39.888 45.0978 39.321C45.0493 37.647 45.1462 35.946 44.9814 34.29C44.2638 33.498 43.2068 33.003 42.499 32.22C42.5184 31.491 43.0614 30.852 43.4008 30.213C43.5947 29.736 44.1378 30.024 44.3996 30.285C45.2723 30.933 46.2032 31.554 46.9984 32.265C47.1535 33.768 47.0565 35.334 47.1147 36.864C46.9887 37.512 47.8517 37.755 48.2493 38.169C50.4505 39.852 52.7584 41.436 54.9305 43.137C55.0565 43.425 54.9305 44.208 55.1438 44.271C54.785 43.677 55.3959 42.84 56.1329 43.083C56.6468 43.191 56.8408 43.866 56.6468 44.181C57.0735 43.659 56.4626 42.975 55.8226 42.993C54.6008 42.831 53.7281 41.886 52.739 41.274C50.9159 39.933 49.0347 38.637 47.2796 37.251C47.1438 36.072 47.2602 34.839 47.2214 33.633C47.105 33.102 47.4832 32.337 46.979 31.977C45.9608 31.194 44.8359 30.501 43.905 29.619C43.8081 29.088 44.3123 28.602 44.4965 28.116C44.739 27.828 44.8068 27.153 45.3208 27.216L45.3111 27.198ZM68.4965 28.26C68.3899 28.35 67.8178 28.494 68.225 28.404C68.322 28.377 68.4577 28.287 68.4965 28.26ZM68.4772 33.831C70.9596 35.667 73.5196 37.44 75.9438 39.321C76.0214 39.834 75.459 40.32 75.2941 40.824C74.2953 42.669 73.3256 44.523 72.2881 46.35C71.6674 46.584 71.2893 45.846 70.7947 45.621C65.7135 41.877 60.5741 38.196 55.5317 34.416C55.3475 33.984 55.8614 33.894 56.2105 33.939C60.2444 33.84 64.2784 33.831 68.3123 33.777L68.4093 33.804L68.4869 33.831H68.4772ZM55.3281 44.469C55.5414 44.73 56.1523 44.64 56.259 44.487C55.9778 44.604 55.5996 44.613 55.3281 44.469Z" fill="#FFCDBC" stroke="#FFCDBC" stroke-width="1.18" stroke-miterlimit="11.85"/>
<path fill-rule="evenodd" clip-rule="evenodd" d="M6.07752 46.683C4.57449 49.464 3.08116 52.254 1.57812 55.035C4.57449 60.597 7.57086 66.15 10.5575 71.712H34.3539C37.3503 66.15 40.3369 60.597 43.3333 55.035C40.3369 49.473 37.3503 43.92 34.3539 38.358H10.5575C9.0642 41.13 7.57085 43.911 6.07752 46.683ZM17.743 40.014C19.7502 40.041 21.7769 39.96 23.7745 40.05C24.1915 40.347 24.3563 40.995 24.0557 41.418C23.9006 42.138 22.9115 41.994 22.3393 41.904C22.0678 41.868 21.5151 41.67 21.4666 42.075C21.9321 42.642 23.086 42.885 22.9405 43.776C22.9405 44.289 22.5139 44.658 21.9709 44.667C21.5733 44.811 21.0012 44.694 20.6909 44.973C20.5745 45.315 21.1951 45.369 21.4181 45.504C22.0581 45.648 22.766 46.161 22.5236 46.845C22.4072 47.745 21.166 47.565 20.6327 48.105C20.8751 48.645 21.6702 48.393 22.1551 48.546C23.0278 48.618 23.2606 49.896 22.5527 50.31C22.2424 50.616 21.6799 50.742 21.5539 51.165C21.6315 51.624 22.2909 51.201 22.5915 51.264C23.0763 51.174 23.7163 51.102 23.9587 51.624C24.2787 51.966 24.4533 52.488 24.0072 52.812C23.7842 53.172 23.2024 53.478 23.2218 53.928C23.5224 54.27 24.0072 53.766 24.3272 53.685C24.7733 53.352 25.3648 53.172 25.6751 53.757C26.063 54.063 26.2763 54.558 25.966 54.99C25.8787 55.359 25.4521 55.728 25.5684 56.106C25.8787 56.529 26.2375 55.899 26.509 55.764C26.8872 55.395 27.4884 55.098 27.983 55.476C28.429 55.647 28.7393 56.061 28.5745 56.52C28.5745 56.925 28.2836 57.438 28.526 57.798C28.943 57.861 29.0884 57.267 29.3406 57.051C29.6897 56.403 30.7078 56.241 31.2315 56.79C31.6581 57.285 31.4545 58.041 31.7066 58.545C32.4533 58.347 32.2787 57.339 32.7442 56.907C33.2969 56.907 33.9078 56.853 34.4315 57.024C34.7321 57.492 34.6836 58.23 35.1975 58.563C35.6533 58.401 35.4594 57.753 35.5466 57.384C35.5466 56.529 36.8072 56.133 37.3988 56.745C37.806 57.015 37.9903 57.6 38.4848 57.726C38.9018 57.564 38.4848 57.033 38.5333 56.718C38.3393 56.187 38.543 55.548 39.1636 55.359C39.726 55.143 40.4339 55.476 40.7442 55.917C40.686 56.547 40.1624 57.096 39.9199 57.69C37.7575 61.767 35.5466 65.826 33.3648 69.894C32.8412 70.218 32.0945 69.948 31.4933 70.038H11.8278C11.2848 69.75 11.2072 69.012 10.8484 68.544C8.44359 64.071 6.02903 59.598 3.62419 55.134C3.69207 54.45 4.27389 53.865 4.5357 53.217C6.88237 48.861 9.22905 44.496 11.5757 40.14C12.0993 39.816 12.846 40.086 13.4472 39.996H17.7527L17.743 40.014ZM26.7612 40.014C27.2266 39.951 27.3624 40.464 27.0133 40.707C25.5103 42.444 24.4048 44.622 24.5212 46.872C24.589 49.032 25.6654 51.138 27.2848 52.659C28.6036 53.712 30.1454 54.54 31.8715 54.846C33.3551 54.927 34.8872 54.981 36.3127 54.585C37.5539 54.198 38.6302 53.496 39.7163 52.839C40.2593 52.587 40.5503 53.352 40.1139 53.613C38.5527 54.783 36.6521 55.719 34.5963 55.737C32.8121 55.854 30.9405 55.782 29.3212 54.999C25.3066 53.298 22.8533 48.933 23.7066 44.91C24.0945 43.146 24.9769 41.427 26.3248 40.122C26.4509 40.032 26.606 39.978 26.7709 39.996L26.7612 40.014ZM33.5393 44.163C35.0036 44.091 36.2933 45.333 36.1672 46.683C36.1963 47.907 35.0909 49.05 33.743 49.005C32.5599 49.131 31.2606 48.51 30.989 47.367C30.3587 45.819 31.7551 44.046 33.5393 44.154V44.163Z" fill="#FFCDBC" stroke="#FFCDBC" stroke-width="1.18" stroke-miterlimit="11.85"/>
</svg>
