<svg width="122" height="73" viewBox="0 0 122 73" fill="none" xmlns="http://www.w3.org/2000/svg">
<path d="M95.0789 8.59503H89.5614V9.38703H91.1226V19.665H89.125V20.385H97.0765V19.665H95.0789V8.59503Z" fill="#FFCDBC"/>
<path d="M16.6593 1.45803H15.9514C15.9223 2.02503 15.5926 2.27703 14.9914 2.27703C13.7599 2.27703 11.9854 0.900024 9.87142 0.900024C3.88839 0.900024 0.261719 6.38103 0.261719 11.196C0.261719 16.011 3.71384 20.835 9.47384 20.835C12.9744 20.835 14.2932 19.296 15.2241 19.296C15.8351 19.296 15.9514 19.8 15.9514 20.412H16.7466V13.77H15.9514L15.7866 14.697C15.3793 16.893 13.5369 20.124 9.78415 20.124C6.44839 20.124 5.16839 17.46 5.16839 10.863C5.16839 4.26602 6.91384 1.63803 9.87142 1.63803C13.2072 1.63803 15.486 5.10303 15.9611 7.85703H16.669V1.46703L16.6593 1.45803Z" fill="#FFCDBC"/>
<path d="M26.8898 17.217C26.8413 18.63 25.9782 19.791 24.6207 19.791C22.6619 19.791 22.5746 18.252 22.5746 17.091C22.5746 15.678 22.7394 14.733 24.6207 14.544L26.8898 14.328V17.217ZM32.1455 18.099C32.1455 18.792 31.651 19.593 31.331 19.593C30.8073 19.593 30.691 19.089 30.691 18.261V12.123C30.691 9.08101 27.617 8.32501 24.6497 8.32501C21.6825 8.32501 19.6655 9.63001 19.6655 11.133C19.6655 12.078 20.2376 12.879 21.5467 12.879C22.6425 12.879 23.3019 12.204 23.3019 11.277C23.3019 9.90901 21.7794 9.90001 21.7794 9.86401C21.7794 9.25201 23.4667 9.06302 24.4558 9.06302C26.6182 9.06302 26.9091 9.80101 26.9091 11.403V13.644L24.0873 13.86C21.4691 14.049 18.6279 14.688 18.6279 17.469C18.6279 19.791 20.8776 20.736 23.0885 20.736C24.2037 20.736 26.2013 20.34 26.9479 19.053C27.4716 20.169 28.5382 20.736 29.8182 20.736C31.6994 20.736 32.8922 19.701 32.8922 18.117H32.1649L32.1455 18.099Z" fill="#FFCDBC"/>
<path d="M98.1717 54.522H92.2178V55.305H94.196V65.592H92.2178V66.312H100.15V65.592H98.1717V54.522Z" fill="#FFCDBC"/>
<path d="M23.4373 25.578V24.822H16.8725L12.1016 37.485L7.46643 24.804H0.242188V25.569H2.19128V40.824C2.19128 41.967 1.89067 42.867 0.242188 42.867V43.605H5.21673V42.867H5.12946C3.57795 42.867 2.96703 42.759 2.96703 40.59V25.425H3.01552L9.90037 43.587H10.6761L17.3864 25.74H17.4349V42.849H15.5052V43.587H23.3986V42.849H21.5173V25.569H23.4082L23.4373 25.578Z" fill="#FFCDBC"/>
<path d="M28.0437 36.423V34.632C28.0437 32.841 28.868 32.274 29.8571 32.274C31.2437 32.274 31.6704 33.156 31.6704 34.632V36.423H28.0534H28.0437ZM28.0437 37.143H35.9952C35.9662 34.254 33.0862 31.473 30.0607 31.536C26.6571 31.536 23.7383 34.263 23.7383 37.863C23.7383 41.463 26.4825 43.92 30.1674 43.92C33.8522 43.92 35.4619 41.895 36.1019 39.24H35.3262C34.6959 41.724 33.2995 43.137 31.0498 43.137C28.3734 43.137 28.0922 41.193 28.0922 39.366V37.125L28.0631 37.143H28.0437Z" fill="#FFCDBC"/>
<path d="M61.1199 59.121V57.33C61.1199 55.539 61.9441 54.972 62.9332 54.972C64.3199 54.972 64.7466 55.854 64.7466 57.33V59.121H61.1296H61.1199ZM61.1199 59.841H69.0714C69.0423 56.952 66.1623 54.171 63.1369 54.234C59.7332 54.234 56.8145 56.961 56.8145 60.561C56.8145 64.161 59.5587 66.618 63.2435 66.618C66.9284 66.618 68.5381 64.593 69.1781 61.938H68.4023C67.772 64.422 66.3757 65.835 64.126 65.835C61.4496 65.835 61.1684 63.891 61.1684 62.064V59.823L61.1393 59.841H61.1199Z" fill="#FFCDBC"/>
<path d="M36.0342 25.515H38.0318V42.849H36.0342V43.614H43.9857V42.849H41.9881V24.84H36.0342V25.515Z" fill="#FFCDBC"/>
<path d="M44.5479 25.515H46.526V42.849H44.5479V43.614H52.48V42.849H50.5018V24.84H44.5479V25.515Z" fill="#FFCDBC"/>
<path d="M61.6047 40.365C61.6047 42.372 60.7126 43.191 59.2386 43.191C57.7647 43.191 56.8726 42.363 56.8726 40.365V35.109C56.8726 33.102 57.7647 32.283 59.2386 32.283C60.7126 32.283 61.6047 33.111 61.6047 35.109V40.365ZM66.0847 37.728C66.0847 34.074 63.0398 31.527 59.2386 31.527C55.4374 31.527 52.3926 34.074 52.3926 37.728C52.3926 41.382 55.4374 43.929 59.2386 43.929C63.0398 43.929 66.0847 41.382 66.0847 37.728Z" fill="#FFCDBC"/>
<path d="M0.251953 48.195H2.26892V60.057C2.26892 64.197 5.34286 66.708 10.0459 66.708C15.3404 66.708 17.6386 64.116 17.6386 60.192V50.049C17.6386 48.492 18.0944 48.195 19.1416 48.195H19.7138V47.475H14.6617V48.195H15.0204C16.4944 48.195 16.698 48.6 16.698 50.157V60.471C16.698 64.116 14.2641 65.763 11.8107 65.763C7.61195 65.763 6.76832 63.144 6.51619 59.724V48.204H8.4071V47.484H0.251953V48.204V48.186V48.195Z" fill="#FFCDBC"/>
<path d="M50.1235 66.609H50.8993L55.1562 57.258C56.0193 55.512 56.475 55.296 57.1344 55.269H57.3866V54.531H52.8872V55.269H53.4302C54.2544 55.269 54.652 55.224 54.652 55.917C54.652 56.34 54.4969 56.763 54.1575 57.537L52.1987 61.803L49.0666 55.26H50.6569V54.522H43.4326V55.26H44.7902L50.0847 66.591L50.1138 66.618L50.1235 66.609Z" fill="#FFCDBC"/>
<path d="M82.1915 66.609H82.8703C83.006 66.186 83.3066 65.961 83.8885 65.961C84.6351 65.961 85.5272 66.609 87.1369 66.609C89.8812 66.609 91.7333 64.413 91.7333 62.226C91.7333 58.959 89.3188 58.725 86.2351 58.32C84.6254 58.104 83.7139 57.897 83.7139 56.718C83.7139 55.458 84.8969 54.927 86.4582 54.927C88.6206 54.927 89.4545 56.259 90.1818 57.987H90.8606V54.189H90.2012C90.2012 54.504 89.9006 54.774 89.3576 54.774C88.4266 54.774 87.68 54.189 86.3612 54.189C83.4909 54.189 82.0654 56.466 82.0654 58.176C82.0654 61.632 84.8873 61.911 87.0691 62.163C89.1539 62.397 89.8909 62.523 89.8909 63.747C89.8909 65.16 88.6206 65.799 87.0691 65.799C84.8873 65.799 83.3842 64.044 82.8606 62.091H82.1818V66.582L82.2012 66.6L82.1915 66.609Z" fill="#FFCDBC"/>
<path d="M42.4139 54.522H36.46V55.305H38.4575V65.592H36.46V66.312H44.4115V65.592H42.4139V54.522Z" fill="#FFCDBC"/>
<path d="M38.458 50.832C38.458 51.849 39.3404 52.668 40.4362 52.668C41.532 52.668 42.4144 51.849 42.4144 50.832C42.4144 49.815 41.532 48.996 40.4362 48.996C39.3404 48.996 38.458 49.815 38.458 50.832Z" fill="#FFCDBC"/>
<path d="M94.1963 50.832C94.1963 51.849 95.0787 52.668 96.1745 52.668C97.2702 52.668 98.1526 51.849 98.1526 50.832C98.1526 49.815 97.2702 48.996 96.1745 48.996C95.0787 48.996 94.1963 49.815 94.1963 50.832Z" fill="#FFCDBC"/>
<path d="M66.7635 13.194V11.403C66.7635 9.61202 67.5877 9.04502 68.5768 9.04502C69.9635 9.04502 70.3901 9.92701 70.3901 11.403V13.194H66.7732H66.7635ZM66.7635 13.914H74.715C74.6859 11.025 71.8059 8.24402 68.7804 8.30702C65.3768 8.30702 62.458 11.034 62.458 14.634C62.458 18.234 65.2023 20.691 68.8871 20.691C72.572 20.691 74.1816 18.666 74.8216 16.011H74.0459C73.4156 18.495 72.0192 19.908 69.7695 19.908C67.0932 19.908 66.812 17.964 66.812 16.137V13.896L66.7829 13.914H66.7635Z" fill="#FFCDBC"/>
<path d="M101.517 13.194V11.403C101.517 9.61202 102.342 9.04502 103.331 9.04502C104.359 9.04502 105.144 9.59402 105.144 11.403V13.194H101.527H101.517ZM101.517 13.914H109.469C109.44 11.025 106.56 8.24402 103.534 8.30702C100.131 8.30702 97.2119 11.034 97.2119 14.634C97.2119 18.234 99.9561 20.691 103.641 20.691C107.326 20.691 108.936 18.666 109.576 16.011H108.8C108.169 18.495 106.773 19.908 104.523 19.908C101.847 19.908 101.566 17.964 101.566 16.137V13.896L101.537 13.914H101.517Z" fill="#FFCDBC"/>
<path d="M33.9097 65.592V58.374C33.9097 55.485 32.5909 54.135 29.8467 54.135C27.917 54.135 25.9582 55.152 25.1825 56.709V54.54H19.2285V55.26H21.2067V65.574H19.2285V66.294H26.8891V65.574H25.2018V58.527C25.454 57.537 26.8115 55.251 28.3825 55.251C29.4297 55.251 29.9534 55.584 29.9534 57.384V65.592H28.3146V66.312H35.9073V65.592H33.9097Z" fill="#FFCDBC"/>
<path d="M80.7662 42.894V35.676C80.7662 32.787 79.4474 31.437 76.7031 31.437C74.7734 31.437 72.8147 32.454 72.0389 34.011V31.842H66.085V32.562H68.0631V42.876H66.085V43.596H73.7456V42.876H72.0583V35.829C72.3104 34.839 73.668 32.553 75.2389 32.553C76.2862 32.553 76.8098 32.886 76.8098 34.686V42.894H75.171V43.614H82.7637V42.894H80.7662Z" fill="#FFCDBC"/>
<path d="M60.441 19.665V12.465C60.441 9.57601 59.1222 8.22601 56.378 8.22601C54.4483 8.22601 52.4895 9.24301 51.7137 10.8V8.63101H45.7598V9.35101H47.738V19.665H45.7598V20.385H53.4204V19.665H51.7331V12.618C51.9852 11.628 53.3428 9.34201 54.9137 9.34201C55.961 9.34201 56.4846 9.67501 56.4846 11.475V19.683H54.8458V20.403H62.4386V19.683H60.4604L60.441 19.665Z" fill="#FFCDBC"/>
<path d="M91.1221 4.95905C91.1221 5.97605 92.0045 6.79505 93.1003 6.79505C94.196 6.79505 95.0784 5.97605 95.0784 4.95905C95.0784 3.94205 94.196 3.12305 93.1003 3.12305C92.0045 3.12305 91.1221 3.94205 91.1221 4.95905Z" fill="#FFCDBC"/>
<path d="M117.489 54.522V55.287C118.72 55.287 119.244 55.395 119.244 55.899C119.244 56.322 119.089 56.745 118.749 57.519L116.79 61.785L113.658 55.269H115.297V54.504H105.367V48.771H104.844C104.844 51.597 102.759 54.513 99.8691 54.513V55.278H101.392V63.549C101.392 66.096 103.738 66.591 104.553 66.591C106.308 66.591 107.491 65.934 108.373 64.539L107.762 64.224C107.423 64.71 106.948 65.34 106.24 65.34C105.668 65.34 105.358 64.962 105.358 64.08V55.278H109.362L114.618 66.528L112.795 70.515C112.795 70.515 112.679 70.641 112.572 70.641C112.466 70.641 112.388 70.578 112.349 70.488C112.116 69.723 111.37 69.156 110.458 69.156C109.362 69.156 108.48 69.975 108.48 70.992C108.48 71.712 108.916 72.324 109.566 72.621C109.566 72.621 109.595 72.639 109.634 72.648C109.673 72.657 109.721 72.675 109.75 72.693C109.973 72.774 110.206 72.837 110.478 72.837C112.155 72.963 112.999 71.82 113.59 70.659C113.726 70.389 113.842 70.128 113.959 69.876C114.211 69.309 114.657 68.337 115.181 67.212L115.685 66.132L119.729 57.249C120.592 55.503 120.931 55.287 121.978 55.287V54.522H117.459H117.489Z" fill="#FFCDBC"/>
<path d="M42.8509 8.19003C41.0084 8.19003 39.6024 9.36903 39.0496 10.701H39.0012V8.65803H33.0957V9.41403H35.0739V19.692H33.0957V20.43H41.7066V19.692H39.0496V13.932C39.0496 12.222 39.5442 10.449 40.7563 9.48603C40.8242 9.44103 40.9212 9.42303 41.0084 9.46803C41.1054 9.51303 41.1442 9.61203 41.1442 9.68403C41.0569 9.89103 41.0084 10.143 40.989 10.449C40.9599 11.421 41.8133 12.195 42.9478 12.195C44.3345 12.195 45.1296 11.25 45.1296 10.251C45.1296 8.96403 44.2181 8.19903 42.8606 8.19903L42.8412 8.18103L42.8509 8.19003Z" fill="#FFCDBC"/>
<path d="M86.177 9.07205C86.177 9.07205 86.3127 9.02705 86.3418 9.07205C86.3709 9.11705 86.3903 9.16205 86.3418 9.21604C86.177 9.49504 86.1091 9.82805 86.2449 10.206C86.3806 10.584 86.72 10.854 87.1079 10.926C87.9321 11.097 88.6497 10.53 88.6497 9.81004C88.6497 9.34204 88.3297 8.98204 87.9709 8.77504C87.6121 8.56804 87.1758 8.46004 86.7006 8.46004C85.9443 8.46004 85.1491 8.83805 84.5867 9.28805C84.4509 9.19805 84.3152 9.11704 84.1794 9.03604C83.3843 8.61304 82.3564 8.33405 80.9794 8.33405C78.5649 8.33405 75.9758 9.81005 75.9758 12.231C75.9758 13.707 76.8388 14.85 78.3612 15.498V15.543C77.2461 15.669 75.4909 16.389 75.4909 18.621C75.4909 19.953 76.1503 20.979 77.3721 21.285V21.33C76.2182 21.627 74.8994 22.698 74.8994 23.985C74.8994 25.965 77.4012 27.486 80.6012 27.486C84.6061 27.486 87.2146 24.975 87.2146 21.708C87.2146 19.116 85.8279 17.937 83.0158 17.991H78.2255C77.4982 17.991 77.0231 17.964 77.0231 17.235C77.0231 16.578 78.1188 15.858 79.2243 15.858C79.4085 15.858 79.7285 16.002 79.8158 16.011C80.1746 16.119 80.5431 16.164 80.9988 16.164C83.4715 16.164 86.1188 14.859 86.1188 12.321C86.1188 11.538 85.7503 10.467 85.0715 9.79204C85.0424 9.74704 85.0424 9.68404 85.0715 9.64804C85.3431 9.44104 85.6631 9.27005 85.8182 9.18905C85.9346 9.12605 86.0412 9.08105 86.1576 9.04505L86.177 9.06305V9.07205ZM82.3564 21.366C85.2267 21.366 85.9927 21.474 85.9927 23.112C85.9927 25.056 83.4231 26.847 80.514 26.847C77.9249 26.847 76.674 25.371 76.6255 24.084C76.6255 22.905 77.2558 22.14 78.0315 21.357H82.3564V21.375V21.366ZM82.8509 12.249C82.8509 15.354 82.0752 15.453 81.0376 15.453C79.8837 15.453 79.2824 15.246 79.2824 12.159C79.2824 9.99005 79.5346 9.06305 81.0376 9.06305C82.3952 9.06305 82.8315 9.14405 82.8509 12.222V12.249Z" fill="#FFCDBC"/>
<path d="M79.1468 54.054C77.3043 54.054 75.8983 55.233 75.3455 56.565H75.2971V54.522H69.3916V55.278H71.3698V65.556H69.3916V66.294H78.0025V65.556H75.3455V59.796C75.3455 58.086 75.8401 56.331 77.0328 55.35C77.1007 55.305 77.1977 55.287 77.2849 55.332C77.3819 55.377 77.4207 55.476 77.4207 55.548C77.3334 55.764 77.2849 56.007 77.2655 56.313C77.2364 57.285 78.0898 58.059 79.2243 58.059C80.611 58.059 81.4061 57.114 81.4061 56.115C81.4061 54.828 80.4946 54.063 79.137 54.063V54.045L79.1468 54.054Z" fill="#FFCDBC"/>
</svg>
