<svg width="321" height="237" viewBox="0 0 321 237" fill="none" xmlns="http://www.w3.org/2000/svg">
<path fill-rule="evenodd" clip-rule="evenodd" d="M12.1748 158.178C14.6125 157.856 16.9107 159.899 17.3063 162.738L26.8944 231.25C27.29 234.088 25.6377 236.651 23.1999 236.967C20.7622 237.288 18.4641 235.245 18.0684 232.407L8.48039 163.895C8.08476 161.056 9.73706 158.494 12.1748 158.178Z" fill="#6BB8E2"/>
<path fill-rule="evenodd" clip-rule="evenodd" d="M154.907 109.855C157.055 113.152 154.491 117.376 149.194 119.296L21.2364 165.628C15.9396 167.548 9.90628 166.429 7.75917 163.138C5.61205 159.841 8.17622 155.617 13.473 153.697L141.43 107.366C146.727 105.446 152.76 106.565 154.907 109.855Z" fill="#6BB8E2"/>
<path d="M15.241 174.228C22.0016 174.228 27.4821 168.912 27.4821 162.354C27.4821 155.796 22.0016 150.48 15.241 150.48C8.48046 150.48 3 155.796 3 162.354C3 168.912 8.48046 174.228 15.241 174.228Z" fill="#34113F" stroke="#FFCDBC" stroke-width="4.36" stroke-miterlimit="21.02"/>
<path fill-rule="evenodd" clip-rule="evenodd" d="M309.34 158.543C306.92 158.102 304.517 160.027 303.976 162.837L290.798 230.785C290.251 233.601 291.77 236.237 294.19 236.682C296.61 237.123 299.013 235.198 299.554 232.388L312.732 164.44C313.279 161.624 311.76 158.989 309.34 158.543Z" fill="#BDD2CD"/>
<path fill-rule="evenodd" clip-rule="evenodd" d="M159.341 108.115C156.796 111.178 159.236 115.297 164.784 117.318L298.682 166.114C304.23 168.136 310.789 167.289 313.325 164.232C315.87 161.169 313.43 157.05 307.882 155.029L173.984 106.232C168.436 104.211 161.877 105.058 159.341 108.115Z" fill="#BDD2CD"/>
<path d="M306.058 174.435C312.819 174.435 318.3 169.119 318.3 162.561C318.3 156.003 312.819 150.687 306.058 150.687C299.298 150.687 293.817 156.003 293.817 162.561C293.817 169.119 299.298 174.435 306.058 174.435Z" fill="#34113F" stroke="#FFCDBC" stroke-width="4.36" stroke-miterlimit="21.02"/>
<path fill-rule="evenodd" clip-rule="evenodd" d="M161.42 2.3125C164.638 2.3125 167.25 5.34871 167.25 9.09599V99.5612C167.25 103.308 164.638 106.345 161.42 106.345C158.203 106.345 155.591 103.308 155.591 99.5612V9.09599C155.591 5.34871 158.203 2.3125 161.42 2.3125Z" fill="#FFCDBC" stroke="#FFCDBC" stroke-width="4.36" stroke-miterlimit="15.12"/>
<path d="M160.914 119.889C167.674 119.889 173.155 114.573 173.155 108.015C173.155 101.457 167.674 96.1412 160.914 96.1412C154.153 96.1412 148.673 101.457 148.673 108.015C148.673 114.573 154.153 119.889 160.914 119.889Z" fill="#34113F" stroke="#FFCDBC" stroke-width="4.36" stroke-miterlimit="15.12"/>
</svg>
