# File produced by Open Asset Import Library (http://www.assimp.sf.net)
# (assimp v5.4.1520668643)

mtllib l1.mtl

# 408 vertex positions
v -0.0199999996 0.0149999997 -0.150000006
v -0.0199999996 -0.0149999997 -0.150000006
v -0.0238268338 -0.0149999997 -0.149238795
v -0.0199999996 0.0149999997 -0.150000006
v -0.0238268338 -0.0149999997 -0.149238795
v -0.0238268338 0.0149999997 -0.149238795
v -0.0238268338 0.0149999997 -0.149238795
v -0.0238268338 -0.0149999997 -0.149238795
v -0.0270710681 -0.0149999997 -0.147071064
v -0.0238268338 0.0149999997 -0.149238795
v -0.0270710681 -0.0149999997 -0.147071064
v -0.0270710681 0.0149999997 -0.147071064
v -0.0270710681 0.0149999997 -0.147071064
v -0.0270710681 -0.0149999997 -0.147071064
v -0.0292387959 -0.0149999997 -0.143826827
v -0.0270710681 0.0149999997 -0.147071064
v -0.0292387959 -0.0149999997 -0.143826827
v -0.0292387959 0.0149999997 -0.143826827
v -0.0292387959 0.0149999997 -0.143826827
v -0.0292387959 -0.0149999997 -0.143826827
v -0.0299999993 -0.0149999997 -0.140000001
v -0.0292387959 0.0149999997 -0.143826827
v -0.0299999993 -0.0149999997 -0.140000001
v -0.0299999993 0.0149999997 -0.140000001
v -0.0299999993 0.0149999997 -0.0100000026
v -0.0299999993 0.0149999997 -0.140000001
v -0.0299999993 -0.0149999997 -0.0100000026
v -0.0299999993 -0.0149999997 -0.0100000026
v -0.0299999993 0.0149999997 -0.140000001
v -0.0299999993 -0.0149999997 -0.140000001
v -0.0299999993 0.0149999997 -0.0100000026
v -0.0299999993 -0.0149999997 -0.0100000026
v -0.0292387959 -0.0149999997 -0.00617316831
v -0.0299999993 0.0149999997 -0.0100000026
v -0.0292387959 -0.0149999997 -0.00617316831
v -0.0292387959 0.0149999997 -0.00617316831
v -0.0292387959 0.0149999997 -0.00617316831
v -0.0292387959 -0.0149999997 -0.00617316831
v -0.0270710681 -0.0149999997 -0.00292893196
v -0.0292387959 0.0149999997 -0.00617316831
v -0.0270710681 -0.0149999997 -0.00292893196
v -0.0270710681 0.0149999997 -0.00292893196
v -0.0270710681 0.0149999997 -0.00292893196
v -0.0270710681 -0.0149999997 -0.00292893196
v -0.0238268338 -0.0149999997 -0.00076120795
v -0.0270710681 0.0149999997 -0.00292893196
v -0.0238268338 -0.0149999997 -0.00076120795
v -0.0238268338 0.0149999997 -0.00076120795
v -0.0238268338 0.0149999997 -0.00076120795
v -0.0238268338 -0.0149999997 -0.00076120795
v -0.0199999996 -0.0149999997 2.98023228e-09
v -0.0238268338 0.0149999997 -0.00076120795
v -0.0199999996 -0.0149999997 2.98023228e-09
v -0.0199999996 0.0149999997 2.98023228e-09
v 0.0199999996 0.0149999997 2.98023228e-09
v -0.0199999996 0.0149999997 2.98023228e-09
v 0.0199999996 -0.0149999997 2.98023228e-09
v 0.0199999996 -0.0149999997 2.98023228e-09
v -0.0199999996 0.0149999997 2.98023228e-09
v -0.0199999996 -0.0149999997 2.98023228e-09
v 0.0199999996 0.0149999997 2.98023228e-09
v 0.0199999996 -0.0149999997 2.98023228e-09
v 0.0238268338 -0.0149999997 -0.00076120795
v 0.0199999996 0.0149999997 2.98023228e-09
v 0.0238268338 -0.0149999997 -0.00076120795
v 0.0238268338 0.0149999997 -0.00076120795
v 0.0238268338 0.0149999997 -0.00076120795
v 0.0238268338 -0.0149999997 -0.00076120795
v 0.0270710681 -0.0149999997 -0.00292893196
v 0.0238268338 0.0149999997 -0.00076120795
v 0.0270710681 -0.0149999997 -0.00292893196
v 0.0270710681 0.0149999997 -0.00292893196
v 0.0270710681 0.0149999997 -0.00292893196
v 0.0270710681 -0.0149999997 -0.00292893196
v 0.0292387959 -0.0149999997 -0.00617316831
v 0.0270710681 0.0149999997 -0.00292893196
v 0.0292387959 -0.0149999997 -0.00617316831
v 0.0292387959 0.0149999997 -0.00617316831
v 0.0292387959 0.0149999997 -0.00617316831
v 0.0292387959 -0.0149999997 -0.00617316831
v 0.0299999993 -0.0149999997 -0.0100000026
v 0.0292387959 0.0149999997 -0.00617316831
v 0.0299999993 -0.0149999997 -0.0100000026
v 0.0299999993 0.0149999997 -0.0100000026
v 0.0299999993 0.0149999997 -0.140000001
v 0.0299999993 0.0149999997 -0.0100000026
v 0.0299999993 -0.0149999997 -0.140000001
v 0.0299999993 -0.0149999997 -0.140000001
v 0.0299999993 0.0149999997 -0.0100000026
v 0.0299999993 -0.0149999997 -0.0100000026
v 0.0299999993 0.0149999997 -0.140000001
v 0.0299999993 -0.0149999997 -0.140000001
v 0.0292387959 -0.0149999997 -0.143826827
v 0.0299999993 0.0149999997 -0.140000001
v 0.0292387959 -0.0149999997 -0.143826827
v 0.0292387959 0.0149999997 -0.143826827
v 0.0292387959 0.0149999997 -0.143826827
v 0.0292387959 -0.0149999997 -0.143826827
v 0.0270710681 -0.0149999997 -0.147071064
v 0.0292387959 0.0149999997 -0.143826827
v 0.0270710681 -0.0149999997 -0.147071064
v 0.0270710681 0.0149999997 -0.147071064
v 0.0270710681 0.0149999997 -0.147071064
v 0.0270710681 -0.0149999997 -0.147071064
v 0.0238268338 -0.0149999997 -0.149238795
v 0.0270710681 0.0149999997 -0.147071064
v 0.0238268338 -0.0149999997 -0.149238795
v 0.0238268338 0.0149999997 -0.149238795
v 0.0238268338 0.0149999997 -0.149238795
v 0.0238268338 -0.0149999997 -0.149238795
v 0.0199999996 -0.0149999997 -0.150000006
v 0.0238268338 0.0149999997 -0.149238795
v 0.0199999996 -0.0149999997 -0.150000006
v 0.0199999996 0.0149999997 -0.150000006
v -0.0199999996 0.0149999997 -0.150000006
v 0.0199999996 0.0149999997 -0.150000006
v -0.0199999996 -0.0149999997 -0.150000006
v -0.0199999996 -0.0149999997 -0.150000006
v 0.0199999996 0.0149999997 -0.150000006
v 0.0199999996 -0.0149999997 -0.150000006
v -0.00325412815 0.0149999997 -0.123242736
v -0.00586373592 0.0149999997 -0.125323832
v -0.0299999993 0.0149999997 -0.0100000026
v 0.00731195929 0.0149999997 -0.13166891
v 0.00731195929 0.0149999997 -0.128331095
v 0.0299999993 0.0149999997 -0.140000001
v -0.0270710681 0.0149999997 -0.00292893196
v -0.0238268338 0.0149999997 -0.00076120795
v 1.20888542e-17 0.0149999997 -0.122500002
v 1.20888542e-17 0.0149999997 -0.122500002
v -0.0238268338 0.0149999997 -0.00076120795
v -0.0199999996 0.0149999997 2.98023228e-09
v 1.20888542e-17 0.0149999997 -0.122500002
v -0.0199999996 0.0149999997 2.98023228e-09
v 0.00325412815 0.0149999997 -0.123242736
v 0.00325412815 0.0149999997 -0.123242736
v -0.0199999996 0.0149999997 2.98023228e-09
v 0.0199999996 0.0149999997 2.98023228e-09
v 0.00325412815 0.0149999997 -0.123242736
v 0.0199999996 0.0149999997 2.98023228e-09
v 0.0238268338 0.0149999997 -0.00076120795
v -0.0299999993 0.0149999997 -0.0100000026
v -0.00586373592 0.0149999997 -0.125323832
v -0.0299999993 0.0149999997 -0.140000001
v -0.0299999993 0.0149999997 -0.140000001
v -0.00586373592 0.0149999997 -0.125323832
v -0.00731195929 0.0149999997 -0.128331095
v -0.0299999993 0.0149999997 -0.140000001
v -0.00731195929 0.0149999997 -0.128331095
v -0.00731195929 0.0149999997 -0.13166891
v 0.0238268338 0.0149999997 -0.00076120795
v 0.0270710681 0.0149999997 -0.00292893196
v 0.00325412815 0.0149999997 -0.123242736
v 0.00325412815 0.0149999997 -0.123242736
v 0.0270710681 0.0149999997 -0.00292893196
v 0.0292387959 0.0149999997 -0.00617316831
v 0.00325412815 0.0149999997 -0.123242736
v 0.0292387959 0.0149999997 -0.00617316831
v 0.0299999993 0.0149999997 -0.0100000026
v 0.0299999993 0.0149999997 -0.140000001
v 0.00731195929 0.0149999997 -0.128331095
v 0.0299999993 0.0149999997 -0.0100000026
v 0.0299999993 0.0149999997 -0.0100000026
v 0.00731195929 0.0149999997 -0.128331095
v 0.00586373592 0.0149999997 -0.125323832
v 0.0299999993 0.0149999997 -0.0100000026
v 0.00586373592 0.0149999997 -0.125323832
v 0.00325412815 0.0149999997 -0.123242736
v 0.0199999996 0.0149999997 -0.150000006
v 0.00325412815 0.0149999997 -0.13675727
v 0.0238268338 0.0149999997 -0.149238795
v 0.0238268338 0.0149999997 -0.149238795
v 0.00325412815 0.0149999997 -0.13675727
v 0.00586373592 0.0149999997 -0.134676173
v 0.0238268338 0.0149999997 -0.149238795
v 0.00586373592 0.0149999997 -0.134676173
v 0.0270710681 0.0149999997 -0.147071064
v 0.0270710681 0.0149999997 -0.147071064
v 0.00586373592 0.0149999997 -0.134676173
v 0.00731195929 0.0149999997 -0.13166891
v 0.0270710681 0.0149999997 -0.147071064
v 0.00731195929 0.0149999997 -0.13166891
v 0.0292387959 0.0149999997 -0.143826827
v 0.0292387959 0.0149999997 -0.143826827
v 0.00731195929 0.0149999997 -0.13166891
v 0.0299999993 0.0149999997 -0.140000001
v -0.00325412815 0.0149999997 -0.123242736
v -0.0299999993 0.0149999997 -0.0100000026
v 1.20888542e-17 0.0149999997 -0.122500002
v 1.20888542e-17 0.0149999997 -0.122500002
v -0.0299999993 0.0149999997 -0.0100000026
v -0.0292387959 0.0149999997 -0.00617316831
v 1.20888542e-17 0.0149999997 -0.122500002
v -0.0292387959 0.0149999997 -0.00617316831
v -0.0270710681 0.0149999997 -0.00292893196
v -0.0292387959 0.0149999997 -0.143826827
v -0.0299999993 0.0149999997 -0.140000001
v -0.0270710681 0.0149999997 -0.147071064
v -0.0270710681 0.0149999997 -0.147071064
v -0.0299999993 0.0149999997 -0.140000001
v -0.00731195929 0.0149999997 -0.13166891
v -0.0270710681 0.0149999997 -0.147071064
v -0.00731195929 0.0149999997 -0.13166891
v -0.0238268338 0.0149999997 -0.149238795
v -0.0238268338 0.0149999997 -0.149238795
v -0.00731195929 0.0149999997 -0.13166891
v -0.00586373592 0.0149999997 -0.134676173
v -0.0238268338 0.0149999997 -0.149238795
v -0.00586373592 0.0149999997 -0.134676173
v -0.0199999996 0.0149999997 -0.150000006
v -0.0199999996 0.0149999997 -0.150000006
v -0.00586373592 0.0149999997 -0.134676173
v -0.00325412815 0.0149999997 -0.13675727
v -0.0199999996 0.0149999997 -0.150000006
v -0.00325412815 0.0149999997 -0.13675727
v 0.0199999996 0.0149999997 -0.150000006
v 0.0199999996 0.0149999997 -0.150000006
v -0.00325412815 0.0149999997 -0.13675727
v 1.05709712e-17 0.0149999997 -0.137500003
v 0.0199999996 0.0149999997 -0.150000006
v 1.05709712e-17 0.0149999997 -0.137500003
v 0.00325412815 0.0149999997 -0.13675727
v -0.0299999993 -0.0149999997 -0.140000001
v -0.00731195929 -0.0149999997 -0.13166891
v -0.00731195929 -0.0149999997 -0.128331095
v -0.0299999993 -0.0149999997 -0.140000001
v -0.00731195929 -0.0149999997 -0.128331095
v -0.0299999993 -0.0149999997 -0.0100000026
v 0.0199999996 -0.0149999997 -0.150000006
v 1.05574187e-17 -0.0149999997 -0.137500003
v -0.0199999996 -0.0149999997 -0.150000006
v -0.0199999996 -0.0149999997 -0.150000006
v 1.05574187e-17 -0.0149999997 -0.137500003
v -0.00325412815 -0.0149999997 -0.13675727
v -0.0199999996 -0.0149999997 -0.150000006
v -0.00325412815 -0.0149999997 -0.13675727
v -0.0238268338 -0.0149999997 -0.149238795
v -0.0238268338 -0.0149999997 -0.149238795
v -0.00325412815 -0.0149999997 -0.13675727
v -0.00586373592 -0.0149999997 -0.134676173
v -0.0238268338 -0.0149999997 -0.149238795
v -0.00586373592 -0.0149999997 -0.134676173
v -0.0270710681 -0.0149999997 -0.147071064
v -0.0270710681 -0.0149999997 -0.147071064
v -0.00586373592 -0.0149999997 -0.134676173
v -0.00731195929 -0.0149999997 -0.13166891
v -0.0270710681 -0.0149999997 -0.147071064
v -0.00731195929 -0.0149999997 -0.13166891
v -0.0292387959 -0.0149999997 -0.143826827
v -0.0292387959 -0.0149999997 -0.143826827
v -0.00731195929 -0.0149999997 -0.13166891
v -0.0299999993 -0.0149999997 -0.140000001
v 0.0292387959 -0.0149999997 -0.143826827
v 0.0299999993 -0.0149999997 -0.140000001
v 0.0270710681 -0.0149999997 -0.147071064
v 0.0270710681 -0.0149999997 -0.147071064
v 0.0299999993 -0.0149999997 -0.140000001
v 0.00731195929 -0.0149999997 -0.13166891
v 0.0270710681 -0.0149999997 -0.147071064
v 0.00731195929 -0.0149999997 -0.13166891
v 0.0238268338 -0.0149999997 -0.149238795
v 0.0238268338 -0.0149999997 -0.149238795
v 0.00731195929 -0.0149999997 -0.13166891
v 0.00586373592 -0.0149999997 -0.134676173
v 0.0238268338 -0.0149999997 -0.149238795
v 0.00586373592 -0.0149999997 -0.134676173
v 0.0199999996 -0.0149999997 -0.150000006
v 0.0199999996 -0.0149999997 -0.150000006
v 0.00586373592 -0.0149999997 -0.134676173
v 0.00325412815 -0.0149999997 -0.13675727
v 0.0199999996 -0.0149999997 -0.150000006
v 0.00325412815 -0.0149999997 -0.13675727
v 1.05574187e-17 -0.0149999997 -0.137500003
v 8.61940727e-18 -0.0149999997 -0.122500002
v -0.0199999996 -0.0149999997 2.98023228e-09
v -0.0238268338 -0.0149999997 -0.00076120795
v -0.0199999996 -0.0149999997 2.98023228e-09
v 8.61940727e-18 -0.0149999997 -0.122500002
v 0.0199999996 -0.0149999997 2.98023228e-09
v 0.0199999996 -0.0149999997 2.98023228e-09
v 8.61940727e-18 -0.0149999997 -0.122500002
v 0.00325412815 -0.0149999997 -0.123242736
v 0.0199999996 -0.0149999997 2.98023228e-09
v 0.00325412815 -0.0149999997 -0.123242736
v 0.0238268338 -0.0149999997 -0.00076120795
v 0.0270710681 -0.0149999997 -0.00292893196
v 0.0238268338 -0.0149999997 -0.00076120795
v 0.0292387959 -0.0149999997 -0.00617316831
v 0.0292387959 -0.0149999997 -0.00617316831
v 0.0238268338 -0.0149999997 -0.00076120795
v 0.00325412815 -0.0149999997 -0.123242736
v 0.0292387959 -0.0149999997 -0.00617316831
v 0.00325412815 -0.0149999997 -0.123242736
v 0.0299999993 -0.0149999997 -0.0100000026
v 0.0299999993 -0.0149999997 -0.0100000026
v 0.00325412815 -0.0149999997 -0.123242736
v 0.00586373592 -0.0149999997 -0.125323832
v 0.0299999993 -0.0149999997 -0.0100000026
v 0.00586373592 -0.0149999997 -0.125323832
v 0.0299999993 -0.0149999997 -0.140000001
v 0.0299999993 -0.0149999997 -0.140000001
v 0.00586373592 -0.0149999997 -0.125323832
v 0.00731195929 -0.0149999997 -0.128331095
v 0.0299999993 -0.0149999997 -0.140000001
v 0.00731195929 -0.0149999997 -0.128331095
v 0.00731195929 -0.0149999997 -0.13166891
v -0.00731195929 -0.0149999997 -0.128331095
v -0.00586373592 -0.0149999997 -0.125323832
v -0.0299999993 -0.0149999997 -0.0100000026
v -0.0299999993 -0.0149999997 -0.0100000026
v -0.00586373592 -0.0149999997 -0.125323832
v -0.00325412815 -0.0149999997 -0.123242736
v -0.0299999993 -0.0149999997 -0.0100000026
v -0.00325412815 -0.0149999997 -0.123242736
v -0.0292387959 -0.0149999997 -0.00617316831
v -0.0292387959 -0.0149999997 -0.00617316831
v -0.00325412815 -0.0149999997 -0.123242736
v 8.61940727e-18 -0.0149999997 -0.122500002
v -0.0292387959 -0.0149999997 -0.00617316831
v 8.61940727e-18 -0.0149999997 -0.122500002
v -0.0270710681 -0.0149999997 -0.00292893196
v -0.0270710681 -0.0149999997 -0.00292893196
v 8.61940727e-18 -0.0149999997 -0.122500002
v -0.0238268338 -0.0149999997 -0.00076120795
v 9.22927099e-18 -0.0149999997 -0.122500002
v 9.24282352e-18 0.0149999997 -0.122500002
v 0.00325412815 -0.0149999997 -0.123242736
v 0.00325412815 -0.0149999997 -0.123242736
v 9.24282352e-18 0.0149999997 -0.122500002
v 0.00325412815 0.0149999997 -0.123242736
v 0.00325412815 -0.0149999997 -0.123242736
v 0.00325412815 0.0149999997 -0.123242736
v 0.00586373592 -0.0149999997 -0.125323832
v 0.00586373592 -0.0149999997 -0.125323832
v 0.00325412815 0.0149999997 -0.123242736
v 0.00586373592 0.0149999997 -0.125323832
v 0.00586373592 -0.0149999997 -0.125323832
v 0.00586373592 0.0149999997 -0.125323832
v 0.00731195929 -0.0149999997 -0.128331095
v 0.00731195929 -0.0149999997 -0.128331095
v 0.00586373592 0.0149999997 -0.125323832
v 0.00731195929 0.0149999997 -0.128331095
v 0.00731195929 -0.0149999997 -0.128331095
v 0.00731195929 0.0149999997 -0.128331095
v 0.00731195929 -0.0149999997 -0.13166891
v 0.00731195929 -0.0149999997 -0.13166891
v 0.00731195929 0.0149999997 -0.128331095
v 0.00731195929 0.0149999997 -0.13166891
v 0.00731195929 -0.0149999997 -0.13166891
v 0.00731195929 0.0149999997 -0.13166891
v 0.00586373592 -0.0149999997 -0.134676173
v 0.00586373592 -0.0149999997 -0.134676173
v 0.00731195929 0.0149999997 -0.13166891
v 0.00586373592 0.0149999997 -0.134676173
v 0.00586373592 -0.0149999997 -0.134676173
v 0.00586373592 0.0149999997 -0.134676173
v 0.00325412815 -0.0149999997 -0.13675727
v 0.00325412815 -0.0149999997 -0.13675727
v 0.00586373592 0.0149999997 -0.134676173
v 0.00325412815 0.0149999997 -0.13675727
v 0.00325412815 -0.0149999997 -0.13675727
v 0.00325412815 0.0149999997 -0.13675727
v 1.04489984e-17 -0.0149999997 -0.137500003
v 1.04489984e-17 -0.0149999997 -0.137500003
v 0.00325412815 0.0149999997 -0.13675727
v 1.0462551e-17 0.0149999997 -0.137500003
v 1.04489984e-17 -0.0149999997 -0.137500003
v 1.0462551e-17 0.0149999997 -0.137500003
v -0.00325412815 -0.0149999997 -0.13675727
v -0.00325412815 -0.0149999997 -0.13675727
v 1.0462551e-17 0.0149999997 -0.137500003
v -0.00325412815 0.0149999997 -0.13675727
v -0.00325412815 -0.0149999997 -0.13675727
v -0.00325412815 0.0149999997 -0.13675727
v -0.00586373592 -0.0149999997 -0.134676173
v -0.00586373592 -0.0149999997 -0.134676173
v -0.00325412815 0.0149999997 -0.13675727
v -0.00586373592 0.0149999997 -0.134676173
v -0.00586373592 -0.0149999997 -0.134676173
v -0.00586373592 0.0149999997 -0.134676173
v -0.00731195929 -0.0149999997 -0.13166891
v -0.00731195929 -0.0149999997 -0.13166891
v -0.00586373592 0.0149999997 -0.134676173
v -0.00731195929 0.0149999997 -0.13166891
v -0.00731195929 -0.0149999997 -0.13166891
v -0.00731195929 0.0149999997 -0.13166891
v -0.00731195929 -0.0149999997 -0.128331095
v -0.00731195929 -0.0149999997 -0.128331095
v -0.00731195929 0.0149999997 -0.13166891
v -0.00731195929 0.0149999997 -0.128331095
v -0.00731195929 -0.0149999997 -0.128331095
v -0.00731195929 0.0149999997 -0.128331095
v -0.00586373592 -0.0149999997 -0.125323832
v -0.00586373592 -0.0149999997 -0.125323832
v -0.00731195929 0.0149999997 -0.128331095
v -0.00586373592 0.0149999997 -0.125323832
v -0.00586373592 -0.0149999997 -0.125323832
v -0.00586373592 0.0149999997 -0.125323832
v -0.00325412815 -0.0149999997 -0.123242736
v -0.00325412815 -0.0149999997 -0.123242736
v -0.00586373592 0.0149999997 -0.125323832
v -0.00325412815 0.0149999997 -0.123242736
v -0.00325412815 -0.0149999997 -0.123242736
v -0.00325412815 0.0149999997 -0.123242736
v 9.22927099e-18 -0.0149999997 -0.122500002
v 9.22927099e-18 -0.0149999997 -0.122500002
v -0.00325412815 0.0149999997 -0.123242736
v 9.24282352e-18 0.0149999997 -0.122500002

# 0 UV coordinates

# 34 vertex normals
vn -0.195091859 -1.32272665e-17 -0.980784953
vn -0.55556953 -1.08420217e-17 -0.831470072
vn -0.831469774 -6.9388939e-18 -0.555569947
vn -0.98078531 -1.73472348e-18 -0.195090026
vn -1 8.67361738e-19 1.01844608e-16
vn -0.98078531 3.46944695e-18 0.195090026
vn -0.831469774 8.67361738e-18 0.555569947
vn -0.55556953 1.21430643e-17 0.831470072
vn -0.195091859 1.36609474e-17 0.980784953
vn 1.01844608e-16 1.3759908e-17 1
vn 0.195091859 1.32272665e-17 0.980784953
vn 0.55556953 1.08420217e-17 0.831470072
vn 0.831469774 6.9388939e-18 0.555569947
vn 0.98078531 1.73472348e-18 0.195090026
vn 1 -8.67361738e-19 -1.01844608e-16
vn 0.98078531 -3.46944695e-18 -0.195090026
vn 0.831469774 -8.67361738e-18 -0.555569947
vn 0.55556953 -1.21430643e-17 -0.831470072
vn 0.195091859 -1.36609474e-17 -0.980784953
vn -1.01844608e-16 -1.3759908e-17 -1
vn 8.67361738e-19 1 -1.3759908e-17
vn -8.67361738e-19 -1 1.3759908e-17
vn -0.222520918 -1.32272665e-17 -0.974927902
vn -0.623489738 -1.04083409e-17 -0.781831503
vn -0.90096885 -5.20417043e-18 -0.433883756
vn -0.90096885 6.9388939e-18 0.433883756
vn -0.623489738 1.21430643e-17 0.781831503
vn -0.222520918 1.36609474e-17 0.974927902
vn 0.222520918 1.32272665e-17 0.974927902
vn 0.623489738 1.04083409e-17 0.781831503
vn 0.90096885 5.20417043e-18 0.433883756
vn 0.90096885 -6.9388939e-18 -0.433883756
vn 0.623489738 -1.21430643e-17 -0.781831503
vn 0.222520918 -1.36609474e-17 -0.974927902

# Mesh '' with 136 faces
usemtl DefaultMaterial
f  1//1 2//1 3//1
f  4//1 5//1 6//1
f  7//2 8//2 9//2
f  10//2 11//2 12//2
f  13//3 14//3 15//3
f  16//3 17//3 18//3
f  19//4 20//4 21//4
f  22//4 23//4 24//4
f  25//5 26//5 27//5
f  28//5 29//5 30//5
f  31//6 32//6 33//6
f  34//6 35//6 36//6
f  37//7 38//7 39//7
f  40//7 41//7 42//7
f  43//8 44//8 45//8
f  46//8 47//8 48//8
f  49//9 50//9 51//9
f  52//9 53//9 54//9
f  55//10 56//10 57//10
f  58//10 59//10 60//10
f  61//11 62//11 63//11
f  64//11 65//11 66//11
f  67//12 68//12 69//12
f  70//12 71//12 72//12
f  73//13 74//13 75//13
f  76//13 77//13 78//13
f  79//14 80//14 81//14
f  82//14 83//14 84//14
f  85//15 86//15 87//15
f  88//15 89//15 90//15
f  91//16 92//16 93//16
f  94//16 95//16 96//16
f  97//17 98//17 99//17
f  100//17 101//17 102//17
f  103//18 104//18 105//18
f  106//18 107//18 108//18
f  109//19 110//19 111//19
f  112//19 113//19 114//19
f  115//20 116//20 117//20
f  118//20 119//20 120//20
f  121//21 122//21 123//21
f  124//21 125//21 126//21
f  127//21 128//21 129//21
f  130//21 131//21 132//21
f  133//21 134//21 135//21
f  136//21 137//21 138//21
f  139//21 140//21 141//21
f  142//21 143//21 144//21
f  145//21 146//21 147//21
f  148//21 149//21 150//21
f  151//21 152//21 153//21
f  154//21 155//21 156//21
f  157//21 158//21 159//21
f  160//21 161//21 162//21
f  163//21 164//21 165//21
f  166//21 167//21 168//21
f  169//21 170//21 171//21
f  172//21 173//21 174//21
f  175//21 176//21 177//21
f  178//21 179//21 180//21
f  181//21 182//21 183//21
f  184//21 185//21 186//21
f  187//21 188//21 189//21
f  190//21 191//21 192//21
f  193//21 194//21 195//21
f  196//21 197//21 198//21
f  199//21 200//21 201//21
f  202//21 203//21 204//21
f  205//21 206//21 207//21
f  208//21 209//21 210//21
f  211//21 212//21 213//21
f  214//21 215//21 216//21
f  217//21 218//21 219//21
f  220//21 221//21 222//21
f  223//22 224//22 225//22
f  226//22 227//22 228//22
f  229//22 230//22 231//22
f  232//22 233//22 234//22
f  235//22 236//22 237//22
f  238//22 239//22 240//22
f  241//22 242//22 243//22
f  244//22 245//22 246//22
f  247//22 248//22 249//22
f  250//22 251//22 252//22
f  253//22 254//22 255//22
f  256//22 257//22 258//22
f  259//22 260//22 261//22
f  262//22 263//22 264//22
f  265//22 266//22 267//22
f  268//22 269//22 270//22
f  271//22 272//22 273//22
f  274//22 275//22 276//22
f  277//22 278//22 279//22
f  280//22 281//22 282//22
f  283//22 284//22 285//22
f  286//22 287//22 288//22
f  289//22 290//22 291//22
f  292//22 293//22 294//22
f  295//22 296//22 297//22
f  298//22 299//22 300//22
f  301//22 302//22 303//22
f  304//22 305//22 306//22
f  307//22 308//22 309//22
f  310//22 311//22 312//22
f  313//22 314//22 315//22
f  316//22 317//22 318//22
f  319//22 320//22 321//22
f  322//22 323//22 324//22
f  325//23 326//23 327//23
f  328//23 329//23 330//23
f  331//24 332//24 333//24
f  334//24 335//24 336//24
f  337//25 338//25 339//25
f  340//25 341//25 342//25
f  343//5 344//5 345//5
f  346//5 347//5 348//5
f  349//26 350//26 351//26
f  352//26 353//26 354//26
f  355//27 356//27 357//27
f  358//27 359//27 360//27
f  361//28 362//28 363//28
f  364//28 365//28 366//28
f  367//29 368//29 369//29
f  370//29 371//29 372//29
f  373//30 374//30 375//30
f  376//30 377//30 378//30
f  379//31 380//31 381//31
f  382//31 383//31 384//31
f  385//15 386//15 387//15
f  388//15 389//15 390//15
f  391//32 392//32 393//32
f  394//32 395//32 396//32
f  397//33 398//33 399//33
f  400//33 401//33 402//33
f  403//34 404//34 405//34
f  406//34 407//34 408//34

